<svg xmlns="http://www.w3.org/2000/svg" width="21" height="22" fill="none"><path fill="currentColor" d="M18.692 8.268H18.4v-.295C18.4 3.573 14.866 0 10.514 0 6.163 0 2.63 3.573 2.63 7.973v.295h-.292C1.05 8.268 0 9.332 0 10.631v3.839c0 1.3 1.051 2.362 2.337 2.362h2.628V8.27H3.797v-.296c0-3.75 3.008-6.792 6.717-6.792 3.71 0 6.718 3.042 6.718 6.792v.296h-1.168v8.563h1.664a2.361 2.361 0 01-2.278 1.772h-1.664a2.769 2.769 0 00-2.717-2.215c-1.518 0-2.774 1.27-2.774 2.806C8.295 20.73 9.55 22 11.069 22a2.768 2.768 0 002.716-2.215h1.665c1.753 0 3.184-1.3 3.447-2.953 1.168-.118 2.102-1.122 2.102-2.362v-3.84a2.295 2.295 0 00-2.307-2.362zM3.797 9.45v6.2h-1.46a1.178 1.178 0 01-1.168-1.18v-3.84c0-.649.525-1.18 1.168-1.18h1.46zm7.302 11.398a1.61 1.61 0 01-1.607-1.624c0-.886.73-1.624 1.607-1.624.876 0 1.606.738 1.606 1.624 0 .886-.73 1.624-1.606 1.624zM19.86 14.5c0 .65-.525 1.181-1.168 1.181h-1.46V9.48h1.46c.643 0 1.168.531 1.168 1.181v3.84z"/></svg>