<svg xmlns="http://www.w3.org/2000/svg" width="27" height="28" fill="none"><path fill="currentColor" d="M19.744 0c-3.826 0-6.973 2.935-7.235 6.646L8.3 5.355a.687.687 0 00-.264-.021C7.99 5.336.475 7.626.475 7.626A.687.687 0 000 8.272v19.063c0 .416.473.759.875.635L8.1 25.762l7.225 2.208c.13.04.271.04.4 0l7.426-2.27a.687.687 0 00.474-.636V14c.295-.348.588-.702.865-1.063 1.363-1.772 2.474-3.697 2.51-5.77v-.021C27 3.2 23.74 0 19.744 0zm0 1.333c3.265 0 5.9 2.585 5.906 5.803v.01c-.032 1.599-.951 3.308-2.236 4.98-1.13 1.469-2.484 2.884-3.67 4.208-1.187-1.325-2.542-2.727-3.67-4.198-1.283-1.671-2.205-3.39-2.236-4.99v-.01c.006-3.22 2.64-5.803 5.906-5.803zm0 2.334c-1.95 0-3.544 1.575-3.544 3.5s1.595 3.5 3.544 3.5 3.544-1.575 3.544-3.5-1.595-3.5-3.544-3.5zm0 1.333a2.17 2.17 0 012.193 2.167 2.17 2.17 0 01-2.193 2.167c-1.22 0-2.194-.962-2.194-2.167 0-1.205.974-2.167 2.194-2.167zM7.425 6.907v17.656L1.35 26.418V8.76l6.075-1.854zm1.35 0l3.797 1.156c.27 1.657 1.184 3.21 2.278 4.667.002.002-.002.008 0 .01v13.678l-6.075-1.854V6.907zm7.425 7.49c1.052 1.213 2.144 2.345 3.027 3.364.253.29.77.29 1.023 0 .603-.695 1.303-1.439 2.025-2.23v9.032L16.2 26.417v-12.02z"/></svg>