<svg width="22" height="27" fill="none" xmlns="http://www.w3.org/2000/svg"><path d="M1.9 1c-.494 0-.9.394-.9.872v1.744c0 .478.406.872.9.872h2.108c.101 3.122 1.804 6.38 4.789 7.45v3.115c-2.984 1.069-4.688 4.336-4.789 7.459H1.9c-.494 0-.9.393-.9.872v1.744c0 .478.406.872.9.872h17.992c.493 0 .9-.394.9-.872v-1.744c0-.479-.407-.872-.9-.872h-2.108c-.101-3.123-1.805-6.39-4.79-7.459v-3.116c2.985-1.068 4.689-4.327 4.79-7.449h2.108c.493 0 .9-.394.9-.872V1.872c0-.478-.407-.872-.9-.872H1.9zm0 .581h17.992c.171 0 .3.125.3.291v1.744a.29.29 0 01-.3.291H1.9a.289.289 0 01-.3-.29V1.871c0-.166.128-.29.3-.29zm2.708 2.907h12.576c-.103 2.991-1.792 6.105-4.583 6.986a.3.3 0 00-.206.281v3.488a.3.3 0 00.206.273c2.792.88 4.48 4.003 4.583 6.995H4.608c.103-2.992 1.791-6.115 4.582-6.995a.3.3 0 00.206-.273v-3.488a.3.3 0 00-.206-.281c-2.79-.881-4.48-3.995-4.582-6.986zM1.9 23.092h17.992c.171 0 .3.125.3.291v1.744a.29.29 0 01-.3.291H1.9a.289.289 0 01-.3-.29v-1.745c0-.166.128-.29.3-.29z" fill="currentColor" stroke="currentColor" stroke-width=".7"/></svg>