<svg xmlns="http://www.w3.org/2000/svg" width="31" height="21" fill="none"><path fill="currentColor" d="M5.813 10h7.75v1h-7.75v-1zm0 3h5.812v-1H5.813v1zm0-4h7.75V8h-7.75v1zm14.289 1.05h.484v-.9h-.484v.9zm0 5.55h.484v-.9h-.484v.9zm0-9.25h.484v-.9h-.484v.9zm0 1.85h.484v-.9h-.484v.9zm0 5.55h.484v-.9h-.484v.9zm0-1.85h.484V11h-.484v.9zM31 3v15c0 1.65-1.308 3-2.906 3H23.25c-.533 0-.968-.45-.968-1 0-1.1-.872-2-1.938-2-1.065 0-1.937.9-1.937 2 0 .55-.436 1-.969 1H2.906C1.308 21 0 19.65 0 18V3c0-1.65 1.308-3 2.907-3h14.53c.534 0 .97.45.97 1 0 1.1.871 2 1.937 2 1.065 0 1.937-.9 1.937-2 0-.55.436-1 .969-1h4.843C29.692 0 31 1.35 31 3zm-1.453 15V3c0-.85-.63-1.5-1.453-1.5h-4.408c-.62 4.095-6.209 3.926-6.685 0H2.907c-.824 0-1.453.65-1.453 1.5v15c0 .85.63 1.5 1.453 1.5h14.095c.62-4.095 6.209-3.926 6.685 0h4.407c.823 0 1.453-.65 1.453-1.5z"/></svg>