<svg xmlns="http://www.w3.org/2000/svg" width="24" height="24" fill="none"><mask id="a" width="24" height="24" x="0" y="0" fill="#000" maskUnits="userSpaceOnUse"><path fill="#fff" d="M0 0h24v24H0z"/><path d="M11.998 1a.355.355 0 100 .71 10.302 10.302 0 11-7.417 3.164v.206a.357.357 0 00.347.362.355.355 0 00.355-.35l.02-1.06a.37.37 0 00-.05-.183.04.04 0 000-.016.072.072 0 00-.017-.022.118.118 0 00-.026-.033.18.18 0 00-.021-.019l-.029-.026-.023-.012-.043-.023a.379.379 0 00-.137-.031l-1.06-.017a.353.353 0 00-.362.348.357.357 0 00.35.362h.201A10.999 10.999 0 1011.998 1z"/></mask><path fill="currentColor" d="M11.998 1a.355.355 0 100 .71 10.302 10.302 0 11-7.417 3.164v.206a.357.357 0 00.347.362.355.355 0 00.355-.35l.02-1.06a.37.37 0 00-.05-.183.04.04 0 000-.016.072.072 0 00-.017-.022.118.118 0 00-.026-.033.18.18 0 00-.021-.019l-.029-.026-.023-.012-.043-.023a.379.379 0 00-.137-.031l-1.06-.017a.353.353 0 00-.362.348.357.357 0 00.35.362h.201A10.999 10.999 0 1011.998 1z"/><path fill="currentColor" d="M11.998 1v.2h.152l.041-.146L11.998 1zm0 .71v.2-.2zm10.103 8.235l-.196.04.196-.04zm-.968 6.85l.177.093-.177-.093zm-5.083 4.693l.078.184-.078-.184zm-6.906.42l.056-.192-.056.192zM3.53 17.864l-.164.114.164-.114zm-1.79-6.682l-.2-.016.2.016zm2.84-6.308h.2v-.497l-.343.358.144.139zm0 .206l.2.002V5.08h-.2zm.348.362l-.005.2h.005v-.2zm.355-.35l-.2-.004.2.003zm.02-1.06l.2.003V4.03l-.2.001zm-.05-.183l-.196-.041-.016.075.038.066.174-.1zm0-.016l.195-.042-.005-.026-.012-.023-.178.09zm-.017-.022l-.177.094.017.032.028.025.132-.15zm-.026-.033l-.145.138.006.006.006.006.133-.15zm-.021-.019l-.136.148.007.006.008.005.12-.159zm-.029-.026l.136-.147-.021-.02-.026-.012-.089.18zm-.023-.012l-.097.176.008.004.089-.18zm-.043-.023l.097-.175-.008-.005-.01-.004-.079.184zm-.137-.031l.007-.2H4.96l-.003.2zm-1.06-.017v-.2l-.003.4.003-.2zm0 0v.2l.005-.4-.005.2zm-.362.348l-.2-.003.2.003zm.35.362l-.004.2h.004v-.2zm.201 0v-.2h-.085l-.059.061.144.14zm-3.048 6.731l.199.017-.2-.017zm1.897 7.14l-.164.114.164-.113zm5.988 4.33l.056-.192-.056.192zm7.377-.436l.078.184-.078-.184zm5.436-5.005l.177.093-.177-.093zm1.043-7.315l.196-.04-.196.04zm-3.82-6.324l.126-.155-.126.155zM11.999 1V.8h-.152l-.041.146.193.054zm0-.2a.555.555 0 00-.556.555h.4c0-.085.07-.155.155-.155V.8zm-.556.555c0 .307.249.555.555.555v-.4a.155.155 0 01-.154-.155h-.4zM12 1.91a10.1 10.1 0 016.392 2.272l.253-.31a10.502 10.502 0 00-6.646-2.362v.4zm6.392 2.272a10.102 10.102 0 013.514 5.803l.392-.08a10.501 10.501 0 00-3.653-6.033l-.253.31zm3.514 5.803a10.102 10.102 0 01-.95 6.717l.355.186a10.502 10.502 0 00.987-6.984l-.392.08zm-.95 6.717a10.103 10.103 0 01-4.983 4.602l.156.368a10.503 10.503 0 005.182-4.784l-.354-.186zm-4.983 4.602a10.102 10.102 0 01-6.772.412l-.111.384c2.325.673 4.812.522 7.04-.428l-.158-.368zm-6.772.412a10.103 10.103 0 01-5.505-3.965l-.33.227A10.504 10.504 0 009.09 22.1l.11-.384zM3.695 17.75a10.102 10.102 0 01-1.756-6.553l-.398-.032c-.195 2.413.45 4.82 1.825 6.812l.329-.227zm-1.756-6.553a10.102 10.102 0 012.786-6.186l-.288-.277a10.502 10.502 0 00-2.896 6.43l.398.033zm2.442-6.324v.206h.4v-.206h-.4zm0 .203a.557.557 0 00.542.564l.01-.4a.157.157 0 01-.152-.159l-.4-.005zm.547.565a.555.555 0 00.555-.548l-.4-.005a.155.155 0 01-.155.153v.4zm.555-.547l.02-1.06-.4-.007-.02 1.06.4.007zm.02-1.065a.57.57 0 00-.077-.28l-.347.2a.17.17 0 01.023.083l.4-.003zm-.055-.14a.24.24 0 000-.099l-.391.083a.16.16 0 010-.066l.391.083zm-.017-.148a.272.272 0 00-.063-.08l-.264.3a.128.128 0 01-.03-.038l.357-.182zm-.018-.024a.318.318 0 00-.07-.09l-.266.3a.082.082 0 01-.018-.023l.354-.187zm-.058-.078a.378.378 0 00-.045-.04l-.242.318s-.002 0-.003-.002l.29-.276zm-.031-.028l-.028-.026-.271.294.028.027.271-.295zm-.075-.058l-.023-.012-.178.359.023.011.178-.358zm-.015-.007l-.043-.024-.194.35.043.023.194-.35zm-.06-.033a.58.58 0 00-.21-.047l-.014.4a.18.18 0 01.065.014l.159-.367zm-.214-.047L3.9 3.45l-.006.4 1.06.017.006-.4zm-1.063.383v-.4.4zm.005-.4a.553.553 0 00-.398.154l.278.289a.153.153 0 01.11-.043l.01-.4zm-.398.154a.553.553 0 00-.17.391l.4.006a.154.154 0 01.048-.108l-.278-.289zm-.17.392a.557.557 0 00.547.564l.008-.4A.157.157 0 013.735 4l-.4-.004zm.551.564h.201v-.4h-.201v.4zm.201-.4v.4-.4zm-.144.061a11.199 11.199 0 00-3.104 6.854l.399.033A10.799 10.799 0 014.23 4.498l-.288-.278zM.838 11.075a11.2 11.2 0 001.933 7.27l.33-.226a10.799 10.799 0 01-1.864-7.011l-.399-.034zm1.933 7.27a11.2 11.2 0 006.096 4.408l.112-.384a10.799 10.799 0 01-5.879-4.25l-.33.226zm6.096 4.408c2.48.722 5.133.566 7.51-.444l-.156-.368a10.801 10.801 0 01-7.242.428l-.112.384zm7.51-.444a11.201 11.201 0 005.536-5.096l-.354-.186a10.8 10.8 0 01-5.338 4.914l.157.368zm5.536-5.096a11.201 11.201 0 001.062-7.448l-.392.08a10.8 10.8 0 01-1.024 7.182l.354.186zm1.062-7.448a11.2 11.2 0 00-3.89-6.44l-.253.31a10.8 10.8 0 013.75 6.21l.393-.08zm-3.89-6.44A11.2 11.2 0 0011.998.8v.4c2.49 0 4.905.86 6.834 2.436l.253-.31zM11.805.947l.386.108-.385-.108z" mask="url(#a)"/><path fill="currentColor" stroke="currentColor" stroke-width=".2" d="M11.957 20.54h.041a8.538 8.538 0 10-8.537-8.537 8.547 8.547 0 008.496 8.537zm-.414-16.15v.841a.455.455 0 10.91 0v-.84a7.636 7.636 0 017.158 7.157h-.84a.455.455 0 100 .91h.84a7.635 7.635 0 01-2.222 4.936L11.544 4.39zm.91 15.226v-.84a.455.455 0 10-.91 0v.84a7.636 7.636 0 01-7.157-7.158h.84a.455.455 0 100-.91h-.84a7.636 7.636 0 012.222-4.935l5.845 13.003z"/><path fill="currentColor" stroke="currentColor" stroke-width=".2" d="M14.35 14.05l-2.592-1.662-.005-.003a.45.45 0 01-.161-.587l2.777-5.505.001-.001a.457.457 0 01.606-.2h.001a.453.453 0 01.2.608l-.089-.045.09.045-.828 7.35zm0 0h-.001l.288.185a.456.456 0 00.491-.767l-.054.084.054-.084-.778.583zm-1.75-2.209l-.075-.048-.054.084.09.045.04-.08z"/></svg>