<svg xmlns="http://www.w3.org/2000/svg" width="16" height="17" fill="none"><path fill="currentColor" fill-rule="evenodd" d="M5.748 0h4.35c.612 0 1.11.498 1.11 1.11v1.442h4.638v1.331h-1.41l-1.1 12.509a.666.666 0 01-.664.608h-9.52a.666.666 0 01-.664-.608l-1.1-12.509H0V2.552h4.639V1.11c0-.612.497-1.11 1.11-1.11zm.222 2.552h3.906v-1.22H5.97v1.22zm6.092 13.116h-8.3L2.723 3.883H13.1l-1.037 11.785zM6.014 5.812l.288 7.878-1.33.049-.289-7.879 1.33-.048zm5.15.05l-1.332-.05-.288 7.88 1.33.048.29-7.879zm-2.576-.026H7.257v7.878h1.331V5.836z" clip-rule="evenodd"/></svg>