<svg xmlns="http://www.w3.org/2000/svg" width="31" height="22" fill="none"><path fill="currentColor" d="M30.038 10.353l-1.802-5.322a1.504 1.504 0 00-1.422-1.026h-5.788V1.502A1.502 1.502 0 0019.525 0H1.502A1.502 1.502 0 000 1.502v2.002a.5.5 0 001.001 0V1.502a.5.5 0 01.5-.5h18.024a.5.5 0 01.5.5V16.02H8.956a3.504 3.504 0 00-4.896 0H1.001V5.507a.5.5 0 00-1 0v13.016a.5.5 0 00.5.5h2.543a3.505 3.505 0 006.929 0h6.548a.5.5 0 100-1H9.973a3.375 3.375 0 00-.306-1.002h11.705a3.374 3.374 0 00-.305 1.002h-2.544a.5.5 0 000 1h2.544a3.504 3.504 0 006.928 0h1.542a.5.5 0 00.501-.5v-8.01a.597.597 0 000-.16zm-9.012-5.347h5.788a.5.5 0 01.475.34l1.748 5.247v5.427h-2.058a3.504 3.504 0 00-4.896 0h-1.056V5.006zM1.002 17.021H3.35a3.375 3.375 0 00-.305 1.002H1V17.02zm5.507 4.005a2.504 2.504 0 110-5.008 2.504 2.504 0 010 5.008zm18.023 0a2.504 2.504 0 110-5.008 2.504 2.504 0 010 5.008zm4.506-3.003h-1.042a3.374 3.374 0 00-.305-1.002h1.347v1.002z"/><path fill="currentColor" d="M24.53 17.021a1.502 1.502 0 100 3.004 1.502 1.502 0 000-3.003zm0 2.003a.5.5 0 110-1 .5.5 0 010 1zm-2.001-6.008h1a.5.5 0 000-1.001h-1a.5.5 0 000 1zM6.508 17.021a1.502 1.502 0 100 3.005 1.502 1.502 0 000-3.005zm0 2.003a.5.5 0 110-1 .5.5 0 010 1zM7.51 3.505a2.003 2.003 0 100 4.006 2.003 2.003 0 000-4.006zm0 3.004a1.002 1.002 0 110-2.003 1.002 1.002 0 010 2.003zm4.004 5.005a2.003 2.003 0 104.007 0 2.003 2.003 0 00-4.007 0zm3.004 0a1.002 1.002 0 11-2.003 0 1.002 1.002 0 012.003 0zM13.102 3.73l-6.008 9.01a.5.5 0 00.416.776.5.5 0 00.415-.225l6.008-9.012a.5.5 0 00-.831-.55zm9.426 7.284h4.896a.5.5 0 00.406-.21.5.5 0 00.07-.451l-1.33-4.005a.5.5 0 00-.501-.34h-3.54a.5.5 0 00-.5.5v4.005a.501.501 0 00.5.5zm.501-4.005h2.704l1 3.004H23.03V7.009z"/></svg>