<svg xmlns="http://www.w3.org/2000/svg" width="22" height="28" fill="none"><path fill="currentColor" d="M21.974 27.054L20.199 8.796a.725.725 0 00-.732-.666h-3.341V5.151C16.126 2.313 13.828 0 11.009 0c-2.82 0-5.117 2.313-5.117 5.151v2.98H2.55a.725.725 0 00-.731.665L.009 27.16a.76.76 0 00.174.596A.69.69 0 00.74 28h20.502c.418 0 .732-.35.732-.736.035-.105.035-.175 0-.21zM7.389 5.117c0-1.998 1.601-3.645 3.62-3.645a3.63 3.63 0 013.62 3.645v2.978h-7.24V5.117zM3.247 9.602h2.68v1.507c0 .42.348.736.731.736.418 0 .731-.35.731-.736V9.602h7.206v1.507c0 .42.348.736.73.736.418 0 .732-.35.732-.736V9.602h2.68l1.358 13.877H1.889L3.247 9.602zM1.576 26.458l.139-1.472h18.553l.139 1.472H1.576z"/></svg>