<svg xmlns="http://www.w3.org/2000/svg" width="27" height="24" fill="none"><path fill="currentColor" d="M26.77 11.465l-5.676-5.689a.744.744 0 00-1.074 0 .736.736 0 000 1.07l4.372 4.39H7.287a.768.768 0 00-.767.763c0 .42.345.764.767.764h17.105l-4.372 4.353a.736.736 0 000 1.069c.153.153.345.23.536.23a.759.759 0 00.537-.23l5.677-5.65A.752.752 0 0027 12a.751.751 0 00-.23-.535z"/><path fill="currentColor" d="M4.334 23.454h9.857a.768.768 0 00.767-.763.767.767 0 00-.767-.764H4.334c-1.534 0-2.8-1.26-2.8-2.787V4.86c0-1.527 1.266-2.787 2.8-2.787h9.857a.767.767 0 00.767-.764.767.767 0 00-.767-.764H4.334C1.956.545 0 2.493 0 4.86v14.242c0 2.405 1.956 4.352 4.334 4.352z"/></svg>