<svg xmlns="http://www.w3.org/2000/svg" width="28" height="20" fill="none"><path fill="currentColor" fill-rule="evenodd" d="M2.1 20h23.8c1.16 0 2.1-.959 2.1-2.143V2.143C28 .959 27.06 0 25.9 0H2.1C.94 0 0 .959 0 2.143v15.714C0 19.041.94 20 2.1 20zM26.6 5.714v12.143a.707.707 0 01-.7.714H2.1a.706.706 0 01-.7-.714V2.143c0-.395.313-.714.7-.714h23.8c.387 0 .7.319.7.714v2.143H3.5c-.387 0-.7.32-.7.714 0 .394.313.714.7.714h23.1zM21 15h-2.8c-.387 0-.7-.32-.7-.714v-1.429c0-.395.313-.714.7-.714h4.2c.387 0 .7.32.7.714v1.429c0 .394.313.714.7.714.387 0 .7-.32.7-.714v-1.429c0-1.184-.94-2.143-2.1-2.143h-4.2c-1.16 0-2.1.959-2.1 2.143v1.429c0 1.184.94 2.143 2.1 2.143H21c.387 0 .7-.32.7-.715A.707.707 0 0021 15z" clip-rule="evenodd"/></svg>