<svg xmlns="http://www.w3.org/2000/svg" width="28" height="28" fill="none"><path fill="currentColor" fill-rule="evenodd" d="M15.232 17.372V1.232a1.23 1.23 0 00-2.103-.87c-.231.23-.36.543-.36.87v16.14l-3.67-3.668a1.232 1.232 0 00-1.742 1.742l5.819 5.819a1.167 1.167 0 001.65 0l5.818-5.819a1.232 1.232 0 10-1.742-1.742l-3.67 3.668z" clip-rule="evenodd"/><path fill="currentColor" fill-rule="evenodd" d="M0 25.667A2.33 2.33 0 002.333 28h23.334A2.33 2.33 0 0028 25.667v-7.063a1.231 1.231 0 10-2.465 0v5.765c0 .644-.522 1.166-1.166 1.166H3.63a1.166 1.166 0 01-1.166-1.166v-5.765a1.232 1.232 0 00-1.232-1.232c-.68 0-1.233.552-1.233 1.232v7.063z" clip-rule="evenodd"/></svg>