<svg xmlns="http://www.w3.org/2000/svg" width="35" height="17" fill="none"><path fill="currentColor" d="M34.85.205A.601.601 0 0034.398 0H15.384a.594.594 0 00-.597.491L12.27 16.327a.577.577 0 00.14.472.6.6 0 00.457.201h19.007a.594.594 0 00.597-.491L34.994.673a.577.577 0 00-.143-.468zm-10.92.965h1.737l-.478 3.001h-1.724l.465-3zm7.436 14.66H13.56l2.333-14.66h6.827l-.555 3.51a.576.576 0 00.138.468.6.6 0 00.453.205h2.948a.594.594 0 00.597-.497l.597-3.674h6.809l-2.34 14.648zM11.733 3.235H.597A.591.591 0 010 2.65c0-.323.267-.585.597-.585h11.136a.59.59 0 01.596.585.591.591 0 01-.596.585zm-1.23 2.275a.59.59 0 01.597.585.591.591 0 01-.597.585H5.73a.591.591 0 01-.597-.585.59.59 0 01.597-.585h4.775zm1.826 4.955a.58.58 0 01-.174.414.604.604 0 01-.422.171H3.772a.59.59 0 01-.597-.585c0-.323.267-.585.597-.585h7.96c.163 0 .319.065.431.18.113.115.173.27.166.429v-.024zm-2.423 3.3a.58.58 0 01-.174.413.603.603 0 01-.422.172H6.923a.591.591 0 01-.597-.585c0-.323.267-.585.597-.585H9.31c.158 0 .31.061.422.171a.58.58 0 01.174.414z"/></svg>