<svg width="55" height="55" viewBox="0 0 55 55" fill="none" xmlns="http://www.w3.org/2000/svg">
<rect x="0.535156" y="0.600586" width="53.877" height="53.877" rx="10" fill="#A38E7F"/>
<path d="M26.6931 23.0861C18.966 23.0258 14.3681 18.5837 13.035 16.3702C11.3448 20.8373 13.5381 24.0167 14.846 25.0481L11.6012 24.4444C12.0842 27.5231 15.2736 30.2045 16.8079 31.1603L14.0159 31.3112C15.2836 33.8466 18.1159 35.4363 19.3736 35.9142C18.5938 36.3167 16.8532 37.182 16.1288 37.4234C15.4044 37.6649 12.6073 38.3289 11.2993 38.6308C15.8269 40.5927 20.2035 41.1209 24.9575 40.4418C29.7115 39.7627 35.0691 36.4425 37.1065 32.3676C38.7364 29.1078 39.2445 24.0671 39.2948 21.9542C39.7979 21.8536 40.9549 21.5769 41.5586 21.2751C42.1623 20.9732 43.2187 19.7407 43.6715 19.1622L40.2003 18.8604L42.766 15.6911L37.9366 16.5966L35.8237 15.4647C34.4906 15.0622 31.2508 14.7101 28.9569 16.5211C26.6629 18.3321 26.4918 21.6524 26.6931 23.0861Z" fill="#BFB2A7"/>
</svg>
