<svg width="473" height="342" viewBox="0 0 473 342" fill="none" xmlns="http://www.w3.org/2000/svg">
<path d="M266.213 179.78C265.263 180.28 262.358 180.739 261.025 180.905C261.275 181.989 261.688 184.593 261.338 186.343C260.988 188.093 257.567 191.114 255.9 192.405C255.525 193.114 254.8 194.593 254.9 194.843C255.025 195.155 255.713 198.155 255.775 198.593C255.838 199.03 255.4 201.155 254.4 202.905C253.6 204.305 251.067 207.197 249.9 208.468C250.275 209.176 251.088 210.63 251.338 210.78C251.65 210.968 252.4 212.28 252.65 213.53C252.9 214.78 250.9 220.718 250.713 221.53C250.563 222.18 247.817 225.634 246.463 227.28L247.338 228.155C247.983 229.53 249.338 232.343 249.588 232.593C249.9 232.905 250.088 234.343 250.275 234.718C250.463 235.093 250.65 238.718 250.65 241.53C250.65 243.78 248.775 247.593 247.838 249.218C248.358 249.843 249.5 251.205 249.9 251.655C250.4 252.218 250.9 254.155 250.963 254.468C251.025 254.78 251.9 258.093 252.213 259.905C252.463 261.355 250.733 265.676 249.838 267.655L250.463 268.53L252.4 270.53C252.963 271.218 254.138 272.893 254.338 274.093C254.538 275.293 254.754 282.551 254.838 286.03C255.588 286.03 257.175 286.068 257.525 286.218C257.963 286.405 258.963 286.78 259.338 286.905C259.713 287.03 261.088 288.78 261.65 290.468C262.213 292.155 262.9 302.155 263.15 302.405C263.35 302.605 264.483 301.989 265.025 301.655C266.838 302.155 270.625 303.105 271.275 302.905C272.088 302.655 273.65 304.28 274.838 305.343C276.025 306.405 279.338 313.905 279.65 313.78C279.963 313.655 281.275 312.655 281.713 312.53C282.15 312.405 283.963 312.093 284.838 311.968C285.713 311.843 286.963 312.155 287.713 312.343C288.463 312.53 290.088 313.53 291.588 314.718C292.788 315.668 293.921 320.489 294.338 322.78C294.671 322.551 295.475 322.068 296.025 321.968C296.713 321.843 298.525 320.905 299.275 320.53C300.025 320.155 304.275 320.468 307.775 321.218C311.275 321.968 314.463 328.28 314.775 328.155C315.088 328.03 316.65 326.28 316.963 326.03C317.275 325.78 318.963 324.78 319.525 324.655C320.088 324.53 324.338 324.78 326.088 325.405C327.838 326.03 335.275 330.405 335.588 330.343C335.9 330.28 336.775 328.655 337.275 328.405C337.775 328.155 339.15 326.593 340.025 326.405C340.9 326.218 346.713 326.405 349.275 326.718C351.325 326.968 353.546 329.155 354.4 330.218C354.671 329.739 355.25 328.718 355.4 328.468C355.588 328.155 357.65 324.468 358.025 324.093C358.4 323.718 360.525 323.218 362.713 323.53C364.463 323.78 369.817 326.718 372.275 328.155L373.088 325.843C373.629 324.53 374.738 321.793 374.838 321.343C374.963 320.78 378.588 318.843 381.65 318.28C384.1 317.83 387.629 318.676 389.088 319.155C389.004 318.739 388.813 317.818 388.713 317.468C388.588 317.03 389.463 313.343 390.525 311.53C391.588 309.718 395.338 308.843 397.963 308.593C400.063 308.393 402.921 308.843 404.088 309.093C404.379 307.384 404.988 303.905 405.088 303.655C405.213 303.343 408.213 300.218 410.713 299.155C412.713 298.305 416.171 299.009 417.65 299.468C417.588 298.801 417.45 297.38 417.4 297.03C417.338 296.593 418.4 291.155 420.275 288.405C421.775 286.205 424.942 285.447 426.338 285.343L426.15 284.28C425.796 283.259 425.088 281.155 425.088 280.905C425.088 280.593 425.213 276.218 426.525 274.343C427.575 272.843 431.504 269.718 433.338 268.343C432.838 267.322 431.788 265.218 431.588 264.968C431.338 264.655 430.588 261.78 431.713 256.405C432.613 252.105 435.379 250.03 436.65 249.53C436.608 249.322 436.425 248.843 436.025 248.593C435.525 248.28 433.9 244.843 433.588 242.03C433.275 239.218 435.338 234.905 435.9 234.28C436.35 233.78 437.504 232.405 438.025 231.78C437.754 231.572 437.15 231.13 436.9 231.03C436.588 230.905 433.213 227.718 433.025 224.593C432.875 222.093 433.963 218.551 434.525 217.093C433.9 216.655 432.4 215.593 431.4 214.843C430.4 214.093 429.192 209.28 428.713 206.968L429.088 203.28L429.525 201.468C428.358 200.343 425.7 197.555 424.4 195.405C423.1 193.255 424.15 188.176 424.838 185.905C423.733 185.634 421.463 185.055 421.213 184.905C420.9 184.718 416.213 182.78 413.963 181.03C412.163 179.63 409.754 174.197 408.775 171.655C407.108 171.926 403.7 172.455 403.4 172.405C403.025 172.343 398.025 170.718 397.15 170.218C396.275 169.718 393.65 167.405 392.65 165.093C391.85 163.243 391.192 161.03 390.963 160.155C389.421 160.259 386.263 160.48 385.963 160.53C385.588 160.593 382.213 159.718 378.9 158.718C376.25 157.918 373.754 154.134 372.838 152.343C372.004 152.718 370.238 153.518 369.838 153.718C369.338 153.968 367.088 154.655 363.65 154.28C360.9 153.98 356.588 149.489 354.775 147.28C353.588 148.009 351.163 149.518 350.963 149.718C350.713 149.968 347.963 150.343 345.088 150.468C342.788 150.568 337.838 147.801 335.65 146.405C334.546 147.697 332.275 150.318 332.025 150.468C331.713 150.655 330.4 151.905 328.088 152.405C326.238 152.805 321.608 150.072 319.525 148.655C319.108 149.364 318.1 150.993 317.4 151.843C316.525 152.905 312.525 154.155 309.9 154.218C307.8 154.268 304.233 152.947 302.713 152.28C302.4 153.634 301.575 156.668 300.775 157.968C299.775 159.593 295.15 160.655 293.713 160.968C292.563 161.218 288.817 160.53 287.088 160.155L287.025 162.343C286.629 163.405 285.713 165.743 285.213 166.593C284.588 167.655 280.588 169.03 278.963 169.343C277.663 169.593 274.171 169.572 272.588 169.53C272.671 170.114 272.838 171.343 272.838 171.593C272.838 171.905 271.838 175.843 271.213 176.718C270.588 177.593 267.4 179.155 266.213 179.78Z" fill="#DAD5D1"/>
<path d="M255.775 192.28C257.387 192.032 259.236 190.511 260.025 189.113C261.202 187.029 261.729 182.711 260.581 180.53C260.184 179.777 259.963 180.038 260.831 180.224C262.8 180.646 264.446 179.867 266.303 179.53C269.305 178.984 272.775 175.64 272.775 172.419C272.775 171.733 272.186 168.428 272.914 168.891C274.119 169.658 276.339 169.561 277.72 169.53C279.35 169.494 281.821 168.776 283.275 168.03C284.831 167.231 285.995 165.542 286.525 163.919C286.724 163.311 286.858 159.829 287.275 159.78C288.457 159.641 288.778 160.117 289.914 160.53C292.775 161.57 296.447 160.826 298.97 159.335C301.148 158.048 301.374 156.747 302.025 154.335C302.075 154.152 302.826 150.808 302.9 150.808C303.134 150.808 303.981 151.961 304.275 152.141C304.949 152.553 305.758 153.04 306.511 153.266C308.249 153.787 309.383 154.28 311.261 154.28C315.513 154.28 317.475 151.98 319.164 148.391C319.748 147.149 319.919 148.349 320.525 149.224C321.431 150.533 323.598 150.737 324.9 151.53C328.834 153.924 331.528 151.055 334.525 148.724C335.554 147.924 335.955 147.042 336.025 145.78C336.081 144.772 337.304 147.198 337.581 147.474C338.694 148.588 340.653 149.227 342.081 149.835C344.666 150.937 347 150.831 349.65 149.891C351.699 149.164 352.569 147.795 354.15 146.53C354.345 146.374 356.947 150.201 357.47 150.724C359.241 152.496 362.128 153.448 364.581 153.724C366.818 153.976 370.619 153.679 372.386 152.03C373.581 150.914 373.525 151.101 373.525 152.627C373.525 155.327 376.202 156.877 378.303 158.044C381.354 159.739 383.583 161.135 387.233 160.655C388.341 160.509 389.317 160.218 390.386 159.919C391.213 159.687 391.757 159.259 391.775 160.335C391.824 163.268 391.933 166.019 394.331 168.03C396.517 169.864 399.781 171.219 402.525 171.905C404.629 172.431 406.658 172.304 408.636 171.405C409.549 170.99 409.248 172.484 409.303 173.03C409.477 174.775 410.325 176.53 411.275 177.974C413.171 180.854 415.569 182.899 418.775 184.224C419.253 184.422 424.709 185.595 424.608 185.947C424.027 187.981 422.848 189.392 423.386 191.641C424.071 194.501 425.293 197.869 427.664 199.766C428.37 200.331 429.122 200.905 429.886 201.391C430.556 201.817 429.393 202.874 429.178 203.419C428.24 205.801 428.719 208.946 429.525 211.28C430.056 212.817 431.096 215.038 432.72 215.724C433.195 215.925 433.636 216.182 434.025 216.53C434.725 217.156 433.969 217.68 433.539 218.405C432.417 220.298 432.409 222.277 432.539 224.419C432.719 227.381 433.914 228.664 435.997 230.516C436.747 231.183 438.967 231.72 437.886 232.544C435.836 234.106 434.031 235.769 433.581 238.474C433.11 241.299 433.428 244.198 434.72 246.78C435.146 247.632 435.584 248.298 436.525 248.585C436.775 248.662 438.011 249.051 437.72 249.155C434.903 250.161 433.447 251.721 432.525 254.683C431.987 256.412 431.677 258.229 431.4 260.016C431.184 261.406 430.769 262.855 431.275 264.224C431.783 265.598 432.217 266.972 433.275 268.03C433.926 268.681 433.155 268.566 432.525 268.78C431.202 269.229 430.335 270.139 429.358 271.085C427.74 272.652 425.516 274.05 424.831 276.335C424.378 277.844 424.656 280.011 425.275 281.405C425.554 282.032 425.843 282.665 426.15 283.28C426.571 284.121 427.789 284.984 426.247 285.252C424.42 285.57 422.62 286.146 421.386 287.613C418.765 290.73 416.981 294.839 418.025 299.016C418.237 299.864 417.512 299.366 416.997 299.155C416.175 298.818 415.187 298.624 414.303 298.544C412.801 298.407 411.597 298.89 410.15 299.016C406.956 299.294 404.345 303.44 404.275 306.585C404.269 306.874 404.697 309.497 404.664 309.53C403.632 310.562 402.871 309.609 401.97 309.085C400.473 308.215 397.741 308.254 396.164 308.78C394.4 309.368 391.392 310.629 390.4 312.308C389.271 314.218 388.826 315.652 389.414 317.835C389.612 318.572 390.057 320.796 389.747 320.099C389.508 319.561 389.072 318.855 388.65 318.433C387.923 317.706 385.183 317.78 384.164 317.78C382.414 317.78 381.17 317.588 379.47 317.974C378.125 318.28 376.421 319.216 375.525 320.335C374.1 322.117 372.775 325.311 372.775 327.613C372.775 328.137 369.043 326.052 368.4 325.78C366.098 324.803 364.075 323.573 361.525 323.335C359.761 323.171 357.436 323.845 356.525 325.53C355.824 326.828 355.298 328.357 354.525 329.585C353.581 331.085 353.303 329.022 352.72 328.03C352.08 326.942 349.239 326.499 348.178 326.294C346.043 325.88 344.233 325.133 342.067 325.891C340.539 326.426 339.071 326.684 337.831 327.835C337.021 328.587 336.47 329.37 336.081 330.419C336.002 330.632 335.668 332.615 335.47 331.919C334.707 329.25 333.576 328.362 331.039 327.294C328.088 326.051 324.735 324.922 321.525 324.794C319.757 324.723 318.775 325.096 317.303 326.016C316.385 326.59 315.929 327.589 315.025 328.141C314.861 328.241 313.811 328.935 313.775 328.835C313.382 327.755 313.251 326.541 312.914 325.433C312.482 324.014 311.409 323.337 310.22 322.53C308.294 321.223 306.008 320.323 303.636 320.28C302.506 320.259 301.449 320.53 300.386 320.53C299.234 320.53 298.267 321.229 297.261 321.669C296.972 321.795 295.044 323.004 294.831 322.919C294.395 322.745 294.396 320.044 294.331 319.585C294.18 318.53 293.707 317.859 293.22 316.919C292.526 315.581 291.701 314.898 290.636 313.891C290.083 313.367 289.353 313.248 288.775 312.78C288.304 312.399 287.122 312.361 286.525 312.224C285.553 312.002 284.153 311.821 283.15 312.044C282.206 312.254 281.173 312.54 280.4 313.141C280.004 313.449 279.477 313.632 279.053 313.905C278.061 314.543 278.212 313.283 278.025 312.308C277.56 309.877 276.766 308.404 275.525 306.335C274.247 304.205 272.119 303.648 269.872 303.141C267.7 302.65 265.641 302.28 263.414 302.28C262.933 302.28 262.12 302.688 262.414 302.016C262.848 301.023 263.025 300.071 263.025 298.988C263.025 294.59 263.237 289.842 259.414 286.974C257.998 285.912 257.038 286.044 255.525 286.724C254.359 287.249 253.98 286.84 254.15 285.752C254.904 280.93 255.982 275.019 252.97 270.78C252.053 269.49 251.044 269.019 249.581 268.585C249.51 268.565 248.575 268.511 248.886 268.335C249.545 267.965 249.928 267.674 250.331 266.974C252.741 262.778 253.884 255.889 250.136 252.141C249.561 251.566 248.911 250.618 248.15 250.28C248.003 250.214 247.248 249.937 247.456 249.752C249.511 247.925 250.048 245.655 250.331 242.974C250.608 240.342 251.107 237.748 250.525 235.113C250.05 232.963 248.771 229.433 246.65 228.419C246.481 228.338 245.153 227.855 245.581 227.641C246.659 227.102 247.405 226.511 248.136 225.516C250.211 222.694 251.457 219.053 252.372 215.697C252.954 213.562 251.628 210.883 250.15 209.405C249.828 209.082 249.518 208.722 249.164 208.433C249.109 208.387 248.857 208.294 248.928 208.266C249.587 208.002 250.215 207.51 250.775 207.085C253.934 204.695 255.775 201.327 255.775 197.419C255.775 196.39 255 195.605 254.789 194.655C254.749 194.476 254.446 193.856 254.664 193.794C255.029 193.69 255.353 193.435 255.525 193.78" stroke="#6B553B" stroke-width="3" stroke-linecap="round"/>
<path d="M273.525 201.031C272.536 202.316 272.093 204.495 271.636 206.072C271.15 207.751 270.308 209.235 269.775 210.892C268.686 214.281 268.204 217.935 266.914 221.253C265.621 224.578 265.225 228.22 264.831 231.725C264.674 233.122 264.303 234.644 264.303 236.044C264.303 237.97 264.637 239.952 264.761 241.878C264.86 243.409 265 244.941 265.025 246.475C265.051 248.065 265.636 249.578 265.761 251.142C265.988 253.97 267.263 256.742 267.831 259.531C268.77 264.14 271.029 268.206 272.775 272.475C273.525 274.308 274.525 276.078 275.525 277.725C276.581 279.465 277.433 281.233 278.414 283.017C279.397 284.803 281.211 286.052 282.581 287.475C283.892 288.837 285.204 290.226 286.414 291.656C291.499 297.666 298.24 302.638 305.275 306.156C308.907 307.971 312.838 309.074 316.775 310.086C318.73 310.589 320.691 310.98 322.65 311.406C324.537 311.816 326.333 312.477 328.275 312.531C332.277 312.642 336.252 313.531 340.275 313.531C344.293 313.531 348.536 313.862 352.525 312.975C354.478 312.541 356.551 312.652 358.525 312.225C360.927 311.706 363.105 310.939 365.414 310.169C369.808 308.705 373.782 306.559 378.011 304.656C381.641 303.022 385.203 300.853 388.025 298.031C391.3 294.755 395.5 292.17 397.9 288.169C399.941 284.768 401.506 281.069 403.275 277.531C404.219 275.644 405.688 273.841 406.4 271.864C407.564 268.63 408.871 265.385 410.47 262.336C413.453 256.647 415.525 249.997 415.525 243.531C415.525 237.933 416.206 232.425 414.664 226.919C413.408 222.435 413.574 217.193 411.025 213.086C409.589 210.772 408.033 208.064 405.775 206.433C404.432 205.463 403.343 204.185 402.22 202.975C401.092 201.761 400.567 199.993 399.622 198.628C398.107 196.439 397.043 194.036 395.525 191.836C393.086 188.3 390.54 184.945 387.22 182.169C384.694 180.058 382.029 178.185 379.22 176.475C376.806 175.006 374.11 174.034 371.747 172.531C369.129 170.864 366.082 169.556 363.22 168.336C360.165 167.034 357.191 166.296 354.025 165.406C350.622 164.448 346.742 164.281 343.22 164.281C340.068 164.281 336.903 164.14 333.775 164.531C326.678 165.418 319.637 166.429 312.761 168.419C306.943 170.104 301.281 172.435 296.581 176.281C292.936 179.263 290.284 183.272 286.97 186.586C285.437 188.119 283.659 189.935 282.386 191.669C281.391 193.027 280.346 194.775 278.97 195.781C276.359 197.688 275.445 200.906 273.775 203.531" stroke="#6B553B" stroke-width="3" stroke-linecap="round"/>
<path d="M293.525 180.78C291.302 178.24 298.785 185.06 301.025 187.586C303.212 190.051 305.367 192.488 307.47 195.03C308.912 196.774 310.295 198.687 311.831 200.336C313.18 201.786 316.661 206.552 315.775 204.78" stroke="#6B553B" stroke-width="3" stroke-linecap="round"/>
<path d="M309.775 171.031C310.048 170.758 311.337 175.242 311.414 175.558C311.952 177.782 312.511 180.066 313.275 182.225C314.346 185.249 315.273 188.282 316.525 191.225C317.361 193.189 318.516 195.011 319.47 196.919C319.877 197.734 320.253 198.548 320.775 199.294C321.1 199.758 321.776 201.537 321.525 200.031" stroke="#6B553B" stroke-width="3" stroke-linecap="round"/>
<path d="M358.275 275.78C359.321 278.08 361.167 280.067 362.4 282.294C363.54 284.353 364.712 286.432 365.775 288.53C367.279 291.499 367.812 295.008 369.525 297.864C370.491 299.474 370.835 301.244 371.331 303.03C371.463 303.508 372.421 306.635 372.775 306.28" stroke="#6B553B" stroke-width="3" stroke-linecap="round"/>
<path d="M365.775 272.03C367.644 272.831 368.959 275.438 370.081 277.03C371.371 278.862 372.638 280.757 374.164 282.405C376.322 284.736 378.529 287.034 380.775 289.28C382.541 291.046 384.565 292.056 386.511 293.516C387.213 294.042 389.294 296.252 389.775 295.53" stroke="#6B553B" stroke-width="3" stroke-linecap="round"/>
<path d="M395.275 193.53C394.921 195.477 392.772 197.688 391.65 199.266C390.142 201.389 388.543 203.574 386.789 205.502C383.99 208.581 380.978 211.581 377.9 214.391C375.923 216.197 373.845 218.705 371.525 220.03C370.764 220.465 369.676 221.194 369.025 221.78C368.746 222.031 367.109 223.196 368.025 222.28" stroke="#6B553B" stroke-width="3" stroke-linecap="round"/>
<path d="M369.275 228.28C369.977 228.21 370.679 227.782 371.331 227.53C372.329 227.145 373.394 227.272 374.414 226.905C376.604 226.117 378.734 224.697 381.025 224.28C383.103 223.902 384.961 222.714 387.025 222.225C389.38 221.667 391.386 220.554 393.664 219.78C395.529 219.147 397.457 218.791 399.386 218.405C401.299 218.023 403.303 217.03 405.261 217.03C406.44 217.03 407.587 217.28 408.72 217.28C409.152 217.28 410.931 217.686 410.775 217.53" stroke="#6B553B" stroke-width="3" stroke-linecap="round"/>
<path d="M274.025 273.03C276.671 273.03 278.703 272.828 281.22 272.086C283.656 271.368 286.138 269.974 288.414 268.836C290.295 267.896 292.137 266.95 294.025 266.03C295.121 265.496 296.298 265.259 297.386 264.725C299.587 263.645 301.612 262.167 303.775 261.086C304.535 260.706 306.242 260.38 306.525 259.53" stroke="#6B553B" stroke-width="3" stroke-linecap="round"/>
<path d="M285.775 291.03C289.051 285.192 294.613 280.943 299.275 276.28C300.997 274.559 302.607 272.772 304.636 271.419C305.366 270.933 307.805 270.217 306.775 269.53" stroke="#6B553B" stroke-width="3" stroke-linecap="round"/>
<path d="M327.025 278.78C325.274 285.981 324.071 293.085 321.525 300.086C320.503 302.897 319.656 305.761 318.428 308.489C318.165 309.074 316.861 311.486 318.025 310.03" stroke="#6B553B" stroke-width="3" stroke-linecap="round"/>
<path d="M334.525 280.03C335.451 280.262 334.758 290.512 334.789 291.627C334.906 295.774 335.124 300.07 335.775 304.169C336.222 306.983 337.278 309.804 338.15 312.516C338.297 312.974 339.525 316.466 339.525 315.03" stroke="#6B553B" stroke-width="3" stroke-linecap="round"/>
<path d="M377.775 251.28C386.765 251.28 395.502 248.857 404.164 246.641C406.637 246.009 409.019 245.143 411.525 244.586C412.147 244.448 414.57 244.598 414.025 243.78" stroke="#6B553B" stroke-width="3" stroke-linecap="round"/>
<path d="M384.025 259.78C385.59 259.78 387.128 260.216 388.678 260.405C390.69 260.651 392.703 260.478 394.65 261.169C396.629 261.871 398.735 263.077 400.775 263.53C402.479 263.909 404.027 264.836 405.775 265.03C406.774 265.141 408.346 266.621 406.275 264.78" stroke="#6B553B" stroke-width="3" stroke-linecap="round"/>
<path d="M346.025 165.53C347.041 170.204 347.525 174.986 347.525 179.766C347.525 183.954 347.963 188.198 347.581 192.364C347.299 195.426 346.525 204.606 346.525 201.53" stroke="#6B553B" stroke-width="3" stroke-linecap="round"/>
<path d="M371.275 171.78C367.012 177.73 362.152 183.133 359.47 190.03C358.679 192.063 357.662 194.133 357.164 196.266C357.004 196.951 356.799 200.417 356.525 200.28" stroke="#6B553B" stroke-width="3" stroke-linecap="round"/>
<path d="M269.275 212.28C270.292 211.433 275.987 217.038 276.775 217.725C279.433 220.041 282.471 221.31 285.678 222.655C288.339 223.771 290.926 224.756 293.664 225.669C294.291 225.878 300.275 227.105 300.275 226.78" stroke="#6B553B" stroke-width="3" stroke-linecap="round"/>
<path d="M264.525 235.031C268.448 233.325 273.047 233.846 277.22 233.781C280.425 233.731 283.575 233.473 286.789 233.795C289.235 234.039 291.59 234.714 294.011 235.017C294.782 235.113 295.513 235.408 296.275 235.517C296.734 235.582 297.986 236.241 297.275 235.531" stroke="#6B553B" stroke-width="3" stroke-linecap="round"/>
<path d="M31.2749 144.03C28.7668 145.822 27.2131 150.13 26.4693 153.03C25.2617 157.74 24.1037 162.469 23.7888 167.35C23.5184 171.541 23.0249 175.668 23.0249 179.892C23.0249 183.663 25.1504 187.088 26.8305 190.28C29.0026 194.408 31.8357 198.217 35.0805 201.586C38.8309 205.481 43.5322 207.956 48.6499 209.53C51.6643 210.458 54.4623 212.187 57.5249 212.975C59.8231 213.566 62.1367 214.78 64.5388 214.78C70.0344 214.78 76.6013 215.74 81.7888 213.405C85.4143 211.774 88.3437 209.412 91.636 207.53C94.5859 205.845 98.1448 204.911 100.65 202.405C102.436 200.619 103.595 198.522 104.775 196.294C105.883 194.202 107.6 192.122 108.275 189.836C109.721 184.936 112.138 180.202 113.15 175.142C114.158 170.099 113.525 164.685 112.469 159.725C111.933 157.205 111.186 154.587 110.386 152.142C109.776 150.277 109.101 148.177 108.025 146.53C105.852 143.208 103.767 139.636 100.4 137.294C95.519 133.899 89.7775 131.782 84.5249 129.155C78.6635 126.225 71.3536 126.112 65.0249 127.086C62.2543 127.512 59.4414 128.019 56.7749 128.78C53.583 129.692 50.7315 131.745 47.5805 132.836C46.078 133.356 44.2892 133.995 42.9138 134.78C42.1088 135.24 41.3873 136.068 40.6499 136.642C40.0252 137.128 39.1546 137.377 38.5805 137.836C36.3378 139.63 32.7663 141.306 31.7749 144.28" stroke="#6B553B" stroke-width="3" stroke-linecap="round"/>
<path d="M32.5249 145.03C35.6268 149.592 42.5712 155.161 48.2193 151.53C50.1163 150.311 50.9432 149.325 51.6638 147.266C52.2685 145.539 52.0249 143.597 52.0249 141.78C52.0249 138.98 50.6951 134.95 48.7749 133.03" stroke="#6B553B" stroke-width="3" stroke-linecap="round"/>
<path d="M25.0249 171.78C27.8033 171.711 30.4949 171.28 33.2749 171.28C34.6313 171.28 37.1832 171.229 38.3999 171.905C41.1372 173.426 43.7028 175.173 44.2193 178.53C44.9733 183.431 41.5191 186.666 38.0527 189.502C36.5018 190.771 34.754 191.616 32.9138 192.405C32.2681 192.682 31.6581 193.075 31.0249 193.391C30.8855 193.461 29.6998 193.78 30.0249 193.78" stroke="#6B553B" stroke-width="3" stroke-linecap="round"/>
<path d="M82.5249 130.78C81.8953 131.813 81.1732 132.761 80.5249 133.78C79.8008 134.918 79.6064 136.38 79.2749 137.669C78.7091 139.869 78.5249 141.745 78.5249 144.016C78.5249 147.133 80.9518 150.446 84.0805 151.086C86.2025 151.52 88.1202 152.067 90.3305 152.03C92.7085 151.991 95.0443 151.195 97.261 150.419C100.928 149.136 103.22 145.612 105.275 142.53" stroke="#6B553B" stroke-width="3" stroke-linecap="round"/>
<path d="M53.2749 211.53C54.5863 208.907 55.1512 206.105 56.8027 203.627C58.207 201.521 59.2067 199.899 61.2749 198.405C64.2042 196.29 66.669 195.899 70.2193 196.725C72.0056 197.14 73.5974 198.257 75.011 199.405C76.6614 200.746 77.2055 203.371 78.2749 205.127C79.6702 207.42 81.3012 215.412 80.7749 212.78" stroke="#6B553B" stroke-width="3" stroke-linecap="round"/>
<path d="M112.525 173.03C108.928 172.867 105.004 172.051 101.414 172.905C99.7675 173.297 97.8627 173.326 96.5249 174.53C93.9929 176.809 91.1122 178.997 91.0249 182.836C91.003 183.802 90.8053 184.582 90.9694 185.53C91.2044 186.888 91.7991 187.829 92.3999 189.03C93.3529 190.936 94.4836 191.989 95.9694 193.475C97.4218 194.927 99.3275 196.634 101.275 197.391C101.856 197.617 102.622 197.612 103.15 197.905C104.22 198.5 104.075 198.032 103.775 197.03" stroke="#6B553B" stroke-width="3" stroke-linecap="round"/>
<path d="M11.0249 138.03C12.872 138.669 14.3259 139.505 16.1638 138.28C17.5733 137.34 18.7797 135.123 18.511 133.377C18.3726 132.477 16.3222 128.863 17.0804 128.53C19.3237 127.545 21.6878 126.096 23.2471 124.183C23.5507 123.81 24.2543 122.609 24.8304 123.085C25.405 123.561 25.9774 124.039 26.5388 124.53C27.7059 125.551 29.713 126.005 31.2193 126.03C33.1941 126.062 34.7723 126.185 36.011 124.405C36.3672 123.893 37.1034 123.283 37.2193 122.669C37.4198 121.606 37.4049 120.152 37.2193 119.085C37.0314 118.005 34.9779 115.752 36.6915 115.752C38.4885 115.752 40.8463 114.416 42.4693 113.724C42.9931 113.501 45.8742 111.685 46.3999 112.21C47.1344 112.945 47.7778 114.506 48.3999 115.405C49.3193 116.733 50.3239 117.677 51.8304 118.28C53.6176 118.995 55.096 118.799 56.886 118.155C59.3673 117.262 59.7749 115.45 59.7749 112.974C59.7749 111.887 59.9346 110.077 59.4693 109.03C58.8945 107.737 59.6663 107.867 60.7749 107.766C63.0218 107.562 65.4041 106.383 67.5804 105.78C68.3923 105.555 69.3723 105.502 70.136 105.155C70.6515 104.921 70.2749 106.177 70.2749 106.53C70.2749 112.682 76.4246 119.192 82.5804 114.724C84.3274 113.456 85.5221 111.644 86.9693 110.085C87.765 109.229 89.0951 110.236 90.0388 110.669C92.3236 111.716 94.3741 113.117 96.8304 113.78C97.535 113.97 98.4643 113.912 99.1082 114.28C99.274 114.375 98.822 114.747 98.7749 114.808C98.4889 115.175 98.3245 115.603 98.1499 116.03C97.5973 117.381 97.3676 118.376 97.9138 119.78C98.2096 120.541 98.8126 122.211 99.5249 122.585C100.164 122.922 100.665 123.47 101.33 123.766C102.885 124.457 104.833 124.372 106.483 124.155C108.581 123.879 110.464 123.208 112.469 122.585C113.704 122.202 113.996 122.111 114.219 123.474C114.611 125.863 116.052 127.796 118.344 128.641C118.553 128.718 116.625 130.36 116.219 130.891C115.408 131.952 114.775 133.67 114.775 135.016C114.775 138.114 117.194 139.989 119.969 141.03C121.684 141.673 123.463 141.53 125.261 141.53C127.155 141.53 126.384 143.635 127.025 145.03C127.561 146.196 128.84 147.046 127.33 147.585C126.37 147.928 124.943 148.78 124.275 149.544C122.735 151.303 121.111 155.274 122.914 157.405C124.367 159.122 126.947 160.985 129.275 161.03C130.721 161.058 132.025 160.439 132.025 162.169C132.025 163.555 132.14 165.011 132.775 166.28C133.444 167.618 133.486 167.46 132.025 167.835C130.449 168.241 129.619 169.32 128.275 170.141C126.201 171.408 125.381 174.526 126.025 176.78C126.703 179.152 129.637 180.28 131.83 180.28C133.383 180.28 132.544 181.878 132.136 183.044C131.782 184.056 131.977 187.104 131.219 187.724C130.751 188.108 128.668 187.929 128.025 188.085C126.979 188.34 125.737 188.46 124.9 189.169C123.954 189.969 122.68 190.773 122.33 192.03C121.859 193.728 121.847 195.168 122.011 196.891C122.112 197.954 122.665 198.839 123.136 199.78C123.549 200.606 122.721 200.781 122.275 201.28C121.601 202.033 120.813 203.354 120.414 204.266C120.249 204.642 119.831 206.283 119.775 206.28C118.819 206.227 117.962 205.567 116.969 205.53C115.89 205.49 114.849 205.28 113.775 205.28C112.476 205.28 111.923 205.271 110.969 206.224C109.824 207.369 109.184 209.432 109.039 211.03C108.858 213.022 109.49 215.187 109.233 217.113C109.191 217.428 108.167 218.033 107.914 218.28C107.19 218.983 106.337 219.626 105.525 220.224C104.956 220.643 104.344 221.018 103.761 221.419C102.998 221.943 102.657 222.816 102.011 221.766C101.296 220.604 100.504 219.902 99.2193 219.474C97.5916 218.932 95.9508 218.179 94.261 218.919C91.5639 220.099 89.8269 223.662 89.5388 226.544C89.4419 227.513 89.9407 228.711 88.9971 229.183C87.7101 229.826 86.8788 230.026 85.5249 230.335C84.17 230.645 82.8645 230.676 81.5249 231.155C81.049 231.325 79.5972 228.125 78.9693 227.474C78.1055 226.579 76.9418 226.105 76.0249 225.28C75.0332 224.387 73.4815 224.528 72.2888 224.155C71.0283 223.761 68.7308 224.653 67.8999 225.669C67.0649 226.689 66.7749 227.726 66.7749 229.016C66.7749 230.074 66.4214 229.967 65.7193 229.724C63.9759 229.121 61.8713 229.034 60.0804 229.585C59.8555 229.655 58.2143 230.398 58.0804 230.224C57.3554 229.282 57.9521 227.414 57.261 226.377C55.491 223.722 53.8699 222.135 50.6638 221.28C48.2634 220.64 45.6322 221.096 43.5249 222.335C42.0397 223.209 42.8514 226.53 41.0249 226.53C39.2761 226.53 38.6798 225.591 37.136 225.03C36.0146 224.622 34.9435 224.145 33.7749 223.835C33.0047 223.632 33.7749 219.679 33.7749 218.641C33.7749 216.351 32.8278 213.405 30.4138 212.474C28.8181 211.859 26.9602 211.78 25.261 211.78C24.3089 211.78 22.1325 211.712 21.3304 212.335C21.1154 212.503 20.4441 209.888 20.2749 209.53C19.7738 208.469 19.1377 207.571 18.3999 206.669C17.8656 206.016 17.3782 205.383 16.7749 204.78C15.9062 203.911 17.7111 202.925 18.0249 201.905C18.4213 200.617 18.7622 199.509 19.011 198.141C19.2708 196.712 18.3923 194.897 17.4138 193.919C16.1757 192.681 14.9595 191.345 13.1499 191.03C12.0863 190.845 11.7381 191.226 10.7749 191.28C10.078 191.319 9.5074 191.266 8.83043 191.474C7.74648 191.808 7.74657 187.914 7.38599 187.141C6.99043 186.293 5.8864 184.124 6.83043 183.53C8.17863 182.681 9.19451 181.73 10.261 180.53C12.7385 177.743 12.7699 173.925 10.5249 171.085C9.55513 169.859 7.93352 169.393 6.39988 169.294C5.99821 169.268 5.59374 169.28 5.19154 169.28C5.00636 169.28 4.63599 169.465 4.63599 169.28C4.63599 169.258 5.0195 168.779 5.02488 168.419C5.05656 166.296 5.47804 164.193 5.52488 162.085C5.56351 160.347 6.15969 160.67 7.52488 160.28C10.1687 159.525 11.9958 156.695 12.261 154.044C12.6329 150.325 9.51156 149.284 6.77488 147.835C6.68761 147.789 8.57999 144.05 8.78876 143.502C9.30038 142.159 9.8313 140.85 10.1638 139.447C10.3401 138.702 10.6087 138.251 10.0249 139.03" stroke="#6B553B" stroke-width="3" stroke-linecap="round"/>
<path d="M317.025 2.27998C318.438 2.27998 319.798 2.02998 321.22 2.02998C321.973 2.02998 323.337 1.77981 324.025 2.08554C324.686 2.37919 325.986 2.50176 326.72 2.52998C327.713 2.5682 328.637 2.77998 329.65 2.77998C332.718 2.77998 335.834 3.86661 338.775 4.02998C343.553 4.29539 344.048 11.387 344.9 14.7939C345.307 16.4203 345.121 18.3662 345.289 20.0439C345.38 20.9494 345.532 21.8912 345.72 22.78C345.926 23.7613 345.654 24.7824 345.9 25.7661C346.336 27.5105 345.767 29.3947 346.15 31.155C346.601 33.2296 346.275 35.6578 346.275 37.78C346.275 39.4978 346.736 41.1585 346.775 42.8355C346.818 44.6853 346.775 46.5408 346.775 48.3911C346.775 52.2139 347.275 56.0366 347.275 59.8911C347.275 71.5701 348.275 83.2854 348.275 94.9744C348.275 101.502 348.775 107.967 348.775 114.474C348.775 118.406 349.275 122.367 349.275 126.266C349.275 128.695 349.525 131.09 349.525 133.544C349.525 134.836 349.525 136.127 349.525 137.419C349.525 137.973 349.741 140.479 349.275 139.78" stroke="#6B553B" stroke-width="3" stroke-linecap="round"/>
<mask id="mask0_3425_30179" style="mask-type:alpha" maskUnits="userSpaceOnUse" x="40" y="85" width="296" height="242">
<path d="M79.9395 105.806L76.8825 115.195L87.8002 116.505L119.025 124.802L271 148.385L311.832 152.315L317.727 149.695L335.851 114.976L86.9268 85.2803L84.3066 90.0841L79.9395 105.806Z" fill="#D9D9D9"/>
<path d="M64.218 227.647L46.5313 224.59L40.199 251.448L115.968 264.549L235.845 326.78L272.091 319.356L275.367 306.91L266.414 302.761L247.199 290.752L232.569 279.616L117.06 239.439L64.218 227.647Z" fill="#D9D9D9"/>
</mask>
<g mask="url(#mask0_3425_30179)">
<path d="M41.8086 223.893C42.3159 224.233 43.0028 224.312 43.5876 224.454" stroke="#6B553B" stroke-width="3" stroke-linecap="round"/>
<path d="M52.8276 229.65C54.3225 229.72 55.5571 230.504 56.8448 231.187" stroke="#6B553B" stroke-width="3" stroke-linecap="round"/>
<path d="M64.0303 234.742C65.4135 235.155 66.7258 235.703 68.0475 236.279" stroke="#6B553B" stroke-width="3" stroke-linecap="round"/>
<path d="M75.1865 238.963C76.6057 239.484 78.1406 239.753 79.6168 240.04" stroke="#6B553B" stroke-width="3" stroke-linecap="round"/>
<path d="M85.4246 242.356C87.2209 243.069 89.2426 243.062 90.3601 244.719" stroke="#6B553B" stroke-width="3" stroke-linecap="round"/>
<path d="M101.057 248.526C102.389 249.107 103.683 249.68 105.074 250.063" stroke="#6B553B" stroke-width="3" stroke-linecap="round"/>
<path d="M116.231 254.283C118.638 254.475 120.726 255.651 122.911 256.554" stroke="#6B553B" stroke-width="3" stroke-linecap="round"/>
<path d="M134.503 260.751C136.888 261.132 139.3 262.291 141.619 262.998" stroke="#6B553B" stroke-width="3" stroke-linecap="round"/>
<path d="M150.985 266.438C153.137 266.719 155.134 267.163 157.183 267.859" stroke="#6B553B" stroke-width="3" stroke-linecap="round"/>
<path d="M164.368 271.415C166.107 271.447 167.595 271.98 169.234 272.469" stroke="#6B553B" stroke-width="3" stroke-linecap="round"/>
<path d="M176.374 275.152C177.998 275.657 179.574 275.907 181.24 276.207" stroke="#6B553B" stroke-width="3" stroke-linecap="round"/>
<path d="M188.402 279.327C190.511 279.67 192.523 280.446 194.6 280.748" stroke="#6B553B" stroke-width="3" stroke-linecap="round"/>
<path d="M200.867 283.478L204.861 284.578" stroke="#6B553B" stroke-width="3" stroke-linecap="round"/>
<path d="M211.151 287.744C212.623 288.225 214.045 288.648 215.581 288.822" stroke="#6B553B" stroke-width="3" stroke-linecap="round"/>
<path d="M221.848 291.551C223.576 292.395 225.363 292.949 227.197 293.454" stroke="#6B553B" stroke-width="3" stroke-linecap="round"/>
<path d="M233.028 296.207C234.849 296.37 236.624 297.128 238.353 297.674" stroke="#6B553B" stroke-width="3" stroke-linecap="round"/>
<path d="M245.056 300.381C246.85 300.991 248.635 301.608 250.404 302.284" stroke="#6B553B" stroke-width="3" stroke-linecap="round"/>
<path d="M255.317 304.211C256.745 305.092 258.666 305.03 260.207 305.701" stroke="#6B553B" stroke-width="3" stroke-linecap="round"/>
<path d="M266.886 307.972C268.203 308.878 269.822 309.105 271.34 309.485" stroke="#6B553B" stroke-width="3" stroke-linecap="round"/>
<path d="M83.4114 111.825C84.7504 111.819 85.9967 112.046 87.3593 111.903" stroke="#6B553B" stroke-width="3" stroke-linecap="round"/>
<path d="M95.165 113.547C96.2962 113.554 96.9053 114.349 98.1899 114.214" stroke="#6B553B" stroke-width="3" stroke-linecap="round"/>
<path d="M104.919 114.984C106.429 115.903 108.018 115.23 109.456 115.986" stroke="#6B553B" stroke-width="3" stroke-linecap="round"/>
<path d="M115.404 116.348C116.888 116.192 118.354 116.285 119.839 116.375" stroke="#6B553B" stroke-width="3" stroke-linecap="round"/>
<path d="M125.889 117.709C127.659 117.882 129.268 118.041 130.913 118.659" stroke="#6B553B" stroke-width="3" stroke-linecap="round"/>
<path d="M137.552 120.916C139.147 120.806 140.521 121.095 142.038 121.43" stroke="#6B553B" stroke-width="3" stroke-linecap="round"/>
<path d="M149.652 123.586C151.74 123.448 153.323 123.519 155.163 124.485" stroke="#6B553B" stroke-width="3" stroke-linecap="round"/>
<path d="M162.776 126.641C164.536 126.456 166.063 126.731 167.75 127.104" stroke="#6B553B" stroke-width="3" stroke-linecap="round"/>
<path d="M175.363 129.26C177.119 129.173 178.371 129.458 179.9 130.261" stroke="#6B553B" stroke-width="3" stroke-linecap="round"/>
<path d="M186.386 131.058C187.952 131.994 190.168 131.653 191.897 131.957" stroke="#6B553B" stroke-width="3" stroke-linecap="round"/>
<path d="M200.921 133.472C202.903 133.406 204.896 133.673 206.868 133.832" stroke="#6B553B" stroke-width="3" stroke-linecap="round"/>
<path d="M213.354 134.63C214.459 135.654 217.757 134.879 219.353 135.478" stroke="#6B553B" stroke-width="3" stroke-linecap="round"/>
<path d="M224.377 136.428C226.036 136.589 227.689 136.79 229.35 136.891" stroke="#6B553B" stroke-width="3" stroke-linecap="round"/>
<path d="M234.375 137.84C236.006 137.714 237.381 137.798 238.861 138.354" stroke="#6B553B" stroke-width="3" stroke-linecap="round"/>
<path d="M243.885 139.304C244.895 139.432 245.849 139.464 246.859 139.484" stroke="#6B553B" stroke-width="3" stroke-linecap="round"/>
<path d="M254.319 140.179C255.672 140.089 256.591 140.521 257.831 140.795" stroke="#6B553B" stroke-width="3" stroke-linecap="round"/>
<path d="M262.317 141.31C263.838 141.267 265.312 141.58 266.803 141.824" stroke="#6B553B" stroke-width="3" stroke-linecap="round"/>
<path d="M272.853 143.157C274.549 143.285 276.202 143.262 277.826 143.62" stroke="#6B553B" stroke-width="3" stroke-linecap="round"/>
<path d="M284.85 144.853C286.762 145.03 288.551 145.191 290.362 145.751" stroke="#6B553B" stroke-width="3" stroke-linecap="round"/>
<path d="M296.847 146.549C298.341 146.517 299.86 146.855 301.333 147.063" stroke="#6B553B" stroke-width="3" stroke-linecap="round"/>
<path d="M307.383 148.397C309.211 148.206 310.961 148.271 312.793 148.322" stroke="#6B553B" stroke-width="3" stroke-linecap="round"/>
<path d="M320.74 148.966C322.362 149.439 324.106 149.602 325.764 149.916" stroke="#6B553B" stroke-width="3" stroke-linecap="round"/>
<path d="M331.813 151.252C333.601 151.426 335.475 151.853 337.274 151.664" stroke="#6B553B" stroke-width="3" stroke-linecap="round"/>
</g>
<path d="M322.15 208.53L313.775 224.28L308.65 246.53C308.983 248.739 309.725 253.68 310.025 255.78C310.4 258.405 316.65 271.655 323.15 273.53C329.65 275.405 344.275 274.905 353.9 271.28C363.525 267.655 377.15 258.405 381.9 252.78C385.7 248.28 397.817 238.072 403.4 233.53C412.233 224.322 430.55 205.03 433.15 201.53C435.75 198.03 444.817 187.822 449.025 183.155C452.233 178.364 459.3 167.63 461.9 163.03C464.5 158.43 468.817 146.197 470.65 140.655C470.858 133.947 471.2 119.93 470.9 117.53C470.525 114.53 465.15 99.5303 459.025 93.2803C452.9 87.0303 445.025 84.9048 437.775 82.2798C430.525 79.6548 422.275 79.6548 419.9 79.9048C417.525 80.1548 405.15 81.1548 402.15 82.5298C399.15 83.9048 388.65 88.6548 385.025 91.2798C382.125 93.3798 375.567 102.738 372.65 107.155C370.233 112.405 365.25 123.255 364.65 124.655C364.05 126.055 355.4 144.571 351.15 153.655L340.4 176.78L328.275 197.905L322.15 208.53Z" fill="#DAD5D1"/>
<path d="M381.025 113.03C379.661 114.709 378.753 116.783 377.969 118.78C377.183 120.784 376.101 122.524 375.053 124.391C373.563 127.044 372.441 129.844 370.789 132.405C366.643 138.832 364.184 146.435 360.775 153.252C358.451 157.9 356.243 162.582 354.025 167.28C352.013 171.541 349.8 175.711 347.636 179.919C345.056 184.935 342.251 189.847 339.275 194.641C336.7 198.79 334.669 203.32 331.789 207.28C330.526 209.017 328.635 210.964 327.83 212.975C327.6 213.55 327.009 213.984 326.719 214.53C326.491 214.962 326.146 215.261 325.886 215.669C325.5 216.275 325.475 217.228 325.275 216.03" stroke="#6B553B" stroke-width="3" stroke-linecap="round"/>
<path d="M307.775 235.53C308.029 235.498 309.437 230.791 309.539 230.128C309.752 228.742 310.621 226.925 311.33 225.725C311.869 224.814 312.097 223.782 312.664 222.891C313.992 220.804 314.873 218.292 316.428 216.391C318.23 214.189 320.091 212.165 321.65 209.766C325.18 204.335 328.701 198.585 331.525 192.78C333.215 189.306 335.294 185.975 337.08 182.53C338.499 179.795 340.358 177.187 341.525 174.336C342.654 171.575 344.172 168.879 345.4 166.141C346.169 164.426 347.298 162.822 347.83 161.03C348.404 159.102 349.64 156.937 350.636 155.183C352.593 151.736 353.759 147.762 355.886 144.419C357.342 142.131 357.815 139.195 359.4 136.905C361.26 134.218 362.176 130.393 363.525 127.405C364.821 124.534 365.981 121.707 366.9 118.766C368.275 114.364 370.975 110.745 373.164 106.766C375.123 103.203 377.608 100.013 380.08 96.7803C380.673 96.0059 381.582 95.4923 382.164 94.7525C383.032 93.6472 384.081 92.3622 385.219 91.5303C386.971 90.2505 388.979 89.2855 390.775 87.9747C392.316 86.85 394.068 86.1441 395.789 85.3914C397.499 84.6433 399.151 82.7803 401.164 82.7803C402.284 82.7803 403.337 82.3769 404.414 82.0858C405.415 81.8152 406.572 81.7454 407.525 81.4053C409.007 80.8758 410.539 80.9053 412.039 80.5303C413.06 80.275 413.843 80.0303 414.9 80.0303C415.763 80.0303 416.696 80.4141 417.525 80.2247C418.34 80.0383 419.072 80.0303 419.914 80.0303C420.969 80.0303 421.93 79.3174 422.969 79.2803C423.959 79.2449 424.896 79.0303 425.9 79.0303C426.703 79.0303 427.51 79.557 428.33 79.7247C429.639 79.9923 431.304 80.141 432.511 80.6692C432.997 80.8817 433.785 81.4727 434.275 81.5303C435.211 81.6404 436.054 82.1863 437.025 82.2942C438.163 82.4206 439.485 82.7628 440.525 83.2247C441.505 83.6602 442.511 84.0242 443.525 84.4747C444.613 84.9585 446.302 84.6689 447.219 85.5858C447.6 85.9661 448.67 86.1253 449.164 86.2664C449.967 86.4958 450.612 86.7826 451.33 87.2803C457.646 91.6525 463.387 96.9913 466.65 104.169C467.439 105.905 469.025 108.442 469.025 110.391C469.025 111.856 469.273 113.12 469.65 114.544C470.275 116.908 470.431 119.335 471.164 121.669C471.781 123.636 470.775 125.608 470.775 127.53C470.775 131.474 470.525 135.383 470.525 139.336C470.525 142.018 469.269 144.352 468.428 146.877C467.88 148.52 467.149 150.103 466.469 151.725C465.878 153.134 465.63 154.594 465.136 156.03C464.13 158.956 462.559 161.702 461.136 164.419C460.253 166.105 459.079 167.619 458.08 169.225C457.095 170.809 456.287 172.376 455.039 173.78C452.63 176.49 451.125 179.93 448.525 182.53C447.371 183.684 446.563 185.22 445.58 186.53C444.546 187.909 443.481 189.214 442.4 190.544C437.014 197.172 431.258 203.427 425.553 209.766C418.443 217.666 411.018 225.429 403.525 233.03C396.739 239.915 389.197 245.967 382.33 252.725C381.474 253.568 380.338 254.083 379.525 254.933C378.491 256.014 377.512 257.153 376.497 258.253C375.082 259.785 373.401 261.131 371.678 262.28C368.967 264.087 365.86 265.215 363.136 267.03C361.781 267.934 360.102 268.067 358.775 268.975C357.417 269.904 355.737 270.299 354.275 271.03C351.993 272.171 349.067 272.978 346.539 273.294C345.796 273.387 344.378 273.875 343.65 274.155C342.448 274.618 340.575 274.78 339.275 274.78C337.961 274.78 336.651 275.03 335.303 275.03C333.59 275.03 331.963 274.563 330.275 274.53C327.326 274.472 323.786 273.433 321.219 271.975C319.916 271.234 318.506 271.012 317.4 269.905C316.367 268.872 315.309 267.844 314.469 266.669C311.069 261.909 310.828 255.476 308.969 250.086C308.269 248.055 307.84 245.991 307.219 243.975C306.914 242.983 306.944 241.768 307.039 240.725C307.251 238.394 307.644 236.132 307.775 233.78" stroke="#6B553B" stroke-width="3" stroke-linecap="round"/>
<path d="M448.275 169.03C445.991 172.076 443.166 174.675 440.525 177.391C438.703 179.266 437.2 181.52 435.525 183.53C433.815 185.582 431.884 187.422 429.997 189.308C422.955 196.351 416.868 204.255 410.442 211.85C405.643 217.52 401.449 223.725 396.511 229.28C393.671 232.476 391.034 236.121 387.525 238.655C385.976 239.774 384.619 241.436 383.261 242.794C381.755 244.3 380.252 245.745 378.719 247.225C375.914 249.933 372.801 252.595 369.58 254.78C367.747 256.024 366.036 257.272 364.219 258.53C363.231 259.214 362.137 259.636 361.15 260.294C360.189 260.935 359.698 261.639 358.525 262.03" stroke="#6B553B" stroke-width="3" stroke-linecap="round"/>
<path d="M322.525 219.28C321.161 220.493 319.537 221.191 318.414 222.794C316.789 225.116 315.733 227.474 314.775 230.141C312.963 235.19 313.146 241.517 314.164 246.753C315.238 252.275 318.105 257.536 322.025 261.53C323.821 263.36 325.86 264.446 328.275 265.28C330.403 266.015 332.995 266.986 335.275 267.03C337.38 267.071 339.435 267.28 341.539 267.28C343.335 267.28 345.67 267.668 347.4 267.141C350.473 266.206 353.422 264.346 356.275 262.919C361.812 260.151 363.987 252.553 365.331 247.03C366.951 240.368 366.39 233.517 363.9 227.155C362.772 224.273 360.91 221.415 358.72 219.225C357.512 218.017 356.175 216.684 354.72 215.78C353.136 214.797 351.197 214.344 349.525 213.53C348.245 212.908 346.338 212.03 344.9 212.03C343.548 212.03 342.117 212.166 340.775 212.016C338.095 211.719 335.604 211.916 333.025 212.919C330.97 213.718 328.925 214.419 327.025 215.475C325.529 216.306 323.582 217.861 323.025 219.53" stroke="#6B553B" stroke-width="3" stroke-linecap="round"/>
<path fill-rule="evenodd" clip-rule="evenodd" d="M385.775 104.031L383.525 111.031C382.275 113.947 379.725 120.006 379.525 120.906C379.325 121.806 378.025 129.031 377.4 132.531C377.692 136.614 378.3 144.931 378.4 145.531C378.454 145.856 379.19 147.78 380.027 149.967C381.12 152.823 382.384 156.127 382.525 156.906C382.725 158.006 385.858 162.114 387.4 164.031C390.858 166.531 398.2 171.631 399.9 172.031C400.717 172.223 403.083 172.895 405.766 173.656C410.066 174.877 415.178 176.329 416.025 176.406C417.125 176.506 422.067 176.114 424.4 175.906C428.4 174.864 436.775 172.606 438.275 171.906C440.15 171.031 450.65 166.031 452.025 163.781C453.125 161.981 457.317 155.531 459.275 152.531C460.483 150.114 462.9 144.381 462.9 140.781C462.9 137.181 463.067 133.114 463.15 131.531C462.692 127.031 461.525 117.406 460.525 114.906C459.525 112.406 454.858 105.781 452.65 102.781C449.942 100.781 444.25 96.6555 443.15 96.1555C441.775 95.5305 434.4 93.2805 432.775 93.0305C432.473 92.9841 431.947 92.8902 431.281 92.7712C428.36 92.2501 422.746 91.2484 421.525 91.6555C420.812 91.8933 418.346 91.9896 415.714 92.0925C412.811 92.206 409.705 92.3275 408.525 92.6553C407.624 92.9056 405.68 93.577 403.633 94.284C400.569 95.3422 397.275 96.4802 396.9 96.4053C396.4 96.3053 392.775 98.4469 391.025 99.5303L385.775 104.031ZM397.588 111.218C398.546 111.01 400.675 110.606 401.525 110.656C402.588 110.718 408.588 112.968 409.338 113.593C410.088 114.218 411.775 116.968 412.15 117.593C412.45 118.093 413.108 119.926 413.4 120.78L413.713 122.53C414.796 122.176 417.038 121.468 417.338 121.468C417.638 121.468 421.046 121.718 422.713 121.843L424.213 121.968C424.379 120.28 424.688 116.393 424.588 114.343C424.463 111.78 423.963 109.655 423.713 109.343C423.513 109.093 421.546 105.739 420.588 104.093L419.15 101.843C417.233 102.03 413.175 102.493 412.275 102.843C411.15 103.28 403.4 106.155 402.963 106.218C402.525 106.28 397.838 108.53 397.65 108.843C397.5 109.093 397.546 110.53 397.588 111.218ZM388.713 131.218C389.504 130.51 391.313 129.031 392.213 128.781C392.896 128.591 395.52 128.447 397.556 128.335C398.871 128.263 399.941 128.205 400.088 128.156C400.388 128.056 403.546 128.947 405.088 129.406L406.65 131.093C406.525 132.239 406.313 134.631 406.463 135.031C406.65 135.531 409.025 140.406 409.275 140.718C409.475 140.968 407.567 141.906 406.588 142.343C405.213 143.072 402.325 144.781 401.775 145.781C401.512 146.258 400.93 147.266 400.304 148.349L400.304 148.349L400.304 148.349L400.304 148.349L400.303 148.35C399.291 150.101 398.165 152.049 398.088 152.281C397.988 152.581 397.588 154.489 397.4 155.406C396.671 155.197 395.188 154.706 395.088 154.406C395.026 154.22 394.095 152.724 393.093 151.113C392.067 149.464 390.966 147.694 390.65 147.093C390.025 145.906 388.213 140.218 388.213 139.843C388.213 139.543 387.963 134.926 387.838 132.656L388.713 131.218ZM433.275 124.968L430.713 126.718L431.4 134.718L433.4 136.28C434.338 137.051 436.775 138.643 439.025 138.843C441.621 139.074 446.826 138.133 447.907 137.937C447.997 137.921 448.059 137.91 448.088 137.905C448.388 137.855 450.671 137.218 451.775 136.905L452.275 133.53C452.15 131.905 451.813 128.18 451.463 126.28C451.113 124.38 448.65 118.322 447.463 115.53L444.463 110.905C444.296 111.843 443.9 113.905 443.65 114.655C443.338 115.593 440.9 119.53 440.088 120.593C439.438 121.443 435.275 123.864 433.275 124.968ZM415.713 146.405C415.546 148.134 415.25 152.055 415.4 153.905C415.588 156.218 416.65 160.218 416.838 160.468C416.988 160.668 418.025 162.843 418.525 163.905L423.588 163.843C427.442 162.384 435.325 159.33 436.025 158.78C436.725 158.23 437.983 157.051 438.525 156.53C437.483 156.197 435.3 155.518 434.9 155.468C434.4 155.405 431.025 153.405 430.15 150.718C429.45 148.568 428.775 145.489 428.525 144.218L428.338 142.843C427.379 143.551 425.263 145.068 424.463 145.468C423.663 145.868 419.296 146.134 417.213 146.218L415.713 146.405Z" fill="#DAD5D1"/>
<path d="M382.443 111.329C381.918 113.299 380.925 115.211 380.369 117.215C379.896 118.915 379.767 120.712 379.392 122.436C378.56 126.265 377.649 130.286 377.562 134.22C377.527 135.761 377.562 137.247 377.562 138.79C377.562 140.536 378.02 142.217 378.294 143.929C378.8 147.091 379.923 149.924 380.843 152.947C381.631 155.536 382.589 158.032 383.908 160.392C384.515 161.479 385.766 162.606 386.783 163.321C387.945 164.139 388.439 165.324 389.766 166.006C391.965 167.137 393.896 168.695 396.113 169.803C398.068 170.781 400.253 171.57 402.079 172.732C404.184 174.072 407.16 174.475 409.592 174.984C412.246 175.539 415.142 176.014 417.851 176.014C420.347 176.014 422.991 176.665 425.458 175.96C427.968 175.243 430.459 174.288 432.971 173.627C435.552 172.948 437.906 171.417 440.551 170.888C443.263 170.346 445.481 168.536 447.752 167.091C449.896 165.727 451.664 163.648 453.176 161.613C455.364 158.668 457.407 155.899 459.035 152.581C462.273 145.98 463.238 138.537 463.238 131.291C463.238 127.826 462.526 124.779 461.665 121.459C460.725 117.832 459.97 114.103 457.977 110.841C454.811 105.661 451.769 101.201 446.152 98.3925C442.207 96.4202 437.836 95.9502 433.812 94.1208C428.894 91.8855 423.649 91.8019 418.339 91.8019C416.972 91.8019 415.595 91.7532 414.23 91.8019C412.621 91.8594 411.087 92.7055 409.484 92.7783C406.792 92.9007 404.508 94.0933 402.025 94.9209C400.391 95.4655 398.963 96.5521 397.211 96.9415C395.808 97.2533 394.918 98.4262 393.631 99.0163C392.346 99.6051 390.893 99.8396 389.685 100.589C389.083 100.963 388.59 101.519 387.936 101.81C386.45 102.47 385.232 104.941 384.695 106.393C383.946 108.416 383.137 110.469 382.443 112.55" stroke="#6B553B" stroke-width="3" stroke-linecap="round"/>
<path d="M413.565 123.046C411.971 123.843 410.338 124.654 409.443 126.246C408.504 127.916 407.605 129.807 407.314 131.711C407.021 133.63 406.58 135.298 407.368 137.176C407.914 138.477 408.351 139.703 409.199 140.865C410.984 143.311 413.842 145.637 416.915 146.14C418.69 146.43 420.205 146.276 421.919 145.747C422.59 145.539 423.345 145.432 424.034 145.286C424.828 145.117 425.538 144.575 426.136 144.031C427.599 142.701 428.89 141.428 429.845 139.665C430.641 138.194 431.138 136.631 431.438 135C431.764 133.23 431.481 131.028 431.072 129.277C430.771 127.987 429.987 126.736 429.364 125.602C428.6 124.213 426.945 123.251 425.533 122.687C424.011 122.078 422.608 121.703 420.949 121.703C420.124 121.703 419.397 121.792 418.576 121.71C418.141 121.667 417.522 121.615 417.105 121.764C416.636 121.932 416.109 121.903 415.654 122.131C415.384 122.266 414.922 122.285 414.786 122.558" stroke="#6B553B" stroke-width="3" stroke-linecap="round"/>
<path d="M396.112 112.306C393.947 113.006 392.078 116.01 390.932 117.974C389.209 120.929 388.47 125.199 387.922 128.552C387.503 131.114 387.968 134.036 388.112 136.607C388.307 140.101 388.306 142.764 390.01 145.869C391.31 148.236 392.38 150.739 393.794 153.042C395.403 155.664 397.615 157.76 400.004 159.646C402.242 161.413 405.095 162.151 407.693 163.199C410.8 164.453 413.636 165.014 416.996 164.732C426.708 163.915 435.443 160.888 442.612 154.181C449.783 147.473 453.677 136.966 451.874 127.182C450.342 118.862 445.604 108.756 437.256 105.417C435.311 104.639 433.505 103.865 431.398 103.573C429.687 103.335 428.053 102.595 426.326 102.542C422.633 102.428 418.779 101.022 415.138 101.932C412.88 102.496 410.48 102.917 408.331 103.885C407.447 104.282 406.325 104.775 405.388 104.983C404.495 105.181 403.86 106.102 402.947 106.203C401.616 106.351 399.902 107.324 398.798 108.034C398.282 108.366 397.642 108.824 397.211 109.255C396.732 109.733 396.738 110.633 396.112 110.841" stroke="#6B553B" stroke-width="3" stroke-linecap="round"/>
<path d="M396.113 112.306C395.857 111.626 398.175 111.663 398.798 111.465C399.917 111.109 401.327 110.887 402.473 111.221C404.726 111.878 406.874 112.024 408.805 113.526C410.39 114.759 411.573 115.874 412.521 117.676C413.068 118.715 413.687 120.407 413.687 121.582" stroke="#6B553B" stroke-width="3" stroke-linecap="round"/>
<path d="M419.302 102.542C421.209 104.5 422.687 106.204 423.451 108.834C423.886 110.333 424.881 111.897 424.916 113.472C424.953 115.193 424.716 116.788 424.373 118.462C424.227 119.177 424.156 120.74 423.451 121.093" stroke="#6B553B" stroke-width="3" stroke-linecap="round"/>
<path d="M415.64 146.479C414.961 150.044 414.758 154.195 415.884 157.708C416.065 158.27 417.954 162.472 418.081 162.346" stroke="#6B553B" stroke-width="3" stroke-linecap="round"/>
<path d="M397.089 155.999C397.422 151 399.827 148.327 402.825 144.662C404.2 142.983 406.577 142.338 408.562 141.842" stroke="#6B553B" stroke-width="3" stroke-linecap="round"/>
<path d="M388.79 131.101C389.963 130.372 391.124 129.139 392.505 128.85C393.306 128.683 394.101 128.533 394.892 128.362C396.302 128.057 397.698 127.812 399.096 128.226C400.333 128.593 401.633 128.539 402.893 128.959C404.147 129.377 405.419 130.262 406.609 130.857" stroke="#6B553B" stroke-width="3" stroke-linecap="round"/>
<path d="M430.286 126.22C435.007 125.215 438.279 122.876 441.256 119.155C442.234 117.932 442.884 116.27 443.223 114.747C443.365 114.105 444.976 111.071 444.199 111.33" stroke="#6B553B" stroke-width="3" stroke-linecap="round"/>
<path d="M431.994 135.495C433.993 136.204 435.641 137.523 437.609 138.289C438.94 138.806 441.055 138.424 442.477 138.424C443.857 138.424 445.055 138.325 446.396 137.99C447.313 137.761 449.035 137.761 449.569 136.96" stroke="#6B553B" stroke-width="3" stroke-linecap="round"/>
<path d="M428.089 143.062C428.623 146.995 430.135 151.671 433.459 154.236C434.043 154.686 437.421 156.618 437.853 155.754" stroke="#6B553B" stroke-width="3" stroke-linecap="round"/>
<path d="M56.4006 163.405C55.5256 164.78 54.6506 170.03 54.7756 171.655C54.5256 178.28 58.0256 182.28 61.4006 183.28C64.7756 184.28 77.2756 186.28 79.9006 186.655C82.5256 187.03 110.276 192.28 114.151 193.405C117.251 194.305 131.692 198.28 138.526 200.155C146.734 202.947 163.626 208.655 165.526 209.155C167.901 209.78 188.276 215.905 196.026 218.53C202.226 220.63 225.442 226.822 236.276 229.655L262.901 238.405C277.067 241.822 305.551 248.655 306.151 248.655C306.901 248.655 329.651 255.405 332.026 256.03C334.401 256.655 343.651 255.155 347.901 254.03C352.151 252.905 354.651 246.53 355.276 243.78C355.901 241.03 355.901 233.655 351.776 228.78C347.651 223.905 338.151 220.405 336.776 220.28C335.401 220.155 321.401 214.53 317.901 213.78C315.101 213.18 294.567 207.614 284.651 204.905C276.067 202.864 258.726 198.78 258.026 198.78C257.151 198.78 238.401 194.78 236.401 194.53C234.801 194.33 212.984 189.114 202.276 186.53C192.359 183.864 171.751 178.43 168.651 178.03C165.551 177.63 146.609 173.114 137.526 170.905L111.276 165.03L73.2756 156.655C71.2339 156.739 66.8006 157.08 65.4006 157.78C63.6506 158.655 57.2756 162.03 56.4006 163.405Z" fill="#DAD5D1" stroke="#6B553B"/>
<path d="M63.5248 158.53C61.9041 158.733 60.3526 160.013 59.0804 161.03C56.9502 162.734 56.0656 164.923 55.4137 167.53C54.9259 169.482 54.8165 171.808 55.0387 173.808C55.2603 175.802 55.2862 177.998 56.7748 179.53C57.9875 180.779 59.3157 182.583 61.0248 183.086C62.5408 183.532 64.0137 184.429 65.5387 184.905C68.4348 185.81 72.6441 184.755 74.8304 182.725C76.1281 181.52 77.4713 180.833 78.5248 179.336C79.7443 177.603 80.7748 175.603 80.7748 173.419C80.7748 169.676 80.6733 166.447 78.5248 163.225C76.8969 160.783 73.3986 157.53 70.2609 157.53C69.0961 157.53 67.9729 157.28 66.7748 157.28C65.9174 157.28 64.7225 158.013 64.0248 157.78" stroke="#6B553B" stroke-width="3" stroke-linecap="round"/>
<path d="M335.775 232.53C335.785 232.536 334.66 233.159 334.469 233.28C333.952 233.608 333.513 234.019 333.039 234.405C332.036 235.219 331.525 236.657 331.525 237.905C331.525 240.625 331.892 242.993 333.65 245.141C336.641 248.797 342.614 249.026 346.039 246.03C347.096 245.105 348.002 244.159 348.525 242.835C349.044 241.522 348.837 240.667 348.775 239.335C348.668 237.046 347.439 234.773 345.83 233.224C344.047 231.506 341.849 231.53 339.525 231.53C338.975 231.53 338.04 231.356 337.525 231.585C337.246 231.709 336.275 231.958 336.275 231.78" stroke="#6B553B" stroke-width="3" stroke-linecap="round"/>
<path d="M63.2749 158.28C63.8976 157.727 65.4554 158.03 66.2749 158.03C67.1992 158.03 67.8507 157.78 68.7749 157.78C71.829 157.78 74.5364 156.684 77.5805 157.336C79.0661 157.654 80.5417 157.965 82.0249 158.336C83.9018 158.805 85.6356 159.875 87.5249 160.225C90.031 160.689 92.508 161.352 95.0249 161.836C97.8369 162.377 100.717 162.99 103.511 163.642C107.27 164.519 111.108 165.234 114.914 165.905C119.996 166.802 125.439 167.496 130.372 169.03C135.03 170.48 139.903 171.731 144.65 172.892C150.168 174.24 155.637 175.417 161.247 176.28C166.108 177.028 170.701 178.721 175.469 179.78C179.989 180.785 184.441 182.048 188.969 183.03C200.241 185.475 211.525 187.925 222.636 191.044C236.696 194.991 251.154 196.809 265.386 200.017C271.114 201.307 276.701 203.134 282.428 204.419C289.268 205.955 296.084 207.895 302.83 209.78C309.951 211.77 316.974 214 324.08 216.03C327.372 216.971 330.698 217.797 333.914 218.975C337.75 220.38 342.306 221.134 345.747 223.392C348.776 225.379 352.46 227.555 353.775 231.169C354.795 233.976 355.775 236.596 355.775 239.586C355.775 242.69 355.448 245.617 353.775 248.336C353.345 249.034 353.104 249.824 352.65 250.53C352.174 251.272 351.449 251.628 350.83 252.225C349.36 253.643 348.288 254.035 346.386 254.669C343.176 255.739 340.083 256.815 336.65 256.517C333.759 256.265 330.699 255.392 327.9 254.655C326.136 254.191 324.408 253.427 322.65 252.892C320.622 252.274 318.488 251.709 316.525 250.905C313.47 249.656 309.962 249.314 306.761 248.628C302.456 247.705 298.103 246.706 293.858 245.53C284.926 243.057 275.864 241.571 266.858 239.475C258.052 237.425 250.038 232.728 241.289 230.655C233.576 228.829 225.973 226.732 218.261 224.905C211.174 223.227 204.27 220.885 197.219 218.975C189.918 216.998 183.112 213.344 175.914 211.03C167.299 208.262 158.183 207.214 149.664 204.044C143.479 201.743 137.399 199.248 131.122 197.155C126.094 195.48 120.679 194.903 115.525 193.725C104.285 191.156 92.9153 188.482 81.4277 186.78C79.0202 186.424 76.4819 186.063 74.1499 185.544C73.3041 185.356 72.2669 185.28 71.3999 185.28C70.2782 185.28 69.4606 186.028 68.5249 184.78" stroke="#6B553B" stroke-width="3" stroke-linecap="round"/>
</svg>
