<svg width="23" height="25" fill="currentColor" xmlns="http://www.w3.org/2000/svg"><path d="M14.944 20.86c.123-.11.038-.208.136-.31.097-.1.228-.041.316-.168.092-.13.048-.191.149-.314.1-.122.334-.151.38-.234.045-.083.088-.304.134-.37.046-.066.297-.077.394-.178.097-.101-.024-.303.038-.395.068-.087.332-.086.416-.2.088-.11-.055-.316.033-.425.088-.11.288-.086.356-.156.063-.066-.067-.26-.013-.36.058-.096.302-.055.364-.165.067-.104-.156-.193-.149-.253.003-.065.44-.227.525-.315.085-.087-.08-.271-.095-.37-.015-.1.377-.196.447-.349.07-.152-.12-.267-.102-.267.021-.005.276-.207.325-.338.045-.126.113-.543.28-.662.17-.115.052-.507.135-.664.078-.162.011-.243.011-.243s-.088-.068-.242.02c-.158.085-.55-.014-.659.16-.108.175-.522.25-.65.303-.13.054-.322.317-.326.338-.004.022-.125-.163-.271-.091-.15.075-.232.47-.331.459-.1-.012-.29-.17-.375-.082-.084.087-.23.531-.295.536-.065.006-.152-.214-.259-.14-.102.071-.053.313-.151.37-.094.063-.296-.065-.36.001-.063.066-.037.27-.143.362-.106.092-.317-.044-.423.048-.106.093-.1.361-.185.423-.085.07-.295-.048-.393.053-.097.1-.1.36-.163.4-.064.049-.28.095-.365.148-.081.048-.106.287-.22.388-.12.105-.18.063-.309.16-.127.097-.06.222-.156.322-.098.101-.195.025-.304.147-.106.127-.036.313-.113.392-.071.074-.323.06-.372.182-.045.118.057.216-.044.321-.102.105-.34.13-.384.274-.044.143.08.22-.056.36-.135.14-.363.04-.368.186-.001.143.142.34.05.437-.094.097-.29.07-.355.235-.065.165.08.28.022.367-.059.088-.245.086-.29.203-.045.118.174.21.12.293-.054.083-.237.051-.272.22-.035.17.143.206.12.293-.024.087-.186.024-.227.146-.036.126.095.337.067.428-.028.092-.257.311-.115.448.142.137.357-.096.443-.131.09-.032.31.095.43.05.125-.04.056-.2.138-.231.085-.027.124.146.297.109.168-.041.129-.223.21-.28.08-.058.177.154.297.109.116-.05.107-.236.192-.297.085-.062.206.08.368.008.163-.072.128-.266.221-.362.093-.097.291.035.439.033.143-.006.037-.235.173-.375.135-.14.216-.02.357-.07.142-.049.158-.287.26-.393.101-.105.203-.006.319-.056.116-.049.092-.3.168-.379.09-.057.282.001.405-.109zM12.242 6.444c.11.124.208.04.31.138.101.098.044.229.172.318.131.093.191.05.315.151.123.103.154.336.238.382.083.047.305.091.37.138.066.047.08.297.183.395.101.098.302-.021.394.043.088.068.09.331.205.416.11.09.314-.051.424.038.11.09.09.288.16.357.066.064.258-.064.359-.01.096.06.059.302.168.366.106.068.191-.154.252-.146.065.003.23.442.32.528.088.085.27-.078.369-.092.1-.014.2.378.352.45.153.071.266-.116.266-.1.005.022.21.28.34.33.131.05.544.118.665.285.116.171.507.058.664.142.162.08.243.014.243.014s.067-.087-.023-.241c-.086-.16.009-.55-.167-.66-.176-.11-.255-.524-.31-.653-.05-.124-.318-.324-.34-.328-.022-.004.161-.123.089-.27-.077-.15-.473-.235-.462-.335.01-.1.166-.287.077-.373-.088-.085-.533-.235-.538-.3-.006-.064.212-.15.136-.256-.072-.103-.313-.057-.371-.155-.063-.095.062-.295-.004-.36-.067-.063-.27-.039-.363-.146-.093-.107.04-.316-.053-.423-.093-.107-.361-.103-.424-.189-.07-.085.045-.294-.056-.392-.102-.099-.362-.104-.402-.168-.05-.064-.098-.28-.152-.366-.053-.085-.287-.108-.39-.224-.106-.12-.064-.18-.163-.309-.098-.128-.222-.062-.323-.16-.102-.098-.027-.194-.15-.305-.128-.106-.313-.039-.392-.116-.075-.072-.064-.323-.186-.373-.118-.046-.215.054-.321-.048-.107-.102-.134-.34-.278-.385-.143-.046-.218.076-.36-.06-.141-.137-.043-.363-.19-.37-.143-.002-.338.139-.436.045-.097-.094-.071-.289-.237-.356-.166-.067-.28.077-.367.018-.088-.06-.088-.246-.206-.292-.118-.046-.208.172-.291.117-.084-.055-.054-.237-.223-.274-.17-.037-.204.141-.291.116-.087-.025-.026-.185-.148-.227-.127-.037-.335.09-.427.062-.091-.03-.313-.26-.448-.12s.1.358.136.444c.032.09-.092.308-.046.428.041.125.2.058.232.14.028.086-.144.123-.105.295.043.168.223.131.281.213.058.081-.151.175-.105.295.05.116.236.11.298.195.063.086-.077.204-.004.368.073.163.267.13.364.224.098.094-.032.29-.028.437.008.143.234.04.376.177.141.136.022.215.073.357s.29.161.396.263c.106.103.009.203.059.32.05.116.3.095.38.172.059.09.002.28.114.405zm-4.022 8.42c.234.01.253-.16.45-.162.195-.001.268.188.488.15.22-.038.24-.136.46-.162.22-.026.49.187.624.149.134-.038.392-.217.502-.23.11-.025.38.224.583.23.196-.002.278-.327.43-.347.153-.019.424.243.626.223.202-.02.253-.363.454-.383.202-.02.386.206.515.211.135 0 .192-.325.338-.363.159-.038.363.243.534.205.176-.044.038-.344.098-.405.065-.056.668.228.846.221.177-.007.186-.344.274-.461.088-.117.575.186.8.105.218-.075.148-.38.166-.362.02.018.487.076.662-.005.175-.08.65-.42.939-.367.29.053.562-.445.805-.52.243-.075.257-.228.257-.228s-.023-.153-.27-.225c-.248-.072-.55-.566-.837-.51-.286.058-.78-.276-.96-.354-.18-.079-.645-.015-.662.004-.018.018.034-.288-.19-.36-.222-.072-.697.23-.792.115-.096-.116-.124-.453-.302-.458-.172.002-.764.287-.833.232-.069-.054.057-.361-.122-.403-.18-.042-.366.253-.52.212-.161-.036-.238-.36-.36-.36-.123.001-.307.229-.503.218-.203-.017-.274-.36-.477-.377-.203-.017-.458.248-.612.23-.154-.017-.255-.34-.451-.34-.197.002-.459.249-.57.237-.11-.024-.379-.187-.515-.223-.136-.036-.387.174-.614.157-.221-.023-.249-.121-.47-.156-.222-.036-.284.154-.486.162-.196.001-.22-.176-.458-.156-.232.013-.353.265-.5.266-.147.001-.395-.273-.552-.198-.157.074-.157.276-.365.277-.208.002-.478-.21-.666-.118-.187.093-.144.301-.42.297-.27.002-.408-.334-.55-.187-.15.142-.194.48-.384.475-.197 0-.369-.225-.599-.125-.23.1-.197.356-.343.382-.147.025-.33-.163-.5-.089-.163.069-.025.38-.165.4-.134.025-.294-.189-.498-.053-.198.13-.063.344-.166.4-.108.062-.207-.165-.376-.078-.163.081-.232.43-.359.487-.12.062-.574.052-.56.328.009.282.455.26.58.32.124.061.22.404.388.482.168.079.26-.142.372-.082.112.06-.023.276.19.397.205.127.352-.088.494-.058.135.024.022.33.19.397.167.066.339-.125.493-.095.148.023.131.28.367.377.236.097.394-.13.59-.132.196-.001.256.329.413.469.157.14.27-.192.54-.193.269-.002.245.2.437.29.193.091.45-.125.658-.126.209-.001.209.2.382.273.174.073.392-.204.54-.205.16.023.29.267.523.278z"/></svg>