<svg width="60" height="70" viewBox="0 0 60 70" fill="none" xmlns="http://www.w3.org/2000/svg"><path fill-rule="evenodd" clip-rule="evenodd" d="M59.25 17.2L42.85.7 41.1 0H2.5L0 2.5V30h5V5h30v17.5l2.5 2.5H55v5h5V19l-.75-1.8zM40 20V5l15 15H40zM2.5 35L0 37.5v30L2.5 70h55l2.5-2.5v-30L57.5 35h-55zM55 60v5H5V40h50v20zm-40-5h-1.6v5H10V45h5.3c3.75 0 5.65 1.8 5.65 5a4.7 4.7 0 01-1.6 3.6A6.65 6.65 0 0115 55zm-.3-7.25h-1.3v4.65h1.3c1.8 0 2.7-.8 2.7-2.35s-.9-2.3-2.7-2.3zM35 57.9a7.4 7.4 0 002.2-5.6c0-5-2.65-7.3-8-7.3h-5.3v15h5.3a8 8 0 005.8-2.1zm-7.75-.65v-9.5h1.65A4.7 4.7 0 0132.4 49a4.55 4.55 0 011.25 3.35 5 5 0 01-1.25 3.6 4.7 4.7 0 01-3.45 1.3h-1.7zM49.5 54.2h-4.85V60h-3.4V45h8.7v2.75h-5.3v3.7h4.85v2.75z" fill="#fff"/></svg>