<svg width="16" height="16" viewBox="0 0 16 16" fill="none" xmlns="http://www.w3.org/2000/svg"><path fill-rule="evenodd" clip-rule="evenodd" d="M7.61 8.388c-.541-.542-.989-1.127-1.226-1.602a1.801 1.801 0 01-.148-.38l.48-.48c.105-.106.156-.157.222-.226a4.45 4.45 0 00.356-.416c.457-.617.627-1.288.086-1.893C6.354 1.956 5.664 1.07 5.22.631c-.912-.9-2.4-.78-3.191 0a64.34 64.34 0 00-.905.905C-1.167 3.83.2 8.571 3.812 12.186c3.612 3.616 8.353 4.984 10.652 2.684.36-.347.67-.656.913-.914.772-.816.889-2.24-.006-3.169-.425-.442-1.271-1.099-2.768-2.17-.548-.485-1.188-.38-1.757-.006-.256.168-.436.332-.776.672l-.48.48a1.799 1.799 0 01-.38-.148c-.473-.237-1.059-.685-1.6-1.227zm3.278 2.905l.596-.597c.102-.102.182-.18.249-.242 1.207.87 1.913 1.423 2.198 1.72.097.1.08.318-.006.408-.22.233-.508.521-.862.862-1.305 1.305-4.902.267-7.837-2.67-2.936-2.94-3.974-6.538-2.682-7.83.39-.396.513-.52.889-.889.06-.059.305-.078.384 0 .308.304.885 1.039 1.728 2.208a10.2 10.2 0 01-.243.25l-.596.595C3.56 6.255 4.47 8.074 6.196 9.802c1.725 1.727 3.545 2.638 4.692 1.49z" fill="currentColor"/></svg>