<svg width="30" height="21" viewBox="0 0 30 21" xmlns="http://www.w3.org/2000/svg"><path d="M19.402 3.012c.828 0 1.5-.674 1.5-1.506S20.23 0 19.401 0s-1.5.674-1.5 1.506.672 1.506 1.5 1.506zm0 4.473c.828 0 1.5-.674 1.5-1.506s-.672-1.506-1.5-1.506-1.5.674-1.5 1.506c0 .831.672 1.506 1.5 1.506zM1.499 11.958c.828 0 1.5-.674 1.5-1.506 0-.831-.672-1.506-1.5-1.506S0 9.621 0 10.452c0 .832.671 1.506 1.5 1.506zm4.454 0c.828 0 1.499-.674 1.499-1.506 0-.831-.671-1.506-1.5-1.506-.828 0-1.499.675-1.499 1.506 0 .832.671 1.506 1.5 1.506zm4.542 0c.829 0 1.5-.674 1.5-1.506 0-.831-.671-1.506-1.5-1.506-.828 0-1.499.675-1.499 1.506 0 .832.671 1.506 1.5 1.506zm4.452 0c.828 0 1.499-.674 1.499-1.506 0-.831-.671-1.506-1.5-1.506-.827 0-1.499.675-1.499 1.506 0 .832.672 1.506 1.5 1.506zm4.455 0c.828 0 1.5-.674 1.5-1.506 0-.831-.672-1.506-1.5-1.506s-1.5.675-1.5 1.506c0 .832.672 1.506 1.5 1.506zm0 4.563c.828 0 1.5-.674 1.5-1.506s-.672-1.506-1.5-1.506-1.5.674-1.5 1.506.672 1.506 1.5 1.506zm0 4.48c.828 0 1.5-.675 1.5-1.507 0-.831-.672-1.506-1.5-1.506s-1.5.675-1.5 1.506c0 .832.672 1.506 1.5 1.506zM24.04 7.484c.829 0 1.5-.674 1.5-1.506s-.671-1.506-1.5-1.506c-.828 0-1.499.674-1.499 1.506 0 .831.671 1.506 1.5 1.506zm0 4.473c.829 0 1.5-.674 1.5-1.506 0-.831-.671-1.506-1.5-1.506-.828 0-1.499.675-1.499 1.506 0 .832.671 1.506 1.5 1.506zm0 4.563c.829 0 1.5-.674 1.5-1.506s-.671-1.506-1.5-1.506c-.828 0-1.499.674-1.499 1.506s.671 1.506 1.5 1.506zm4.46-4.563c.828 0 1.499-.674 1.499-1.506 0-.831-.671-1.506-1.5-1.506-.828 0-1.499.675-1.499 1.506 0 .832.671 1.506 1.5 1.506z"/></svg>