<svg width="38" height="41" viewBox="0 0 38 41" fill="none" xmlns="http://www.w3.org/2000/svg"><mask id="path-1-outside-1" maskUnits="userSpaceOnUse" x="-.146" y="0" width="38" height="41" fill="#000"><path fill="currentColor" d="M-.146 0h38v41h-38z"/><path fill-rule="evenodd" clip-rule="evenodd" d="M37.043 11.288c.083.075.165.15.165.224.083.15.083.224.083.224V38.5c0 .82-.745 1.491-1.656 1.491H2.511c-.911 0-1.657-.67-1.657-1.49V2.49C.854 1.671 1.6 1 2.511 1h22.773c.097 0 .165.026.222.047.04.015.075.028.109.028.083 0 .166.074.248.149l11.18 10.064zm-10.931-.223h8.364l-7.619-6.86-.745-.67v7.53zM2.51 2.49v35.935h33.124v-25.87h-9.523c-.911 0-1.656-.671-1.656-1.491V2.49H2.51zm5.053 14.165h23.022c.414 0 .828.299.828.746s-.332.745-.828.745H7.564c-.497 0-.828-.298-.828-.745 0-.448.331-.746.828-.746zm23.022 4.399H7.564c-.497 0-.828.298-.828.745 0 .448.331.746.828.746h23.022c.497 0 .828-.298.828-.746 0-.447-.414-.745-.828-.745zM7.564 25.528h23.022c.414 0 .828.298.828.746 0 .447-.332.745-.828.745H7.564c-.497 0-.828-.298-.828-.745 0-.448.331-.746.828-.746zm23.022 4.399H7.564c-.497 0-.828.298-.828.745 0 .448.331.746.828.746h23.022c.497 0 .828-.298.828-.746 0-.447-.414-.745-.828-.745zM7.564 34.325h23.022c.414 0 .828.299.828.746s-.332.745-.828.745H7.564c-.497 0-.828-.298-.828-.745s.331-.746.828-.746z"/></mask><path fill-rule="evenodd" clip-rule="evenodd" d="M37.043 11.288c.083.075.165.15.165.224.083.15.083.224.083.224V38.5c0 .82-.745 1.491-1.656 1.491H2.511c-.911 0-1.657-.67-1.657-1.49V2.49C.854 1.671 1.6 1 2.511 1h22.773c.097 0 .165.026.222.047.04.015.075.028.109.028.083 0 .166.074.248.149l11.18 10.064zm-10.931-.223h8.364l-7.619-6.86-.745-.67v7.53zM2.51 2.49v35.935h33.124v-25.87h-9.523c-.911 0-1.656-.671-1.656-1.491V2.49H2.51zm5.053 14.165h23.022c.414 0 .828.299.828.746s-.332.745-.828.745H7.564c-.497 0-.828-.298-.828-.745 0-.448.331-.746.828-.746zm23.022 4.399H7.564c-.497 0-.828.298-.828.745 0 .448.331.746.828.746h23.022c.497 0 .828-.298.828-.746 0-.447-.414-.745-.828-.745zM7.564 25.528h23.022c.414 0 .828.298.828.746 0 .447-.332.745-.828.745H7.564c-.497 0-.828-.298-.828-.745 0-.448.331-.746.828-.746zm23.022 4.399H7.564c-.497 0-.828.298-.828.745 0 .448.331.746.828.746h23.022c.497 0 .828-.298.828-.746 0-.447-.414-.745-.828-.745zM7.564 34.325h23.022c.414 0 .828.299.828.746s-.332.745-.828.745H7.564c-.497 0-.828-.298-.828-.745s.331-.746.828-.746z" fill="currentColor"/><path d="M37.208 11.512h-.1v.026l.013.023.087-.049zm-.165-.224l.067-.074-.067.074zM25.506 1.047l-.035.094.013.003.022-.097zm0 0l.035-.095-.013-.003-.022.098zm.357.177l.067-.075-.067.075zm8.613 9.84v.1h.26l-.194-.174-.066.075zm-8.364 0h-.1v.1h.1v-.1zm.745-6.858l.067-.075-.067.075zm-.745-.671l.067-.075-.167-.15v.225h.1zM2.51 38.425h-.1v.1h.1v-.1zm0-35.934v-.1h-.1v.1h.1zm33.124 35.935v.1h.1v-.1h-.1zm0-25.87h.1v-.1h-.1v.1zM24.455 2.49h.1v-.1h-.1v.1zm12.853 9.021a.28.28 0 00-.075-.176c-.036-.044-.083-.086-.123-.122l-.134.149c.043.038.078.07.104.101.027.033.028.047.028.048h.2zm-.017.224h.1v-.005a.88.88 0 00-.095-.268l-.175.098a.687.687 0 01.07.175h.1zm.1.074v-.074h-.2v.074h.2zm0 26.69V11.81h-.2V38.5h.2zm-1.756 1.591c.956 0 1.756-.706 1.756-1.59h-.2c0 .755-.69 1.39-1.556 1.39v.2zm-33.124 0h33.124v-.2H2.511v.2zM.754 38.5c0 .884.8 1.59 1.757 1.59v-.2c-.866 0-1.557-.635-1.557-1.39h-.2zm0-36.01V38.5h.2V2.49h-.2zM2.511.9C1.555.9.754 1.606.754 2.491h.2c0-.755.69-1.391 1.557-1.391V.9zM25.2.9H2.51v.2H25.2V.9zm.083 0H25.2v.2h.083V.9zm.257.053A.67.67 0 0025.284.9v.2c.078 0 .132.02.187.04l.07-.187zM25.528.95l-.044.195.044-.195zm.087.026a.247.247 0 01-.074-.022l-.07.187c.036.014.088.035.144.035v-.2zm.315.174a1.24 1.24 0 00-.135-.11.327.327 0 00-.18-.064v.2c.012 0 .033.005.068.029.035.023.07.056.113.094l.134-.149zm11.18 10.065L25.93 1.149l-.134.149 11.18 10.065.134-.149zm-2.634-.25h-8.364v.2h8.364v-.2zM26.79 4.28l7.619 6.859.133-.149-7.618-6.859-.134.15zm-.745-.67l.745.67.134-.149-.745-.67-.134.148zm.167 7.455v-7.53h-.2v7.53h.2zM2.61 38.425V2.492h-.2v35.935h.2zm33.024-.1H2.511v.2h33.124v-.2zm-.1-25.77v25.87h.2v-25.87h-.2zm-9.423.1h9.523v-.2h-9.523v.2zm-1.756-1.59c0 .885.8 1.59 1.756 1.59v-.2c-.866 0-1.556-.635-1.556-1.39h-.2zm0-8.574v8.574h.2V2.49h-.2zm-21.845.1h21.945v-.2H2.51v.2zm28.075 13.965H7.564v.2h23.022v-.2zm.928.846c0-.518-.476-.846-.928-.846v.2c.375 0 .728.27.728.646h.2zm-.928.845c.268 0 .5-.08.667-.23a.806.806 0 00.26-.615h-.2a.607.607 0 01-.194.466.786.786 0 01-.533.18v.2zm-23.022 0h23.022v-.2H7.564v.2zm-.928-.845c0 .25.093.464.26.615.168.15.4.23.668.23v-.2c-.228 0-.41-.068-.533-.18a.607.607 0 01-.195-.465h-.2zm.928-.846c-.268 0-.5.08-.667.23a.806.806 0 00-.26.616h.2c0-.198.071-.356.194-.466a.781.781 0 01.533-.18v-.2zm0 4.599h23.022v-.2H7.564v.2zm-.728.645c0-.197.072-.356.195-.466a.786.786 0 01.533-.18v-.2c-.268 0-.5.081-.667.232a.806.806 0 00-.26.614h.2zm.728.646a.781.781 0 01-.533-.18.607.607 0 01-.195-.466h-.2c0 .25.093.464.26.615.168.15.4.231.668.231v-.2zm23.022 0H7.564v.2h23.022v-.2zm.728-.646a.607.607 0 01-.195.467.786.786 0 01-.533.179v.2c.268 0 .5-.08.667-.23a.806.806 0 00.26-.616h-.2zm-.728-.645c.375 0 .728.269.728.645h.2c0-.518-.476-.845-.928-.845v.2zm0 4.273H7.564v.2h23.022v-.2zm.928.846c0-.519-.476-.846-.928-.846v.2c.375 0 .728.27.728.646h.2zm-.928.845c.268 0 .5-.08.667-.23a.806.806 0 00.26-.615h-.2a.607.607 0 01-.194.466.786.786 0 01-.533.18v.2zm-23.022 0h23.022v-.2H7.564v.2zm-.928-.845c0 .25.093.464.26.614.168.15.4.231.668.231v-.2c-.228 0-.41-.068-.533-.18a.607.607 0 01-.195-.465h-.2zm.928-.846c-.268 0-.5.08-.667.23a.807.807 0 00-.26.616h.2c0-.198.071-.357.194-.467a.786.786 0 01.533-.179v-.2zm0 4.599h23.022v-.2H7.564v.2zm-.728.645c0-.197.072-.356.195-.466a.786.786 0 01.533-.18v-.2a.98.98 0 00-.667.231.806.806 0 00-.26.615h.2zm.728.646a.781.781 0 01-.533-.18.607.607 0 01-.195-.466h-.2c0 .25.093.464.26.615.168.15.4.23.668.23v-.2zm23.022 0H7.564v.2h23.022v-.2zm.728-.646a.607.607 0 01-.195.466.781.781 0 01-.533.18v.2c.268 0 .5-.08.667-.23a.806.806 0 00.26-.616h-.2zm-.728-.645c.375 0 .728.269.728.645h.2c0-.518-.476-.845-.928-.845v.2zm0 4.198H7.564v.2h23.022v-.2zm.928.846c0-.518-.476-.846-.928-.846v.2c.375 0 .728.27.728.646h.2zm-.928.845c.268 0 .5-.08.667-.23a.806.806 0 00.26-.615h-.2a.607.607 0 01-.194.466.781.781 0 01-.533.18v.2zm-23.022 0h23.022v-.2H7.564v.2zm-.928-.845c0 .25.093.464.26.615.168.15.4.23.668.23v-.2c-.228 0-.41-.068-.533-.179a.607.607 0 01-.195-.466h-.2zm.928-.846a.98.98 0 00-.667.231.806.806 0 00-.26.615h.2c0-.198.071-.356.194-.466a.781.781 0 01.533-.18v-.2z" fill="currentColor" mask="url(#path-1-outside-1)"/></svg>