<svg id="iconfinder_ic_local_phone_48px_352510" xmlns="http://www.w3.org/2000/svg" width="19.586" height="19.586" viewBox="0 0 19.586 19.586"><path id="Path_2" data-name="Path 2" d="M0 0h19.586v19.586H0z" fill="none"/><path id="Path_3" data-name="Path 3" d="M8.989 12.428a12.418 12.418 0 005.434 5.43l1.814-1.818a.827.827 0 01.837-.2 9.387 9.387 0 002.944.47.822.822 0 01.825.825v2.886a.822.822 0 01-.825.825A14.017 14.017 0 016 6.825.824.824 0 016.825 6h2.886a.822.822 0 01.825.825 9.387 9.387 0 00.47 2.944.827.827 0 01-.2.837z" transform="translate(-3.628 -3.628)" fill="currentColor"/></svg>