<svg width="38" height="44" viewBox="0 0 38 44" fill="none" xmlns="http://www.w3.org/2000/svg"><path d="M1.375 16.236c0-8.071 7.706-14.893 17.496-14.893s17.497 6.822 17.497 14.893c0 5.766-2.61 9.596-5.98 13.216-.742.797-1.525 1.594-2.329 2.414-2.836 2.889-5.943 6.054-8.515 10.474a.595.595 0 01-.239.214.937.937 0 01-.434.103.936.936 0 01-.434-.103.595.595 0 01-.238-.214c-2.572-4.42-5.68-7.585-8.515-10.474-.805-.82-1.587-1.617-2.33-2.414-3.37-3.62-5.979-7.45-5.979-13.216z" stroke="currentColor" stroke-width="2"/><circle cx="18.871" cy="17.349" r="6.473" stroke="currentColor" stroke-width="2"/></svg>