<svg width="24" height="21" viewBox="0 0 24 21" fill="none" xmlns="http://www.w3.org/2000/svg"><path d="M22.377 3.643h-2.746V1.17a.915.915 0 00-.915-.915H5.444a.915.915 0 00-.916.915v2.472H1.782a.915.915 0 00-.915.915v8.97c0 .506.41.915.916.915h2.746v4.824c0 .306.061.533.297.749.11.1.227.166.37.206.133.037.264.034.398.034h12.971c.134 0 .266.003.398-.034a.881.881 0 00.371-.207c.236-.216.297-.444.297-.749v-4.822h2.746c.506 0 .916-.41.916-.916v-8.97a.915.915 0 00-.916-.915zM3.156 6.869a.8.8 0 110-1.602.8.8 0 010 1.602zm15.56 12.471H5.444v-7.23h13.272v7.23zm0-15.697H5.444V2.087c0-.506.41-.916.915-.916h11.442c.505 0 .915.41.915.916v1.556z" fill="currentColor"/></svg>