<svg width="15" height="14" viewBox="0 0 15 14" fill="none" xmlns="http://www.w3.org/2000/svg"><path d="M3.328 4.62H.324v9.037h3.004V4.62zM1.847.264c-1.028 0-1.7.674-1.7 1.56 0 .868.652 1.563 1.66 1.563h.02c1.048 0 1.7-.694 1.7-1.562C3.507.938 2.875.264 1.847.264zm8.855 4.144c-1.595 0-2.309.878-2.708 1.493v.03h-.019l.02-.03v-1.28H4.99c.04.847 0 9.036 0 9.036h3.005V8.61c0-.27.02-.54.1-.732.217-.54.71-1.1 1.54-1.1 1.088 0 1.523.83 1.523 2.044v4.835h3.004V8.475c0-2.776-1.482-4.067-3.46-4.067z" fill="currentColor"/></svg>