<svg width="28" height="29" viewBox="0 0 28 29" fill="none" xmlns="http://www.w3.org/2000/svg"><g clip-path="url(#clip0)"><path d="M14.598 28.644h-.269a90.44 90.44 0 01-5.973-.17c-1.744-.11-3.335-.735-4.603-1.807-1.223-1.035-2.059-2.433-2.483-4.157-.369-1.5-.388-2.973-.407-4.398a318.344 318.344 0 01-.03-3.465c.002-1.237.016-2.448.03-3.47.019-1.425.038-2.898.407-4.398.424-1.724 1.26-3.122 2.483-4.157C5.021 1.55 6.613.925 8.356.815a90.72 90.72 0 015.979-.17 90.79 90.79 0 015.973.17c1.744.11 3.335.735 4.603 1.807 1.223 1.035 2.058 2.433 2.482 4.157.37 1.5.39 2.973.408 4.398.014 1.022.028 2.233.03 3.465v.005a311.172 311.172 0 01-.03 3.465c-.019 1.425-.038 2.898-.408 4.398-.424 1.724-1.259 3.122-2.482 4.157-1.268 1.072-2.86 1.696-4.603 1.806a89.98 89.98 0 01-5.71.171zm-.269-2.188a88.258 88.258 0 005.851-.166c1.318-.083 2.461-.527 3.398-1.319.865-.732 1.462-1.742 1.772-3.002.307-1.249.325-2.59.342-3.887.013-1.015.027-2.218.03-3.438a319.6 319.6 0 00-.03-3.437c-.017-1.297-.035-2.638-.342-3.888-.31-1.26-.907-2.27-1.772-3.002-.937-.791-2.08-1.235-3.398-1.318a88.905 88.905 0 00-5.846-.167A88.61 88.61 0 008.484 3c-1.319.083-2.462.527-3.398 1.318C4.22 5.05 3.624 6.06 3.314 7.32c-.307 1.25-.325 2.59-.342 3.888-.013 1.016-.027 2.22-.03 3.44.003 1.216.017 2.42.03 3.435.017 1.297.035 2.638.342 3.887.31 1.26.906 2.27 1.772 3.002.936.792 2.08 1.236 3.398 1.319 1.857.117 3.77.172 5.845.166zm-.05-4.976c-3.634 0-6.592-3.066-6.592-6.836 0-3.769 2.958-6.835 6.592-6.835 3.635 0 6.592 3.066 6.592 6.835 0 3.77-2.957 6.836-6.592 6.836zm0-11.484c-2.472 0-4.482 2.085-4.482 4.648 0 2.563 2.01 4.649 4.482 4.649 2.472 0 4.483-2.085 4.483-4.649 0-2.563-2.011-4.648-4.483-4.648zm7.33-4.375c-.874 0-1.582.734-1.582 1.64 0 .907.708 1.641 1.582 1.641.874 0 1.582-.734 1.582-1.64 0-.907-.708-1.641-1.582-1.641z" fill="currentColor"/></g><defs><clipPath id="clip0"><path fill="#fff" transform="translate(.832 .644)" d="M0 0h27v28H0z"/></clipPath></defs></svg>