<svg width="23" height="22" viewBox="0 0 23 22" fill="none" xmlns="http://www.w3.org/2000/svg"><g clip-path="url(#clip0)"><path d="M11.6.922c-5.611 0-8.438 4.02-8.438 7.374 0 2.031.77 3.836 2.417 4.51.272.11.51.005.59-.293.054-.205.184-.728.243-.946.08-.297.05-.398-.172-.658-.477-.56-.779-1.285-.779-2.315 0-2.982 2.232-5.654 5.813-5.654 3.17 0 4.912 1.94 4.912 4.523 0 3.405-1.508 6.277-3.744 6.277-1.235 0-2.16-1.021-1.863-2.274.356-1.495 1.042-3.111 1.042-4.191 0-.968-.519-1.772-1.591-1.772-1.26 0-2.278 1.307-2.278 3.057 0 1.114.377 1.868.377 1.868L6.613 16.86c-.452 1.91-.067 4.25-.034 4.485.021.143.201.176.28.067.118-.15 1.622-2.01 2.132-3.865.147-.524.83-3.246.83-3.246.41.784 1.608 1.47 2.885 1.47 3.794 0 6.37-3.459 6.37-8.09 0-3.497-2.966-6.76-7.476-6.76z" fill="currentColor"/></g><defs><clipPath id="clip0"><path fill="currentColor" transform="translate(.683 .461)" d="M0 0h21.44v21.44H0z"/></clipPath></defs></svg>