<svg width="28" height="28" viewBox="0 0 28 28" fill="none" xmlns="http://www.w3.org/2000/svg"><g clip-path="url(#clip0)"><path d="M27.832 5.272a11.54 11.54 0 01-3.189.874 5.504 5.504 0 002.435-3.059 11.062 11.062 0 01-3.51 1.34 5.534 5.534 0 00-9.575 3.785c0 .439.037.86.129 1.262-4.602-.224-8.674-2.43-11.41-5.79a5.573 5.573 0 00-.757 2.798c0 1.917.987 3.617 2.458 4.6a5.466 5.466 0 01-2.5-.681v.06a5.56 5.56 0 004.434 5.44c-.45.122-.941.181-1.451.181-.354 0-.712-.02-1.048-.094.717 2.192 2.752 3.804 5.172 3.856a11.122 11.122 0 01-6.863 2.36c-.454 0-.89-.02-1.325-.075a15.583 15.583 0 008.492 2.484c10.186 0 15.754-8.438 15.754-15.751 0-.245-.008-.481-.02-.716a11.042 11.042 0 002.774-2.874z" fill="currentColor"/></g><defs><clipPath id="clip0"><path fill="#fff" transform="translate(.832 .144)" d="M0 0h27v27H0z"/></clipPath></defs></svg>