<svg xmlns="http://www.w3.org/2000/svg" width="38" height="38" viewBox="0 0 38 38"><g fill="currentColor"><path d="M19 1.52c9.64 0 17.48 7.842 17.48 17.48 0 9.639-7.842 17.479-17.48 17.479-9.638 0-17.48-7.84-17.48-17.479C1.52 9.362 9.361 1.52 19 1.52M19 0C8.507 0 0 8.507 0 19s8.507 19 19 19 19-8.507 19-19S29.493 0 19 0z"/><path d="M8.978 14.928l-.104-5.845 1.461-.026.078 4.384 4.384-.079.026 1.462zm10.003 15.031c-1.951 0-3.925-.52-5.708-1.611a10.934 10.934 0 01-5.21-10.13l1.458.103a9.48 9.48 0 004.516 8.781c4.467 2.735 10.328 1.328 13.064-3.14l1.246.765c-2.065 3.371-5.673 5.232-9.366 5.232z"/><path d="M29.957 19.364l-1.461-.047a9.471 9.471 0 00-4.848-8.602 9.428 9.428 0 00-7.219-.861 9.44 9.44 0 00-5.715 4.496l-1.273-.715a10.883 10.883 0 016.593-5.188 10.888 10.888 0 018.331.994 10.93 10.93 0 015.592 9.923zm-1.183 3.973l.111 5.845-1.461.027-.081-4.384-4.384.084-.027-1.461z"/></g></svg>