<svg xmlns="http://www.w3.org/2000/svg" width="38" height="38" viewBox="0 0 38 38"><g fill="currentColor"><path d="M19 1.52c9.639 0 17.479 7.842 17.479 17.48 0 9.639-7.842 17.479-17.479 17.479S1.521 28.639 1.521 19C1.521 9.362 9.362 1.52 19 1.52M19 0C8.507 0 0 8.507 0 19s8.507 19 19 19 19-8.507 19-19S29.493 0 19 0z"/><path d="M20.221 10.938h6.839v6.839h-1.52v-5.319h-5.319z"/><path d="M25.764 11.162l1.074 1.075-6.005 6.001-1.074-1.075zM10.94 20.223h1.52v5.319h5.319v1.521H10.94z"/><path d="M17.163 19.76l1.075 1.074-6.001 6.006-1.075-1.074z"/></g></svg>