<svg xmlns="http://www.w3.org/2000/svg" width="800" height="800" viewBox="0 0 512.002 512.002"><path d="M128.257 392.533h-.085c-4.71 0-8.491 3.823-8.491 8.533s3.866 8.533 8.576 8.533 8.533-3.823 8.533-8.533-3.823-8.533-8.533-8.533zm51.2 0h-.085c-4.71 0-8.491 3.823-8.491 8.533s3.866 8.533 8.576 8.533 8.533-3.823 8.533-8.533-3.823-8.533-8.533-8.533zm68.011-119.466h-68.267c-4.719 0-8.533 3.823-8.533 8.533s3.814 8.533 8.533 8.533h68.267c4.719 0 8.533-3.823 8.533-8.533s-3.814-8.533-8.533-8.533zm-34.134 51.2h-34.133a8.53 8.53 0 00-8.533 8.533 8.53 8.53 0 008.533 8.533h34.133a8.53 8.53 0 008.533-8.533 8.53 8.53 0 00-8.533-8.533zm145.067-25.6c-9.412 0-17.067-7.654-17.067-17.067 0-4.71-3.814-8.533-8.533-8.533s-8.533 3.823-8.533 8.533c0 15.855 10.914 29.107 25.6 32.922v1.212a8.53 8.53 0 008.533 8.533 8.53 8.53 0 008.533-8.533v-1.212c14.686-3.814 25.6-17.067 25.6-32.922 0-18.825-15.309-34.133-34.133-34.133-9.412 0-17.067-7.654-17.067-17.067 0-9.412 7.654-17.067 17.067-17.067 9.412 0 17.067 7.654 17.067 17.067 0 4.71 3.814 8.533 8.533 8.533s8.533-3.823 8.533-8.533c0-15.855-10.914-29.107-25.6-32.922v-1.212a8.53 8.53 0 00-8.533-8.533 8.53 8.53 0 00-8.533 8.533v1.212c-14.686 3.814-25.6 17.067-25.6 32.922 0 18.825 15.309 34.133 34.133 34.133 9.412 0 17.067 7.654 17.067 17.067 0 9.412-7.655 17.067-17.067 17.067zm-25.344 93.866h-.085c-4.71 0-8.491 3.823-8.491 8.533s3.866 8.533 8.576 8.533c4.71 0 8.533-3.823 8.533-8.533s-3.822-8.533-8.533-8.533zm102.4 17.067c4.71 0 8.533-3.823 8.533-8.533s-3.823-8.533-8.533-8.533h-.085c-4.71 0-8.491 3.823-8.491 8.533s3.866 8.533 8.576 8.533zm-51.2-17.067h-.085c-4.71 0-8.491 3.823-8.491 8.533s3.866 8.533 8.576 8.533c4.71 0 8.533-3.823 8.533-8.533s-3.822-8.533-8.533-8.533zM349.868 102.4h34.133a8.53 8.53 0 008.533-8.533 8.53 8.53 0 00-8.533-8.533h-34.133a8.53 8.53 0 00-8.533 8.533 8.53 8.53 0 008.533 8.533zM230.657 392.533h-.085c-4.71 0-8.491 3.823-8.491 8.533s3.866 8.533 8.576 8.533 8.533-3.823 8.533-8.533-3.823-8.533-8.533-8.533zm-102.656-102.4h17.067c4.719 0 8.533-3.823 8.533-8.533s-3.814-8.533-8.533-8.533h-17.067c-4.719 0-8.533 3.823-8.533 8.533s3.814 8.533 8.533 8.533zm0 51.2h17.067a8.53 8.53 0 008.533-8.533 8.53 8.53 0 00-8.533-8.533h-17.067a8.53 8.53 0 00-8.533 8.533 8.53 8.53 0 008.533 8.533z"/><path d="M469.334 0H42.668a8.53 8.53 0 00-8.533 8.533v494.933a8.536 8.536 0 005.265 7.885 8.535 8.535 0 009.301-1.852l45.167-45.167 45.167 45.167a8.523 8.523 0 0012.066 0l28.1-28.1 28.1 28.1a8.523 8.523 0 0012.066 0l28.1-28.1 11.034 11.034a8.525 8.525 0 0012.066 0l28.1-28.1 28.1 28.1a8.525 8.525 0 0012.066 0l19.567-19.567 19.567 19.567a8.525 8.525 0 0012.066 0l45.167-45.167 28.1 28.1c.171.179.35.341.538.495 0 .009.008.009.008.009v.009a8.54 8.54 0 005.112 1.98c.316.009.631.009.964-.009h.009a8.515 8.515 0 005.853-2.935 8.523 8.523 0 002.082-5.564V8.533A8.528 8.528 0 00469.334 0zm-8.533 448.734l-19.567-19.567a8.525 8.525 0 00-12.066 0l-45.167 45.167-19.567-19.567a8.523 8.523 0 00-12.066 0l-19.567 19.567-28.1-28.1a8.523 8.523 0 00-12.066 0l-28.1 28.1-11.034-11.034a8.523 8.523 0 00-12.066 0l-28.1 28.1-28.1-28.1a8.51 8.51 0 00-6.033-2.5 8.509 8.509 0 00-6.033 2.5l-28.1 28.1-45.167-45.167a8.523 8.523 0 00-12.066 0l-36.634 36.634v-465.8h409.6v431.667z"/><path d="M77.057 409.6c4.71 0 8.533-3.823 8.533-8.533s-3.823-8.533-8.533-8.533h-.085c-4.71 0-8.491 3.823-8.491 8.533s3.866 8.533 8.576 8.533zm50.944-170.667h17.067c4.719 0 8.533-3.823 8.533-8.533s-3.814-8.533-8.533-8.533h-17.067c-4.719 0-8.533 3.823-8.533 8.533s3.814 8.533 8.533 8.533zM281.857 409.6c4.71 0 8.533-3.823 8.533-8.533s-3.823-8.533-8.533-8.533h-.085c-4.71 0-8.491 3.823-8.491 8.533s3.866 8.533 8.576 8.533zM179.201 187.733h51.2c4.719 0 8.533-3.823 8.533-8.533s-3.814-8.533-8.533-8.533h-51.2c-4.719 0-8.533 3.823-8.533 8.533s3.814 8.533 8.533 8.533zm-51.2 0h17.067c4.719 0 8.533-3.823 8.533-8.533s-3.814-8.533-8.533-8.533h-17.067c-4.719 0-8.533 3.823-8.533 8.533s3.814 8.533 8.533 8.533zm136.533 34.134h-85.333c-4.719 0-8.533 3.823-8.533 8.533s3.814 8.533 8.533 8.533h85.333c4.719 0 8.533-3.823 8.533-8.533s-3.814-8.533-8.533-8.533zM128.001 102.4h136.533a8.53 8.53 0 008.533-8.533 8.53 8.53 0 00-8.533-8.533H128.001a8.53 8.53 0 00-8.533 8.533 8.53 8.53 0 008.533 8.533z"/></svg>