<svg xmlns="http://www.w3.org/2000/svg" width="83" height="29" fill="currentColor"><path d="M66.72 3.739c-.752 0-1.301.628-1.301 1.333v2.667a.339.339 0 00.093.239.322.322 0 00.464 0 .34.34 0 00.094-.24V5.073c0-.375.231-.667.65-.667h14.978c.42 0 .65.292.65.667v10c0 .376-.23.667-.65.667h-1.303a.33.33 0 00-.325.334v2.937l-3.694-3.198a.321.321 0 00-.213-.073h-1.954a.321.321 0 00-.233.096.338.338 0 000 .475.322.322 0 00.233.096h1.832l4.14 3.583a.32.32 0 00.349.052.334.334 0 00.191-.302v-3.333h.977c.752 0 1.302-.63 1.302-1.334v-10c0-.705-.55-1.334-1.302-1.334H66.72zM56.303 9.406c-.752 0-1.302.628-1.302 1.333v10c0 .705.55 1.334 1.302 1.334h.977v3.334c0 .13.075.248.191.302a.32.32 0 00.348-.052l4.141-3.584h9.36c.753 0 1.262-.644 1.262-1.333V10.739c0-.704-.55-1.334-1.302-1.333h-8.465a.321.321 0 00-.233.096.337.337 0 000 .474.32.32 0 00.233.096h8.465c.42 0 .651.292.651.667v10c0 .39-.19.667-.61.667h-9.483a.322.322 0 00-.214.073l-3.693 3.198V21.74a.33.33 0 00-.325-.333h-1.303c-.42 0-.65-.292-.65-.666v-10c0-.376.23-.668.65-.668h4.558a.322.322 0 00.234-.096.337.337 0 000-.475.321.321 0 00-.234-.095h-4.558z"/><path stroke="currentColor" d="M44.481 1L31.803 28.19" opacity=".5"/><path d="M11.714 1.738A9.747 9.747 0 004.828 4.6a9.783 9.783 0 00-2.857 6.9v1.428H.415a.414.414 0 00-.415.415v3.841a.417.417 0 00.415.416H1.97v.1a1.228 1.228 0 001.224 1.226h1.028A1.225 1.225 0 005.446 17.7v-5.196a1.227 1.227 0 00-1.223-1.226H3.195a1.212 1.212 0 00-.39.07A8.93 8.93 0 017.3 3.74a8.897 8.897 0 018.824-.001 8.931 8.931 0 014.5 7.605 1.211 1.211 0 00-.382-.067h-1.028a1.224 1.224 0 00-1.224 1.226V17.7a1.228 1.228 0 001.224 1.226h.369v1.857a2.549 2.549 0 01-1.74 2.417l-3.253 1.087-.029-.14a.799.799 0 00-.945-.62l-2.289.48a.802.802 0 00-.618.946l.24 1.149a.8.8 0 00.944.62l2.29-.48a.802.802 0 00.618-.947l-.04-.19 3.346-1.116a3.378 3.378 0 002.306-3.206v-1.875a1.22 1.22 0 001.052-1.208v-.1h1.557a.414.414 0 00.415-.416v-3.84a.416.416 0 00-.415-.416h-1.557v-.424c0-.03-.006-.058-.008-.087V11.5A9.781 9.781 0 0018.6 4.6a9.746 9.746 0 00-6.887-2.862zM.83 16.768V13.76h1.14v3.01H.83zm2.365-4.66h1.028c.218 0 .394.178.394.396V17.7a.395.395 0 01-.394.395H3.195A.395.395 0 012.8 17.7v-5.196c0-.218.176-.395.394-.395zm8.56 13.793l-.227-1.087 2.228-.466.227 1.087-2.229.466zm8.882-8.201a.395.395 0 01-.394.394h-1.028a.395.395 0 01-.394-.395v-5.196c0-.218.176-.394.394-.395h1.028a.39.39 0 01.385.352v.55a.41.41 0 00.009.043v4.646zm1.971-3.941v3.01h-1.142v-3.01h1.142z"/></svg>