<svg width="55" height="55" viewBox="0 0 55 55" fill="none" xmlns="http://www.w3.org/2000/svg">
<rect x="0.658203" y="0.600586" width="53.877" height="53.877" rx="10" fill="#A38E7F"/>
<path fill-rule="evenodd" clip-rule="evenodd" d="M38.4435 18.5713C38.461 18.5778 38.4754 18.5897 38.4841 18.6049C42.0187 23.2902 43.7645 28.5755 43.1116 34.66C43.1104 34.6728 43.1061 34.6852 43.0991 34.6964C43.092 34.7076 43.0824 34.7173 43.0709 34.7249C40.7052 36.3045 38.0578 37.5086 35.2428 38.2852C35.2229 38.2906 35.2016 38.2904 35.1819 38.2843C35.1622 38.2783 35.1451 38.2668 35.133 38.2516C34.5376 37.5069 34.0036 36.7239 33.5353 35.9089C33.5289 35.8976 33.5252 35.8852 33.5244 35.8726C33.5236 35.86 33.5258 35.8473 33.5309 35.8355C33.5359 35.8236 33.5436 35.8129 33.5536 35.804C33.5635 35.795 33.5754 35.7881 33.5886 35.7836C34.4341 35.497 35.2512 35.1465 36.0313 34.7359C36.0454 34.7283 36.0573 34.7176 36.0658 34.7049C36.0743 34.6922 36.0792 34.6778 36.08 34.663C36.0809 34.6481 36.0776 34.6333 36.0707 34.6199C36.0637 34.6065 36.0531 34.5948 36.0399 34.5859C35.8746 34.4751 35.7105 34.3587 35.5538 34.2423C35.5397 34.2318 35.5225 34.2253 35.5044 34.2233C35.4863 34.2213 35.4679 34.224 35.4514 34.2311C30.3897 36.3387 24.8442 36.3387 19.7219 34.2311C19.7054 34.2244 19.6873 34.2221 19.6694 34.2242C19.6515 34.2264 19.6347 34.233 19.6208 34.2434C19.4641 34.3598 19.2999 34.4751 19.1359 34.5859C19.1228 34.5949 19.1123 34.6066 19.1054 34.6201C19.0985 34.6336 19.0954 34.6484 19.0964 34.6633C19.0974 34.6781 19.1024 34.6925 19.111 34.7051C19.1196 34.7178 19.1315 34.7284 19.1457 34.7359C19.9276 35.1431 20.744 35.4938 21.5873 35.7847C21.6004 35.789 21.6124 35.7958 21.6224 35.8046C21.6324 35.8134 21.6402 35.824 21.6454 35.8358C21.6505 35.8475 21.6528 35.8601 21.6521 35.8727C21.6515 35.8853 21.6479 35.8976 21.6415 35.9089C21.181 36.7285 20.6462 37.5125 20.0427 38.2529C20.0302 38.2677 20.013 38.2788 19.9934 38.2846C19.9738 38.2904 19.9526 38.2906 19.9328 38.2853C17.1228 37.5061 14.4801 36.3021 12.1173 34.7249C12.106 34.7169 12.0965 34.7069 12.0895 34.6956C12.0825 34.6843 12.0781 34.6718 12.0766 34.6589C11.5313 29.396 12.6429 24.067 16.7006 18.6038C16.7105 18.5893 16.7251 18.578 16.7425 18.5713C18.7715 17.7312 20.9132 17.1326 23.1135 16.7905C23.1335 16.7877 23.1539 16.7903 23.1722 16.7981C23.1904 16.8059 23.2057 16.8185 23.2159 16.8342C23.5142 17.31 23.7832 17.8002 24.0216 18.3027C26.3931 17.9782 28.8055 17.9782 31.1771 18.3027C31.4139 17.8015 31.6786 17.3114 31.9702 16.8342C31.98 16.8181 31.9952 16.8053 32.0135 16.7974C32.0319 16.7896 32.0526 16.7872 32.0726 16.7905C34.2727 17.1333 36.4142 17.7319 38.4435 18.5713ZM19.5936 28.6113C19.5936 30.1784 20.8643 31.4543 22.4065 31.4543C23.9732 31.4543 25.2193 30.1784 25.2193 28.6112C25.244 27.0554 23.9856 25.7683 22.4065 25.7683C20.8397 25.7683 19.5936 27.0443 19.5936 28.6113ZM29.9938 28.6113C29.9938 30.1784 31.2645 31.4543 32.8066 31.4543C34.3858 31.4543 35.6195 30.1784 35.6195 28.6112C35.6441 27.0554 34.3858 25.7683 32.8066 25.7683C31.2398 25.7683 29.9938 27.0443 29.9938 28.6113Z" fill="#BFB2A7"/>
</svg>
