<svg width="55" height="55" viewBox="0 0 55 55" fill="none" xmlns="http://www.w3.org/2000/svg"><rect x=".535" y=".601" width="53.877" height="53.877" rx="10" fill="#A38E7F"/><path d="M26.693 23.086c-7.727-.06-12.325-4.502-13.658-6.716-1.69 4.467.503 7.647 1.811 8.678l-3.245-.604c.483 3.08 3.673 5.76 5.207 6.716l-2.792.151c1.268 2.536 4.1 4.125 5.358 4.603-.78.403-2.52 1.268-3.245 1.51-.725.24-3.522.905-4.83 1.207 4.528 1.962 8.904 2.49 13.659 1.81 4.754-.678 10.111-3.998 12.148-8.073 1.63-3.26 2.139-8.3 2.189-10.414.503-.1 1.66-.377 2.264-.679.603-.302 1.66-1.534 2.113-2.113L40.2 18.86l2.566-3.169-4.83.906-2.112-1.132c-1.333-.403-4.573-.755-6.867 1.056-2.294 1.811-2.465 5.131-2.264 6.565z" fill="#BFB2A7"/></svg>