<svg width="55" height="55" viewBox="0 0 55 55" fill="none" xmlns="http://www.w3.org/2000/svg"><rect x=".658" y=".601" width="53.877" height="53.877" rx="10" fill="#A38E7F"/><path fill-rule="evenodd" clip-rule="evenodd" d="M38.444 18.571a.077.077 0 01.04.034c3.535 4.685 5.28 9.97 4.628 16.055a.083.083 0 01-.013.036.096.096 0 01-.028.029 27.055 27.055 0 01-7.828 3.56.11.11 0 01-.061 0 .1.1 0 01-.049-.033 18.561 18.561 0 01-1.598-2.343.08.08 0 01-.004-.073.088.088 0 01.023-.032.1.1 0 01.035-.02 16.878 16.878 0 002.442-1.048.097.097 0 00.035-.031.083.083 0 00.005-.085.094.094 0 00-.031-.034 10.83 10.83 0 01-.486-.344.105.105 0 00-.102-.011c-5.062 2.108-10.608 2.108-15.73 0a.107.107 0 00-.101.012c-.157.117-.321.232-.485.343a.093.093 0 00-.03.034.082.082 0 00.005.085c.009.013.02.023.035.03a17.98 17.98 0 002.441 1.05.1.1 0 01.035.02.09.09 0 01.023.03.081.081 0 01-.003.074 16.48 16.48 0 01-1.6 2.344.102.102 0 01-.049.032.112.112 0 01-.06 0 27.14 27.14 0 01-7.816-3.56.102.102 0 01-.028-.03.09.09 0 01-.012-.036c-.546-5.263.566-10.592 4.624-16.055a.09.09 0 01.041-.033 27.844 27.844 0 016.371-1.78.11.11 0 01.06.007.1.1 0 01.043.036c.298.476.567.966.806 1.469a26.42 26.42 0 017.155 0c.237-.502.502-.992.793-1.469a.094.094 0 01.044-.037.107.107 0 01.059-.006c2.2.342 4.341.94 6.37 1.78zm-18.85 10.04c0 1.567 1.27 2.843 2.813 2.843 1.566 0 2.812-1.276 2.812-2.843a2.805 2.805 0 00-2.813-2.843c-1.566 0-2.812 1.276-2.812 2.843zm10.4 0c0 1.567 1.27 2.843 2.813 2.843 1.579 0 2.813-1.276 2.813-2.843a2.805 2.805 0 00-2.813-2.843c-1.567 0-2.813 1.276-2.813 2.843z" fill="#BFB2A7"/></svg>