<svg version="1.1" id="Layer_1" xmlns="http://www.w3.org/2000/svg" x="0" y="0" viewBox="0 0 259.3 34.5" xml:space="preserve"><path d="M7.5 27.8h3.9c3.6 0 6.3-.8 7.9-2.5 1.7-1.7 2.5-4.3 2.5-7.9 0-3.6-.8-6.2-2.5-7.9C17.6 7.8 15 7 11.4 7H7.5v20.8zM.6 33.6V1.2h8.8c3.5 0 6.2.2 8.2.7 2 .5 3.8 1.3 5.3 2.4 2 1.5 3.5 3.3 4.5 5.5s1.5 4.8 1.5 7.6c0 2.9-.5 5.4-1.6 7.7-1 2.2-2.5 4.1-4.5 5.5-1.5 1.1-3.1 1.8-4.9 2.3-1.8.5-4.5.7-7.9.7H.6zM34.9 1.2h6.9v32.4h-6.9zm28.3 15.3h16.9c0 .2 0 .4.1.6v1c0 4.9-1.4 8.8-4.2 11.8-2.8 3-6.4 4.5-10.8 4.5-5 0-9.2-1.6-12.4-4.8-3.3-3.2-4.9-7.3-4.9-12.2 0-4.9 1.6-9 4.9-12.2C56.1 2 60.2.4 65.2.4c2.6 0 5.1.6 7.3 1.7s4.2 2.8 5.9 5l-4.7 3.5C72.6 9.1 71.3 8 70 7.4c-1.3-.6-2.8-1-4.5-1-3.2 0-5.8 1-7.7 3-1.9 2-2.9 4.7-2.9 8s1 5.9 2.9 7.9 4.4 3 7.5 3c2.3 0 4.1-.5 5.5-1.6 1.4-1.1 2.1-2.5 2.1-4.2v-.4H68l-4.8-5.6zM85.8 1.2h6.9v32.4h-6.9zm26.4 5.9v26.5h-6.9V7.1h-8V1.2h25.8l-2.2 5.9zm26.4-5.9h-7.9l-12.3 32.4h7.4s8.5-26.1 8.7-27.2c.2 1.1 4.5 14.8 4.5 14.8h-6l10.3 12.3h7.9L138.6 1.2zm16 32.4V1.2h6.9v26.5h7.8l5 5.9z" fill="#0f295f"/><path d="M202.5 1.2h6.9v32.4h-6.9zm29.1 26.6h-7.9V1.2h-6.9v32.5h19.7zM246.1 16l11.6-14.8h-8l-10.8 14.7V1.2h-7v17.7l7 8.2V16.6l10.9 17h8.3zm-51.4 3.1c-1.3-1.6-3.4-3-6.1-4.3-.4-.2-.9-.4-1.5-.7-3.3-1.4-5-3-5-4.7 0-1.1.4-2 1.3-2.7.8-.7 1.9-1 3.3-1 1.1 0 2.1.2 2.9.7.8.5 1.5 1.2 1.9 2.1l4.1-3.9c-1.1-1.5-2.4-2.5-3.8-3.2-1.4-.7-3.1-1-5.1-1-3.4 0-6.1.9-8.2 2.6-2.1 1.7-3.2 3.9-3.2 6.6 0 2 .5 3.6 1.6 5s3.1 2.9 5.9 4.3l2.4 1.2c3.1 1.5 4.7 3 4.7 4.6 0 1.3-.5 2.3-1.4 3.1-.9.8-2.2 1.2-3.9 1.2-1.3 0-2.6-.3-3.6-1-1.1-.7-1.9-1.6-2.3-2.8l-3.6.1 7.7 9.1c.8.1 1.6.2 2.5.2 3.5 0 6.3-.9 8.4-2.7 2.1-1.8 3.1-4.2 3.1-7.3-.1-2.1-.8-3.9-2.1-5.5z" fill="#1aaee4"/></svg>