<svg width="473" height="342" viewBox="0 0 473 342" fill="none" xmlns="http://www.w3.org/2000/svg"><path d="M266.213 179.78c-.95.5-3.855.959-5.188 1.125.25 1.084.663 3.688.313 5.438-.35 1.75-3.771 4.771-5.438 6.062-.375.709-1.1 2.188-1 2.438.125.312.813 3.312.875 3.75.063.437-.375 2.562-1.375 4.312-.8 1.4-3.333 4.292-4.5 5.563.375.708 1.188 2.162 1.438 2.312.312.188 1.062 1.5 1.312 2.75s-1.75 7.188-1.937 8c-.15.65-2.896 4.104-4.25 5.75l.875.875c.645 1.375 2 4.188 2.25 4.438.312.312.5 1.75.687 2.125.188.375.375 4 .375 6.812 0 2.25-1.875 6.063-2.812 7.688.52.625 1.662 1.987 2.062 2.437.5.563 1 2.5 1.063 2.813.062.312.937 3.625 1.25 5.437.25 1.45-1.48 5.771-2.375 7.75l.625.875 1.937 2c.563.688 1.738 2.363 1.938 3.563.2 1.2.416 8.458.5 11.937.75 0 2.337.038 2.687.188.438.187 1.438.562 1.813.687s1.75 1.875 2.312 3.563c.563 1.687 1.25 11.687 1.5 11.937.2.2 1.333-.416 1.875-.75 1.813.5 5.6 1.45 6.25 1.25.813-.25 2.375 1.375 3.563 2.438 1.187 1.062 4.5 8.562 4.812 8.437.313-.125 1.625-1.125 2.063-1.25.437-.125 2.25-.437 3.125-.562.875-.125 2.125.187 2.875.375.75.187 2.375 1.187 3.875 2.375 1.2.95 2.333 5.771 2.75 8.062.333-.229 1.137-.712 1.687-.812.688-.125 2.5-1.063 3.25-1.438s5-.062 8.5.688 6.688 7.062 7 6.937c.313-.125 1.875-1.875 2.188-2.125.312-.25 2-1.25 2.562-1.375.563-.125 4.813.125 6.563.75s9.187 5 9.5 4.938c.312-.063 1.187-1.688 1.687-1.938s1.875-1.812 2.75-2c.875-.187 6.688 0 9.25.313 2.05.25 4.271 2.437 5.125 3.5.271-.479.85-1.5 1-1.75.188-.313 2.25-4 2.625-4.375s2.5-.875 4.688-.563c1.75.25 7.104 3.188 9.562 4.625l.813-2.312c.541-1.313 1.65-4.05 1.75-4.5.125-.563 3.75-2.5 6.812-3.063 2.45-.45 5.979.396 7.438.875-.084-.416-.275-1.337-.375-1.687-.125-.438.75-4.125 1.812-5.938 1.063-1.812 4.813-2.687 7.438-2.937 2.1-.2 4.958.25 6.125.5.291-1.709.9-5.188 1-5.438.125-.312 3.125-3.437 5.625-4.5 2-.85 5.458-.146 6.937.313a97.23 97.23 0 00-.25-2.438c-.062-.437 1-5.875 2.875-8.625 1.5-2.2 4.667-2.958 6.063-3.062l-.188-1.063c-.354-1.021-1.062-3.125-1.062-3.375 0-.312.125-4.687 1.437-6.562 1.05-1.5 4.979-4.625 6.813-6-.5-1.021-1.55-3.125-1.75-3.375-.25-.313-1-3.188.125-8.563.9-4.3 3.666-6.375 4.937-6.875-.042-.208-.225-.687-.625-.937-.5-.313-2.125-3.75-2.437-6.563-.313-2.812 1.75-7.125 2.312-7.75.45-.5 1.604-1.875 2.125-2.5-.271-.208-.875-.65-1.125-.75-.312-.125-3.687-3.312-3.875-6.437-.15-2.5.938-6.042 1.5-7.5-.625-.438-2.125-1.5-3.125-2.25s-2.208-5.563-2.687-7.875l.375-3.688.437-1.812c-1.167-1.125-3.825-3.913-5.125-6.063-1.3-2.15-.25-7.229.438-9.5-1.105-.271-3.375-.85-3.625-1-.313-.187-5-2.125-7.25-3.875-1.8-1.4-4.209-6.833-5.188-9.375-1.667.271-5.075.8-5.375.75-.375-.062-5.375-1.687-6.25-2.187-.875-.5-3.5-2.813-4.5-5.125-.8-1.85-1.458-4.063-1.687-4.938-1.542.104-4.7.325-5 .375-.375.063-3.75-.812-7.063-1.812-2.65-.8-5.146-4.584-6.062-6.375-.834.375-2.6 1.175-3 1.375-.5.25-2.75.937-6.188.562-2.75-.3-7.062-4.791-8.875-7-1.187.729-3.612 2.238-3.812 2.438-.25.25-3 .625-5.875.75-2.3.1-7.25-2.667-9.438-4.063-1.104 1.292-3.375 3.913-3.625 4.063-.312.187-1.625 1.437-3.937 1.937-1.85.4-6.48-2.333-8.563-3.75-.417.709-1.425 2.338-2.125 3.188-.875 1.062-4.875 2.312-7.5 2.375-2.1.05-5.667-1.271-7.187-1.938-.313 1.354-1.138 4.388-1.938 5.688-1 1.625-5.625 2.687-7.062 3-1.15.25-4.896-.438-6.625-.813l-.063 2.188c-.396 1.062-1.312 3.4-1.812 4.25-.625 1.062-4.625 2.437-6.25 2.75-1.3.25-4.792.229-6.375.187.083.584.25 1.813.25 2.063 0 .312-1 4.25-1.625 5.125s-3.813 2.437-5 3.062z" fill="#DAD5D1"/><path d="M255.775 192.28c1.612-.248 3.461-1.769 4.25-3.167 1.177-2.084 1.704-6.402.556-8.583-.397-.753-.618-.492.25-.306 1.969.422 3.615-.357 5.472-.694 3.002-.546 6.472-3.89 6.472-7.111 0-.686-.589-3.991.139-3.528 1.205.767 3.425.67 4.806.639 1.63-.036 4.101-.754 5.555-1.5 1.556-.799 2.72-2.488 3.25-4.111.199-.608.333-4.09.75-4.139 1.182-.139 1.503.337 2.639.75 2.861 1.04 6.533.296 9.056-1.195 2.178-1.287 2.404-2.588 3.055-5 .05-.183.801-3.527.875-3.527.234 0 1.081 1.153 1.375 1.333.674.412 1.483.899 2.236 1.125 1.738.521 2.872 1.014 4.75 1.014 4.252 0 6.214-2.3 7.903-5.889.584-1.242.755-.042 1.361.833.906 1.309 3.073 1.513 4.375 2.306 3.934 2.394 6.628-.475 9.625-2.806 1.029-.8 1.43-1.682 1.5-2.944.056-1.008 1.279 1.418 1.556 1.694 1.113 1.114 3.072 1.753 4.5 2.361 2.585 1.102 4.919.996 7.569.056 2.049-.727 2.919-2.096 4.5-3.361.195-.156 2.797 3.671 3.32 4.194 1.771 1.772 4.658 2.724 7.111 3 2.237.252 6.038-.045 7.805-1.694 1.195-1.116 1.139-.929 1.139.597 0 2.7 2.677 4.25 4.778 5.417 3.051 1.695 5.28 3.091 8.93 2.611 1.108-.146 2.084-.437 3.153-.736.827-.232 1.371-.66 1.389.416.049 2.933.158 5.684 2.556 7.695 2.186 1.834 5.45 3.189 8.194 3.875 2.104.526 4.133.399 6.111-.5.913-.415.612 1.079.667 1.625.174 1.745 1.022 3.5 1.972 4.944 1.896 2.88 4.294 4.925 7.5 6.25.478.198 5.934 1.371 5.833 1.723-.581 2.034-1.76 3.445-1.222 5.694.685 2.86 1.907 6.228 4.278 8.125.706.565 1.458 1.139 2.222 1.625.67.426-.493 1.483-.708 2.028-.938 2.382-.459 5.527.347 7.861.531 1.537 1.571 3.758 3.195 4.444.475.201.916.458 1.305.806.7.626-.056 1.15-.486 1.875-1.122 1.893-1.13 3.872-1 6.014.18 2.962 1.375 4.245 3.458 6.097.75.667 2.97 1.204 1.889 2.028-2.05 1.562-3.855 3.225-4.305 5.93-.471 2.825-.153 5.724 1.139 8.306.426.852.864 1.518 1.805 1.805.25.077 1.486.466 1.195.57-2.817 1.006-4.273 2.566-5.195 5.528-.538 1.729-.848 3.546-1.125 5.333-.216 1.39-.631 2.839-.125 4.208.508 1.374.942 2.748 2 3.806.651.651-.12.536-.75.75-1.323.449-2.19 1.359-3.167 2.305-1.618 1.567-3.842 2.965-4.527 5.25-.453 1.509-.175 3.676.444 5.07.279.627.568 1.26.875 1.875.421.841 1.639 1.704.097 1.972-1.827.318-3.627.894-4.861 2.361-2.621 3.117-4.405 7.226-3.361 11.403.212.848-.513.35-1.028.139-.822-.337-1.81-.531-2.694-.611-1.502-.137-2.706.346-4.153.472-3.194.278-5.805 4.424-5.875 7.569-.006.289.422 2.912.389 2.945-1.032 1.032-1.793.079-2.694-.445-1.497-.87-4.229-.831-5.806-.305-1.764.588-4.772 1.849-5.764 3.528-1.129 1.91-1.574 3.344-.986 5.527.198.737.643 2.961.333 2.264-.239-.538-.675-1.244-1.097-1.666-.727-.727-3.467-.653-4.486-.653-1.75 0-2.994-.192-4.694.194-1.345.306-3.049 1.242-3.945 2.361-1.425 1.782-2.75 4.976-2.75 7.278 0 .524-3.732-1.561-4.375-1.833-2.302-.977-4.325-2.207-6.875-2.445-1.764-.164-4.089.51-5 2.195-.701 1.298-1.227 2.827-2 4.055-.944 1.5-1.222-.563-1.805-1.555-.64-1.088-3.481-1.531-4.542-1.736-2.135-.414-3.945-1.161-6.111-.403-1.528.535-2.996.793-4.236 1.944-.81.752-1.361 1.535-1.75 2.584-.079.213-.413 2.196-.611 1.5-.763-2.669-1.894-3.557-4.431-4.625-2.951-1.243-6.304-2.372-9.514-2.5-1.768-.071-2.75.302-4.222 1.222-.918.574-1.374 1.573-2.278 2.125-.164.1-1.214.794-1.25.694-.393-1.08-.524-2.294-.861-3.402-.432-1.419-1.505-2.096-2.694-2.903-1.926-1.307-4.212-2.207-6.584-2.25-1.13-.021-2.187.25-3.25.25-1.152 0-2.119.699-3.125 1.139-.289.126-2.217 1.335-2.43 1.25-.436-.174-.435-2.875-.5-3.334-.151-1.055-.624-1.726-1.111-2.666-.694-1.338-1.519-2.021-2.584-3.028-.553-.524-1.283-.643-1.861-1.111-.471-.381-1.653-.419-2.25-.556-.972-.222-2.372-.403-3.375-.18-.944.21-1.977.496-2.75 1.097-.396.308-.923.491-1.347.764-.992.638-.841-.622-1.028-1.597-.465-2.431-1.259-3.904-2.5-5.973-1.278-2.13-3.406-2.687-5.653-3.194-2.172-.491-4.231-.861-6.458-.861-.481 0-1.294.408-1-.264.434-.993.611-1.945.611-3.028 0-4.398.212-9.146-3.611-12.014-1.416-1.062-2.376-.93-3.889-.25-1.166.525-1.545.116-1.375-.972.754-4.822 1.832-10.733-1.18-14.972-.917-1.29-1.926-1.761-3.389-2.195-.071-.02-1.006-.074-.695-.25.659-.37 1.042-.661 1.445-1.361 2.41-4.196 3.553-11.085-.195-14.833-.575-.575-1.225-1.523-1.986-1.861-.147-.066-.902-.343-.694-.528 2.055-1.827 2.592-4.097 2.875-6.778.277-2.632.776-5.226.194-7.861-.475-2.15-1.754-5.68-3.875-6.694-.169-.081-1.497-.564-1.069-.778 1.078-.539 1.824-1.13 2.555-2.125 2.075-2.822 3.321-6.463 4.236-9.819.582-2.135-.744-4.814-2.222-6.292-.322-.323-.632-.683-.986-.972-.055-.046-.307-.139-.236-.167.659-.264 1.287-.756 1.847-1.181 3.159-2.39 5-5.758 5-9.666 0-1.029-.775-1.814-.986-2.764-.04-.179-.343-.799-.125-.861.365-.104.689-.359.861-.014" stroke="#6B553B" stroke-width="3" stroke-linecap="round"/><path d="M273.525 201.031c-.989 1.285-1.432 3.464-1.889 5.041-.486 1.679-1.328 3.163-1.861 4.82-1.089 3.389-1.571 7.043-2.861 10.361-1.293 3.325-1.689 6.967-2.083 10.472-.157 1.397-.528 2.919-.528 4.319 0 1.926.334 3.908.458 5.834.099 1.531.239 3.063.264 4.597.026 1.59.611 3.103.736 4.667.227 2.828 1.502 5.6 2.07 8.389.939 4.609 3.198 8.675 4.944 12.944.75 1.833 1.75 3.603 2.75 5.25 1.056 1.74 1.908 3.508 2.889 5.292.983 1.786 2.797 3.035 4.167 4.458 1.311 1.362 2.623 2.751 3.833 4.181 5.085 6.01 11.826 10.982 18.861 14.5 3.632 1.815 7.563 2.918 11.5 3.93 1.955.503 3.916.894 5.875 1.32 1.887.41 3.683 1.071 5.625 1.125 4.002.111 7.977 1 12 1 4.018 0 8.261.331 12.25-.556 1.953-.434 4.026-.323 6-.75 2.402-.519 4.58-1.286 6.889-2.056 4.394-1.464 8.368-3.61 12.597-5.513 3.63-1.634 7.192-3.803 10.014-6.625 3.275-3.276 7.475-5.861 9.875-9.862 2.041-3.401 3.606-7.1 5.375-10.638.944-1.887 2.413-3.69 3.125-5.667 1.164-3.234 2.471-6.479 4.07-9.528 2.983-5.689 5.055-12.339 5.055-18.805 0-5.598.681-11.106-.861-16.612-1.256-4.484-1.09-9.726-3.639-13.833-1.436-2.314-2.992-5.022-5.25-6.653-1.343-.97-2.432-2.248-3.555-3.458-1.128-1.214-1.653-2.982-2.598-4.347-1.515-2.189-2.579-4.592-4.097-6.792-2.439-3.536-4.985-6.891-8.305-9.667-2.526-2.111-5.191-3.984-8-5.694-2.414-1.469-5.11-2.441-7.473-3.944-2.618-1.667-5.665-2.975-8.527-4.195-3.055-1.302-6.029-2.04-9.195-2.93-3.403-.958-7.283-1.125-10.805-1.125-3.152 0-6.317-.141-9.445.25-7.097.887-14.138 1.898-21.014 3.888-5.818 1.685-11.48 4.016-16.18 7.862-3.645 2.982-6.297 6.991-9.611 10.305-1.533 1.533-3.311 3.349-4.584 5.083-.995 1.358-2.04 3.106-3.416 4.112-2.611 1.907-3.525 5.125-5.195 7.75" stroke="#6B553B" stroke-width="3" stroke-linecap="round"/><path d="M293.525 180.78c-2.223-2.54 5.26 4.28 7.5 6.806 2.187 2.465 4.342 4.902 6.445 7.444 1.442 1.744 2.825 3.657 4.361 5.306 1.349 1.45 4.83 6.216 3.944 4.444m-6-33.749c.273-.273 1.562 4.211 1.639 4.527.538 2.224 1.097 4.508 1.861 6.667 1.071 3.024 1.998 6.057 3.25 9 .836 1.964 1.991 3.786 2.945 5.694.407.815.783 1.629 1.305 2.375.325.464 1.001 2.243.75.737m36.75 75.749c1.046 2.3 2.892 4.287 4.125 6.514 1.14 2.059 2.312 4.138 3.375 6.236 1.504 2.969 2.037 6.478 3.75 9.334.966 1.61 1.31 3.38 1.806 5.166.132.478 1.09 3.605 1.444 3.25m-7-34.25c1.869.801 3.184 3.408 4.306 5 1.29 1.832 2.557 3.727 4.083 5.375a247.871 247.871 0 006.611 6.875c1.766 1.766 3.79 2.776 5.736 4.236.702.526 2.783 2.736 3.264 2.014m5.5-102c-.354 1.947-2.503 4.158-3.625 5.736-1.508 2.123-3.107 4.308-4.861 6.236a136.013 136.013 0 01-8.889 8.889c-1.977 1.806-4.055 4.314-6.375 5.639-.761.435-1.849 1.164-2.5 1.75-.279.251-1.916 1.416-1 .5m1.25 6c.702-.07 1.404-.498 2.056-.75.998-.385 2.063-.258 3.083-.625 2.19-.788 4.32-2.208 6.611-2.625 2.078-.378 3.936-1.566 6-2.055 2.355-.558 4.361-1.671 6.639-2.445 1.865-.633 3.793-.989 5.722-1.375 1.913-.382 3.917-1.375 5.875-1.375 1.179 0 2.326.25 3.459.25.432 0 2.211.406 2.055.25m-136.75 55.5c2.646 0 4.678-.202 7.195-.944 2.436-.718 4.918-2.112 7.194-3.25 1.881-.94 3.723-1.886 5.611-2.806 1.096-.534 2.273-.771 3.361-1.305 2.201-1.08 4.226-2.558 6.389-3.639.76-.38 2.467-.706 2.75-1.556m-20.75 31.5c3.276-5.838 8.838-10.087 13.5-14.75 1.722-1.721 3.332-3.508 5.361-4.861.73-.486 3.169-1.202 2.139-1.889m20.25 9.25c-1.751 7.201-2.954 14.305-5.5 21.306-1.022 2.811-1.869 5.675-3.097 8.403-.263.585-1.567 2.997-.403 1.541m16.5-30c.926.232.233 10.482.264 11.597.117 4.147.335 8.443.986 12.542.447 2.814 1.503 5.635 2.375 8.347.147.458 1.375 3.95 1.375 2.514m38.25-63.75c8.99 0 17.727-2.423 26.389-4.639 2.473-.632 4.855-1.498 7.361-2.055.622-.138 3.045.012 2.5-.806m-30 16c1.565 0 3.103.436 4.653.625 2.012.246 4.025.073 5.972.764 1.979.702 4.085 1.908 6.125 2.361 1.704.379 3.252 1.306 5 1.5.999.111 2.571 1.591.5-.25m-60.25-99.25c1.016 4.674 1.5 9.456 1.5 14.236 0 4.188.438 8.432.056 12.598-.282 3.062-1.056 12.242-1.056 9.166m24.75-29.75c-4.263 5.95-9.123 11.353-11.805 18.25-.791 2.033-1.808 4.103-2.306 6.236-.16.685-.365 4.151-.639 4.014m-87.25 12c1.017-.847 6.712 4.758 7.5 5.445 2.658 2.316 5.696 3.585 8.903 4.93a111.903 111.903 0 007.986 3.014c.627.209 6.611 1.436 6.611 1.111m-35.75 8.251c3.923-1.706 8.522-1.185 12.695-1.25 3.205-.05 6.355-.308 9.569.014 2.446.244 4.801.919 7.222 1.222.771.096 1.502.391 2.264.5.459.065 1.711.724 1 .014m-266-91.501c-2.508 1.792-4.062 6.1-4.806 9-1.207 4.71-2.365 9.439-2.68 14.32-.27 4.191-.764 8.318-.764 12.542 0 3.771 2.125 7.196 3.806 10.388 2.172 4.128 5.005 7.937 8.25 11.306 3.75 3.895 8.451 6.37 13.569 7.944 3.014.928 5.812 2.657 8.875 3.445 2.298.591 4.612 1.805 7.014 1.805 5.495 0 12.062.96 17.25-1.375 3.625-1.631 6.555-3.993 9.847-5.875 2.95-1.685 6.509-2.619 9.014-5.125 1.786-1.786 2.945-3.883 4.125-6.111 1.108-2.092 2.825-4.172 3.5-6.458 1.446-4.9 3.863-9.634 4.875-14.694 1.008-5.043.375-10.457-.681-15.417-.536-2.52-1.283-5.138-2.083-7.583-.61-1.865-1.285-3.965-2.361-5.612-2.173-3.322-4.258-6.894-7.625-9.236-4.881-3.395-10.623-5.512-15.875-8.139-5.862-2.93-13.171-3.043-19.5-2.069-2.77.426-5.584.933-8.25 1.694-3.192.912-6.044 2.965-9.194 4.056-1.503.52-3.292 1.159-4.667 1.944-.805.46-1.527 1.288-2.264 1.862-.625.486-1.495.735-2.07 1.194-2.242 1.794-5.814 3.47-6.805 6.444" stroke="#6B553B" stroke-width="3" stroke-linecap="round"/><path d="M32.525 145.03c3.102 4.562 10.046 10.131 15.694 6.5 1.897-1.219 2.724-2.205 3.445-4.264.605-1.727.36-3.669.36-5.486 0-2.8-1.329-6.83-3.25-8.75m-23.749 38.75c2.778-.069 5.47-.5 8.25-.5 1.356 0 3.908-.051 5.125.625 2.737 1.521 5.303 3.268 5.82 6.625.753 4.901-2.7 8.136-6.167 10.972-1.551 1.269-3.299 2.114-5.14 2.903-.645.277-1.255.67-1.888.986-.14.07-1.325.389-1 .389m52.5-63c-.63 1.033-1.352 1.981-2 3-.724 1.138-.919 2.6-1.25 3.889-.566 2.2-.75 4.076-.75 6.347 0 3.117 2.427 6.43 5.555 7.07 2.123.434 4.04.981 6.25.944 2.379-.039 4.714-.835 6.931-1.611 3.667-1.283 5.959-4.807 8.014-7.889m-52 69c1.311-2.623 1.876-5.425 3.528-7.903 1.404-2.106 2.404-3.728 4.472-5.222 2.93-2.115 5.394-2.506 8.944-1.68 1.787.415 3.378 1.532 4.792 2.68 1.65 1.341 2.195 3.966 3.264 5.722 1.395 2.293 3.026 10.285 2.5 7.653m31.75-39.75c-3.597-.163-7.521-.979-11.111-.125-1.647.392-3.551.421-4.89 1.625-2.531 2.279-5.412 4.467-5.5 8.306-.021.966-.219 1.746-.055 2.694.235 1.358.83 2.299 1.43 3.5.954 1.906 2.085 2.959 3.57 4.445 1.453 1.452 3.359 3.159 5.306 3.916.581.226 1.347.221 1.875.514 1.07.595.925.127.625-.875" stroke="#6B553B" stroke-width="3" stroke-linecap="round"/><path d="M11.025 138.03c1.847.639 3.3 1.475 5.139.25 1.41-.94 2.616-3.157 2.347-4.903-.138-.9-2.189-4.514-1.43-4.847 2.243-.985 4.607-2.434 6.166-4.347.304-.373 1.007-1.574 1.583-1.098.575.476 1.147.954 1.709 1.445 1.167 1.021 3.174 1.475 4.68 1.5 1.975.032 3.553.155 4.792-1.625.356-.512 1.092-1.122 1.208-1.736.2-1.063.186-2.517 0-3.584-.188-1.08-2.241-3.333-.528-3.333 1.797 0 4.155-1.336 5.778-2.028.524-.223 3.405-2.039 3.93-1.514.735.735 1.379 2.296 2 3.195.92 1.328 1.925 2.272 3.431 2.875 1.788.715 3.266.519 5.056-.125 2.481-.893 2.889-2.705 2.889-5.181 0-1.087.16-2.897-.306-3.944-.575-1.293.197-1.163 1.306-1.264 2.247-.204 4.63-1.383 6.805-1.986.812-.225 1.792-.278 2.556-.625.516-.234.139 1.022.139 1.375 0 6.152 6.15 12.662 12.305 8.194 1.747-1.268 2.942-3.08 4.39-4.639.795-.856 2.125.151 3.069.584 2.285 1.047 4.335 2.448 6.791 3.111.705.19 1.634.132 2.278.5.166.095-.286.467-.333.528-.286.367-.45.795-.625 1.222-.553 1.351-.782 2.346-.236 3.75.296.761.899 2.431 1.61 2.805.64.337 1.141.885 1.806 1.181 1.555.691 3.503.606 5.153.389 2.098-.276 3.981-.947 5.986-1.57 1.235-.383 1.527-.474 1.75.889.392 2.389 1.833 4.322 4.125 5.167.209.077-1.719 1.719-2.125 2.25-.811 1.061-1.444 2.779-1.444 4.125 0 3.098 2.419 4.973 5.194 6.014 1.715.643 3.494.5 5.292.5 1.894 0 1.123 2.105 1.764 3.5.536 1.166 1.815 2.016.305 2.555-.96.343-2.387 1.195-3.055 1.959-1.54 1.759-3.164 5.73-1.361 7.861 1.453 1.717 4.033 3.58 6.361 3.625 1.446.028 2.75-.591 2.75 1.139 0 1.386.115 2.842.75 4.111.669 1.338.711 1.18-.75 1.555-1.576.406-2.406 1.485-3.75 2.306-2.074 1.267-2.894 4.385-2.25 6.639.678 2.372 3.612 3.5 5.805 3.5 1.553 0 .714 1.598.306 2.764-.354 1.012-.159 4.06-.917 4.68-.468.384-2.551.205-3.194.361-1.046.255-2.288.375-3.125 1.084-.946.8-2.22 1.604-2.57 2.861-.471 1.698-.483 3.138-.319 4.861.101 1.063.654 1.948 1.125 2.889.413.826-.415 1.001-.861 1.5-.674.753-1.462 2.074-1.861 2.986-.165.376-.583 2.017-.639 2.014-.956-.053-1.813-.713-2.806-.75-1.079-.04-2.12-.25-3.194-.25-1.299 0-1.852-.009-2.806.944-1.145 1.145-1.785 3.208-1.93 4.806-.181 1.992.451 4.157.194 6.083-.042.315-1.066.92-1.319 1.167-.724.703-1.577 1.346-2.389 1.944-.569.419-1.181.794-1.764 1.195-.763.524-1.104 1.397-1.75.347-.715-1.162-1.507-1.864-2.792-2.292-1.627-.542-3.268-1.295-4.958-.555-2.697 1.18-4.434 4.743-4.722 7.625-.097.969.402 2.167-.542 2.639-1.287.643-2.118.843-3.472 1.152-1.355.31-2.66.341-4 .82-.476.17-1.928-3.03-2.556-3.681-.863-.895-2.027-1.369-2.944-2.194-.992-.893-2.544-.752-3.736-1.125-1.26-.394-3.558.498-4.39 1.514-.834 1.02-1.124 2.057-1.124 3.347 0 1.058-.354.951-1.056.708-1.743-.603-3.848-.69-5.639-.139-.224.07-1.866.813-2 .639-.725-.942-.128-2.81-.819-3.847-1.77-2.655-3.391-4.242-6.597-5.097-2.4-.64-5.032-.184-7.14 1.055-1.484.874-.673 4.195-2.5 4.195-1.748 0-2.344-.939-3.888-1.5-1.121-.408-2.193-.885-3.361-1.195-.77-.203 0-4.156 0-5.194 0-2.29-.947-5.236-3.361-6.167-1.596-.615-3.454-.694-5.153-.694-.952 0-3.128-.068-3.93.555-.216.168-.887-2.447-1.056-2.805-.501-1.061-1.137-1.959-1.875-2.861-.534-.653-1.022-1.286-1.625-1.889-.869-.869.936-1.855 1.25-2.875.396-1.288.737-2.396.986-3.764.26-1.429-.619-3.244-1.597-4.222-1.238-1.238-2.455-2.574-4.264-2.889-1.064-.185-1.412.196-2.375.25-.697.039-1.268-.014-1.945.194-1.084.334-1.083-3.56-1.444-4.333-.396-.848-1.5-3.017-.556-3.611 1.349-.849 2.365-1.8 3.431-3 2.478-2.787 2.509-6.605.264-9.445-.97-1.226-2.591-1.692-4.125-1.791-.402-.026-.806-.014-1.208-.014-.186 0-.556.185-.556 0 0-.022.383-.501.389-.861.032-2.123.453-4.226.5-6.334.039-1.738.635-1.415 2-1.805 2.644-.755 4.47-3.585 4.736-6.236.372-3.719-2.75-4.76-5.486-6.209-.087-.046 1.805-3.785 2.014-4.333.511-1.343 1.042-2.652 1.375-4.055.176-.745.445-1.196-.14-.417M317.025 2.28c1.413 0 2.773-.25 4.195-.25.753 0 2.117-.25 2.805.056.661.293 1.961.416 2.695.444.993.038 1.917.25 2.93.25 3.068 0 6.184 1.087 9.125 1.25 4.778.265 5.273 7.357 6.125 10.764.407 1.626.221 3.572.389 5.25.091.905.243 1.847.431 2.736.206.981-.066 2.002.18 2.986.436 1.745-.133 3.629.25 5.389.451 2.075.125 4.503.125 6.625 0 1.718.461 3.378.5 5.056.043 1.85 0 3.705 0 5.555 0 3.823.5 7.646.5 11.5 0 11.68 1 23.394 1 35.083 0 6.528.5 12.993.5 19.5 0 3.932.5 7.893.5 11.792 0 2.429.25 4.824.25 7.278v3.875c0 .554.216 3.06-.25 2.361" stroke="#6B553B" stroke-width="3" stroke-linecap="round"/><mask id="mask0_3425_30179" style="mask-type:alpha" maskUnits="userSpaceOnUse" x="40" y="85" width="296" height="242"><path d="M79.94 105.806l-3.058 9.389 10.918 1.31 31.225 8.297L271 148.385l40.832 3.93 5.895-2.62 18.124-34.719L86.927 85.28l-2.62 4.804-4.368 15.722zM64.218 227.647l-17.687-3.057-6.332 26.858 75.769 13.101 119.877 62.231 36.246-7.424 3.276-12.446-8.953-4.149-19.215-12.009-14.63-11.136-115.509-40.177-52.842-11.792z" fill="#D9D9D9"/></mask><g mask="url(#mask0_3425_30179)" stroke="#6B553B" stroke-width="3" stroke-linecap="round"><path d="M41.809 223.893c.507.34 1.194.419 1.779.561m9.24 5.196c1.494.07 2.73.854 4.017 1.537m7.185 3.555c1.383.413 2.696.961 4.017 1.537m7.139 2.684c1.42.521 2.955.79 4.43 1.077m5.809 2.316c1.796.713 3.818.706 4.935 2.363m10.697 3.807c1.332.581 2.626 1.154 4.017 1.537m11.157 4.22c2.407.192 4.495 1.368 6.68 2.271m11.592 4.197c2.385.381 4.797 1.54 7.116 2.247m9.366 3.44c2.152.281 4.149.725 6.198 1.421m7.185 3.556c1.739.032 3.227.565 4.866 1.054m7.14 2.683c1.624.505 3.2.755 4.866 1.055m7.162 3.12c2.109.343 4.121 1.119 6.198 1.421m6.267 2.73l3.994 1.1m6.29 3.166c1.472.481 2.894.904 4.43 1.078m6.267 2.729c1.728.844 3.515 1.398 5.349 1.903m5.831 2.753c1.821.163 3.596.921 5.325 1.467m6.703 2.707c1.794.61 3.579 1.227 5.348 1.903m4.913 1.927c1.428.881 3.349.819 4.89 1.49m6.679 2.271c1.317.906 2.936 1.133 4.454 1.513M83.411 111.825c1.34-.006 2.586.221 3.948.078m7.806 1.644c1.131.007 1.74.802 3.025.667m6.729.77c1.51.919 3.099.246 4.537 1.002m5.948.362c1.484-.156 2.95-.063 4.435.027m6.05 1.334c1.77.173 3.379.332 5.024.95m6.639 2.257c1.595-.11 2.969.179 4.486.514m7.614 2.156c2.088-.138 3.671-.067 5.511.899m7.613 2.156c1.76-.185 3.287.09 4.974.463m7.613 2.156c1.756-.087 3.008.198 4.537 1.001m6.486.797c1.566.936 3.782.595 5.511.899m9.024 1.515c1.982-.066 3.975.201 5.947.36m6.486.798c1.105 1.024 4.403.249 5.999.848m5.024.95c1.659.161 3.312.362 4.973.463m5.025.949c1.631-.126 3.006-.042 4.486.514m5.024.95c1.01.128 1.964.16 2.974.18m7.46.695c1.353-.09 2.272.342 3.512.616m4.486.515c1.521-.043 2.995.27 4.486.514m6.05 1.333c1.696.128 3.349.105 4.973.463m7.024 1.233c1.912.177 3.701.338 5.512.898m6.485.798c1.494-.032 3.013.306 4.486.514m6.05 1.334c1.828-.191 3.578-.126 5.41-.075m7.947.644c1.622.473 3.366.636 5.024.95m6.049 1.336c1.788.174 3.662.601 5.461.412"/></g><path d="M322.15 208.53l-8.375 15.75-5.125 22.25c.333 2.209 1.075 7.15 1.375 9.25.375 2.625 6.625 15.875 13.125 17.75s21.125 1.375 30.75-2.25 23.25-12.875 28-18.5c3.8-4.5 15.917-14.708 21.5-19.25 8.833-9.208 27.15-28.5 29.75-32 2.6-3.5 11.667-13.708 15.875-18.375 3.208-4.791 10.275-15.525 12.875-20.125 2.6-4.6 6.917-16.833 8.75-22.375.208-6.708.55-20.725.25-23.125-.375-3-5.75-18-11.875-24.25s-14-8.375-21.25-11-15.5-2.625-17.875-2.375-14.75 1.25-17.75 2.625-13.5 6.125-17.125 8.75c-2.9 2.1-9.458 11.458-12.375 15.875-2.417 5.25-7.4 16.1-8 17.5-.6 1.4-9.25 19.916-13.5 29L340.4 176.78l-12.125 21.125-6.125 10.625z" fill="#DAD5D1"/><path d="M381.025 113.03c-1.364 1.679-2.272 3.753-3.056 5.75-.786 2.004-1.868 3.744-2.916 5.611-1.49 2.653-2.612 5.453-4.264 8.014-4.146 6.427-6.605 14.03-10.014 20.847-2.324 4.648-4.532 9.33-6.75 14.028-2.012 4.261-4.225 8.431-6.389 12.639a210.554 210.554 0 01-8.361 14.722c-2.575 4.149-4.606 8.679-7.486 12.639-1.263 1.737-3.154 3.684-3.959 5.695-.23.575-.821 1.009-1.111 1.555-.228.432-.573.731-.833 1.139-.386.606-.411 1.559-.611.361" stroke="#6B553B" stroke-width="3" stroke-linecap="round"/><path d="M307.775 235.53c.254-.032 1.662-4.739 1.764-5.402.213-1.386 1.082-3.203 1.791-4.403.539-.911.767-1.943 1.334-2.834 1.328-2.087 2.209-4.599 3.764-6.5 1.802-2.202 3.663-4.226 5.222-6.625 3.53-5.431 7.051-11.181 9.875-16.986 1.69-3.474 3.769-6.805 5.555-10.25 1.419-2.735 3.278-5.343 4.445-8.194 1.129-2.761 2.647-5.457 3.875-8.195.769-1.715 1.898-3.319 2.43-5.111.574-1.928 1.81-4.093 2.806-5.847 1.957-3.447 3.123-7.421 5.25-10.764 1.456-2.288 1.929-5.224 3.514-7.514 1.86-2.687 2.776-6.512 4.125-9.5 1.296-2.871 2.456-5.698 3.375-8.639 1.375-4.402 4.075-8.021 6.264-12 1.959-3.563 4.444-6.753 6.916-9.986.593-.774 1.502-1.288 2.084-2.028.868-1.105 1.917-2.39 3.055-3.222 1.752-1.28 3.76-2.245 5.556-3.555 1.541-1.125 3.293-1.83 5.014-2.584 1.71-.748 3.362-2.61 5.375-2.61 1.12 0 2.173-.404 3.25-.695 1.001-.27 2.158-.34 3.111-.68 1.482-.53 3.014-.5 4.514-.876 1.021-.255 1.804-.5 2.861-.5.863 0 1.796.384 2.625.195.815-.187 1.547-.195 2.389-.195 1.055 0 2.016-.713 3.055-.75.99-.035 1.927-.25 2.931-.25.803 0 1.61.527 2.43.695 1.309.267 2.974.416 4.181.944.486.213 1.274.804 1.764.861.936.11 1.779.656 2.75.764 1.138.127 2.46.469 3.5.93.98.436 1.986.8 3 1.25 1.088.484 2.777.195 3.694 1.112.381.38 1.451.54 1.945.68.803.23 1.448.517 2.166 1.014 6.316 4.373 12.057 9.711 15.32 16.889.789 1.736 2.375 4.273 2.375 6.222 0 1.465.248 2.729.625 4.153.625 2.364.781 4.791 1.514 7.125.617 1.967-.389 3.939-.389 5.861 0 3.944-.25 7.853-.25 11.806 0 2.682-1.256 5.016-2.097 7.541-.548 1.643-1.279 3.226-1.959 4.848-.591 1.409-.839 2.869-1.333 4.305-1.006 2.926-2.577 5.672-4 8.389-.883 1.686-2.057 3.2-3.056 4.806-.985 1.584-1.793 3.151-3.041 4.555-2.409 2.71-3.914 6.15-6.514 8.75-1.154 1.154-1.962 2.69-2.945 4-1.034 1.379-2.099 2.684-3.18 4.014-5.386 6.628-11.142 12.883-16.847 19.222-7.11 7.9-14.535 15.663-22.028 23.264-6.786 6.885-14.328 12.937-21.195 19.695-.856.843-1.992 1.358-2.805 2.208-1.034 1.081-2.013 2.22-3.028 3.32-1.415 1.532-3.096 2.878-4.819 4.027-2.711 1.807-5.818 2.935-8.542 4.75-1.355.904-3.034 1.037-4.361 1.945-1.358.929-3.038 1.324-4.5 2.055-2.282 1.141-5.208 1.948-7.736 2.264-.743.093-2.161.581-2.889.861-1.202.463-3.075.625-4.375.625-1.314 0-2.624.25-3.972.25-1.713 0-3.34-.467-5.028-.5-2.949-.058-6.489-1.097-9.056-2.555-1.303-.741-2.713-.963-3.819-2.07-1.033-1.033-2.091-2.061-2.931-3.236-3.4-4.76-3.641-11.193-5.5-16.583-.7-2.031-1.129-4.095-1.75-6.111-.305-.992-.275-2.207-.18-3.25.212-2.331.605-4.593.736-6.945" stroke="#6B553B" stroke-width="3" stroke-linecap="round"/><path d="M448.275 169.03c-2.284 3.046-5.109 5.645-7.75 8.361-1.822 1.875-3.325 4.129-5 6.139-1.71 2.052-3.641 3.892-5.528 5.778-7.042 7.043-13.129 14.947-19.555 22.542-4.799 5.67-8.993 11.875-13.931 17.43-2.84 3.196-5.477 6.841-8.986 9.375-1.549 1.119-2.906 2.781-4.264 4.139-1.506 1.506-3.009 2.951-4.542 4.431-2.805 2.708-5.918 5.37-9.139 7.555-1.833 1.244-3.544 2.492-5.361 3.75-.988.684-2.082 1.106-3.069 1.764-.961.641-1.452 1.345-2.625 1.736" stroke="#6B553B" stroke-width="3" stroke-linecap="round"/><path d="M322.525 219.28c-1.364 1.213-2.988 1.911-4.111 3.514-1.625 2.322-2.681 4.68-3.639 7.347-1.812 5.049-1.629 11.376-.611 16.612 1.074 5.522 3.941 10.783 7.861 14.777 1.796 1.83 3.835 2.916 6.25 3.75 2.128.735 4.72 1.706 7 1.75 2.105.041 4.16.25 6.264.25 1.796 0 4.131.388 5.861-.139 3.073-.935 6.022-2.795 8.875-4.222 5.537-2.768 7.712-10.366 9.056-15.889 1.62-6.662 1.059-13.513-1.431-19.875-1.128-2.882-2.99-5.74-5.18-7.93-1.208-1.208-2.545-2.541-4-3.445-1.584-.983-3.523-1.436-5.195-2.25-1.28-.622-3.187-1.5-4.625-1.5-1.352 0-2.783.136-4.125-.014-2.68-.297-5.171-.1-7.75.903-2.055.799-4.1 1.5-6 2.556-1.496.831-3.443 2.386-4 4.055" stroke="#6B553B" stroke-width="3" stroke-linecap="round"/><path fill-rule="evenodd" clip-rule="evenodd" d="M385.775 104.031l-2.25 7c-1.25 2.916-3.8 8.975-4 9.875-.2.9-1.5 8.125-2.125 11.625.292 4.083.9 12.4 1 13 .054.325.79 2.249 1.627 4.436 1.093 2.856 2.357 6.16 2.498 6.939.2 1.1 3.333 5.208 4.875 7.125 3.458 2.5 10.8 7.6 12.5 8 .817.192 3.183.864 5.866 1.625 4.3 1.221 9.412 2.673 10.259 2.75 1.1.1 6.042-.292 8.375-.5 4-1.042 12.375-3.3 13.875-4 1.875-.875 12.375-5.875 13.75-8.125 1.1-1.8 5.292-8.25 7.25-11.25 1.208-2.417 3.625-8.15 3.625-11.75 0-3.6.167-7.667.25-9.25-.458-4.5-1.625-14.125-2.625-16.625s-5.667-9.125-7.875-12.125c-2.708-2-8.4-6.126-9.5-6.626-1.375-.624-8.75-2.874-10.375-3.124-.302-.047-.828-.14-1.494-.26-2.921-.52-8.535-1.523-9.756-1.115-.713.237-3.179.334-5.811.436-2.903.114-6.009.236-7.189.563-.901.25-2.845.922-4.892 1.629-3.064 1.058-6.358 2.196-6.733 2.121-.5-.1-4.125 2.042-5.875 3.125l-5.25 4.501zm11.813 7.187c.958-.208 3.087-.612 3.937-.562 1.063.062 7.063 2.312 7.813 2.937s2.437 3.375 2.812 4c.3.5.958 2.333 1.25 3.187l.313 1.75c1.083-.354 3.325-1.062 3.625-1.062.3 0 3.708.25 5.375.375l1.5.125c.166-1.688.475-5.575.375-7.625-.125-2.563-.625-4.688-.875-5-.2-.25-2.167-3.604-3.125-5.25l-1.438-2.25c-1.917.187-5.975.65-6.875 1-1.125.437-8.875 3.312-9.312 3.375-.438.062-5.125 2.312-5.313 2.625-.15.25-.104 1.687-.062 2.375zm-8.875 20c.791-.708 2.6-2.187 3.5-2.437.683-.19 3.307-.334 5.343-.446 1.315-.072 2.385-.13 2.532-.179.3-.1 3.458.791 5 1.25l1.562 1.687c-.125 1.146-.337 3.538-.187 3.938.187.5 2.562 5.375 2.812 5.687.2.25-1.708 1.188-2.687 1.625-1.375.729-4.263 2.438-4.813 3.438-.263.477-.845 1.485-1.471 2.568l-.001.001c-1.012 1.751-2.138 3.699-2.215 3.931-.1.3-.5 2.208-.688 3.125-.729-.209-2.212-.7-2.312-1-.062-.186-.993-1.682-1.995-3.293-1.026-1.649-2.127-3.419-2.443-4.02-.625-1.187-2.437-6.875-2.437-7.25 0-.3-.25-4.917-.375-7.187l.875-1.438zm44.562-6.25l-2.562 1.75.687 8 2 1.562c.938.771 3.375 2.363 5.625 2.563 2.596.231 7.801-.71 8.882-.906l.181-.032c.3-.05 2.583-.687 3.687-1l.5-3.375c-.125-1.625-.462-5.35-.812-7.25-.35-1.9-2.813-7.958-4-10.75l-3-4.625c-.167.938-.563 3-.813 3.75-.312.938-2.75 4.875-3.562 5.938-.65.85-4.813 3.271-6.813 4.375zm-17.562 21.437c-.167 1.729-.463 5.65-.313 7.5.188 2.313 1.25 6.313 1.438 6.563.15.2 1.187 2.375 1.687 3.437l5.063-.062c3.854-1.459 11.737-4.513 12.437-5.063.7-.55 1.958-1.729 2.5-2.25-1.042-.333-3.225-1.012-3.625-1.062-.5-.063-3.875-2.063-4.75-4.75-.7-2.15-1.375-5.229-1.625-6.5l-.187-1.375c-.959.708-3.075 2.225-3.875 2.625-.8.4-5.167.666-7.25.75l-1.5.187z" fill="#DAD5D1"/><path d="M382.443 111.329c-.525 1.97-1.518 3.882-2.074 5.886-.473 1.7-.602 3.497-.977 5.221-.832 3.829-1.743 7.85-1.83 11.784-.035 1.541 0 3.027 0 4.57 0 1.746.458 3.427.732 5.139.506 3.162 1.629 5.995 2.549 9.018.788 2.589 1.746 5.085 3.065 7.445.607 1.087 1.858 2.214 2.875 2.929 1.162.818 1.656 2.003 2.983 2.685 2.199 1.131 4.13 2.689 6.347 3.797 1.955.978 4.14 1.767 5.966 2.929 2.105 1.34 5.081 1.743 7.513 2.252 2.654.555 5.55 1.03 8.259 1.03 2.496 0 5.14.651 7.607-.054 2.51-.717 5.001-1.672 7.513-2.333 2.581-.679 4.935-2.21 7.58-2.739 2.712-.542 4.93-2.352 7.201-3.797 2.144-1.364 3.912-3.443 5.424-5.478 2.188-2.945 4.231-5.714 5.859-9.032 3.238-6.601 4.203-14.044 4.203-21.29 0-3.465-.712-6.512-1.573-9.832-.94-3.627-1.695-7.356-3.688-10.618-3.166-5.18-6.208-9.64-11.825-12.448-3.945-1.973-8.316-2.443-12.34-4.272-4.918-2.236-10.163-2.32-15.473-2.32-1.367 0-2.744-.048-4.109 0-1.609.058-3.143.904-4.746.977-2.692.123-4.976 1.315-7.459 2.143-1.634.544-3.062 1.631-4.814 2.02-1.403.312-2.293 1.485-3.58 2.075-1.285.59-2.738.824-3.946 1.573-.602.374-1.095.93-1.749 1.221-1.486.66-2.704 3.131-3.241 4.583-.749 2.023-1.558 4.076-2.252 6.157" stroke="#6B553B" stroke-width="3" stroke-linecap="round"/><path d="M413.565 123.046c-1.594.797-3.227 1.608-4.122 3.2-.939 1.67-1.838 3.561-2.129 5.465-.293 1.919-.734 3.587.054 5.465.546 1.301.983 2.527 1.831 3.689 1.785 2.446 4.643 4.772 7.716 5.275 1.775.29 3.29.136 5.004-.393.671-.208 1.426-.315 2.115-.461.794-.169 1.504-.711 2.102-1.255 1.463-1.33 2.754-2.603 3.709-4.366.796-1.471 1.293-3.034 1.593-4.665.326-1.77.043-3.972-.366-5.723-.301-1.29-1.085-2.541-1.708-3.675-.764-1.389-2.419-2.351-3.831-2.915-1.522-.609-2.925-.984-4.584-.984-.825 0-1.552.089-2.373.007-.435-.043-1.054-.095-1.471.054-.469.168-.996.139-1.451.367-.27.135-.732.154-.868.427" stroke="#6B553B" stroke-width="3" stroke-linecap="round"/><path d="M396.112 112.306c-2.165.7-4.034 3.704-5.18 5.668-1.723 2.955-2.462 7.225-3.01 10.578-.419 2.562.046 5.484.19 8.055.195 3.494.194 6.157 1.898 9.262 1.3 2.367 2.37 4.87 3.784 7.173 1.609 2.622 3.821 4.718 6.21 6.604 2.238 1.767 5.091 2.505 7.689 3.553 3.107 1.254 5.943 1.815 9.303 1.533 9.712-.817 18.447-3.844 25.616-10.551 7.171-6.708 11.065-17.215 9.262-26.999-1.532-8.32-6.27-18.426-14.618-21.765-1.945-.778-3.751-1.552-5.858-1.844-1.711-.238-3.345-.978-5.072-1.031-3.693-.114-7.547-1.52-11.188-.61-2.258.564-4.658.985-6.807 1.953-.884.397-2.006.89-2.943 1.098-.893.198-1.528 1.119-2.441 1.22-1.331.148-3.045 1.121-4.149 1.831-.516.332-1.156.79-1.587 1.221-.479.478-.473 1.378-1.099 1.586" stroke="#6B553B" stroke-width="3" stroke-linecap="round"/><path d="M396.113 112.306c-.256-.68 2.062-.643 2.685-.841 1.119-.356 2.529-.578 3.675-.244 2.253.657 4.401.803 6.332 2.305 1.585 1.233 2.768 2.348 3.716 4.15.547 1.039 1.166 2.731 1.166 3.906m5.615-19.04c1.907 1.958 3.385 3.662 4.149 6.292.435 1.499 1.43 3.063 1.465 4.638.037 1.721-.2 3.316-.543 4.99-.146.715-.217 2.278-.922 2.631m-7.811 25.386c-.679 3.565-.882 7.716.244 11.229.181.562 2.07 4.764 2.197 4.638m-20.992-6.347c.333-4.999 2.738-7.672 5.736-11.337 1.375-1.679 3.752-2.324 5.737-2.82m-19.772-10.741c1.173-.729 2.334-1.962 3.715-2.251.801-.167 1.596-.317 2.387-.488 1.41-.305 2.806-.55 4.204-.136 1.237.367 2.537.313 3.797.733 1.254.418 2.526 1.303 3.716 1.898m23.677-4.637c4.721-1.005 7.993-3.344 10.97-7.065.978-1.223 1.628-2.885 1.967-4.408.142-.642 1.753-3.676.976-3.417m-12.205 24.165c1.999.709 3.647 2.028 5.615 2.794 1.331.517 3.446.135 4.868.135 1.38 0 2.578-.099 3.919-.434.917-.229 2.639-.229 3.173-1.03m-21.48 6.102c.534 3.933 2.046 8.609 5.37 11.174.584.45 3.962 2.382 4.394 1.518" stroke="#6B553B" stroke-width="3" stroke-linecap="round"/><path d="M56.4 163.405c-.874 1.375-1.75 6.625-1.624 8.25-.25 6.625 3.25 10.625 6.625 11.625s15.875 3 18.5 3.375 30.375 5.625 34.25 6.75c3.1.9 17.541 4.875 24.375 6.75 8.208 2.792 25.1 8.5 27 9 2.375.625 22.75 6.75 30.5 9.375 6.2 2.1 29.416 8.292 40.25 11.125l26.625 8.75c14.166 3.417 42.65 10.25 43.25 10.25.75 0 23.5 6.75 25.875 7.375s11.625-.875 15.875-2 6.75-7.5 7.375-10.25.625-10.125-3.5-15-13.625-8.375-15-8.5-15.375-5.75-18.875-6.5c-2.8-.6-23.334-6.166-33.25-8.875-8.584-2.041-25.925-6.125-26.625-6.125-.875 0-19.625-4-21.625-4.25-1.6-.2-23.417-5.416-34.125-8-9.917-2.666-30.525-8.1-33.625-8.5-3.1-.4-22.042-4.916-31.125-7.125l-26.25-5.875-38-8.375c-2.042.084-6.475.425-7.875 1.125-1.75.875-8.125 4.25-9 5.625z" fill="#DAD5D1" stroke="#6B553B"/><path d="M63.525 158.53c-1.62.203-3.172 1.483-4.445 2.5-2.13 1.704-3.014 3.893-3.666 6.5-.488 1.952-.598 4.278-.375 6.278.221 1.994.247 4.19 1.736 5.722 1.212 1.249 2.54 3.053 4.25 3.556 1.516.446 2.989 1.343 4.514 1.819 2.896.905 7.105-.15 9.291-2.18 1.298-1.205 2.641-1.892 3.695-3.389 1.22-1.733 2.25-3.733 2.25-5.917 0-3.743-.102-6.972-2.25-10.194-1.628-2.442-5.126-5.695-8.264-5.695-1.165 0-2.288-.25-3.486-.25-.858 0-2.053.733-2.75.5m271.75 74.75c.01.006-1.115.629-1.306.75-.517.328-.956.739-1.43 1.125-1.003.814-1.514 2.252-1.514 3.5 0 2.72.367 5.088 2.125 7.236 2.991 3.656 8.964 3.885 12.389.889 1.057-.925 1.963-1.871 2.486-3.195.519-1.313.312-2.168.25-3.5-.107-2.289-1.336-4.562-2.945-6.111-1.783-1.718-3.981-1.694-6.305-1.694-.55 0-1.485-.174-2 .055-.279.124-1.25.373-1.25.195" stroke="#6B553B" stroke-width="3" stroke-linecap="round"/><path d="M63.275 158.28c.623-.553 2.18-.25 3-.25.924 0 1.576-.25 2.5-.25 3.054 0 5.761-1.096 8.805-.444 1.486.318 2.962.629 4.445 1 1.877.469 3.61 1.539 5.5 1.889 2.506.464 4.983 1.127 7.5 1.611 2.812.541 5.692 1.154 8.486 1.806 3.759.877 7.597 1.592 11.403 2.263 5.082.897 10.525 1.591 15.458 3.125 4.658 1.45 9.531 2.701 14.278 3.862 5.518 1.348 10.987 2.525 16.597 3.388 4.861.748 9.454 2.441 14.222 3.5 4.52 1.005 8.972 2.268 13.5 3.25 11.272 2.445 22.556 4.895 33.667 8.014 14.06 3.947 28.518 5.765 42.75 8.973 5.728 1.29 11.315 3.117 17.042 4.402 6.84 1.536 13.656 3.476 20.402 5.361 7.121 1.99 14.144 4.22 21.25 6.25 3.292.941 6.618 1.767 9.834 2.945 3.836 1.405 8.392 2.159 11.833 4.417 3.029 1.987 6.713 4.163 8.028 7.777 1.02 2.807 2 5.427 2 8.417 0 3.104-.327 6.031-2 8.75-.43.698-.671 1.488-1.125 2.194-.476.742-1.201 1.098-1.82 1.695-1.47 1.418-2.542 1.81-4.444 2.444-3.21 1.07-6.303 2.146-9.736 1.848-2.891-.252-5.951-1.125-8.75-1.862-1.764-.464-3.492-1.228-5.25-1.763-2.028-.618-4.162-1.183-6.125-1.987-3.055-1.249-6.563-1.591-9.764-2.277-4.305-.923-8.658-1.922-12.903-3.098-8.932-2.473-17.994-3.959-27-6.055-8.806-2.05-16.82-6.747-25.569-8.82-7.713-1.826-15.316-3.923-23.028-5.75-7.087-1.678-13.991-4.02-21.042-5.93-7.301-1.977-14.107-5.631-21.305-7.945-8.615-2.768-17.731-3.816-26.25-6.986-6.185-2.301-12.265-4.796-18.542-6.889-5.028-1.675-10.443-2.252-15.597-3.43-11.24-2.569-22.61-5.243-34.097-6.945-2.408-.356-4.946-.717-7.278-1.236-.846-.188-1.883-.264-2.75-.264-1.122 0-1.94.748-2.875-.5" stroke="#6B553B" stroke-width="3" stroke-linecap="round"/></svg>